  0
SECTION
  2
HEADER
  9
$ACADVER
  1
AC1032
  9
$ACADMAINTVER
 90
      329
  9
$DWGCODEPAGE
  3
ANSI_1252
  9
$REQUIREDVERSIONS
160
                 0
  9
$INSBASE
 10
0.0
 20
0.0
 30
0.0
  9
$EXTMIN
 10
1.000000000000000E+20
 20
1.000000000000000E+20
 30
1.000000000000000E+20
  9
$EXTMAX
 10
-1.000000000000000E+20
 20
-1.000000000000000E+20
 30
-1.000000000000000E+20
  9
$LIMMIN
 10
0.0
 20
0.0
  9
$LIMMAX
 10
12.0
 20
9.0
  9
$ORTHOMODE
 70
     0
  9
$REGENMODE
 70
     1
  9
$FILLMODE
 70
     1
  9
$QTEXTMODE
 70
     0
  9
$MIRRTEXT
 70
     0
  9
$LTSCALE
 40
1.0
  9
$ATTMODE
 70
     1
  9
$TEXTSIZE
 40
0.2
  9
$TRACEWID
 40
0.05
  9
$TEXTSTYLE
  7
Standard
  9
$CLAYER
  8
0
  9
$CELTYPE
  6
ByLayer
  9
$CECOLOR
 62
   256
  9
$CELTSCALE
 40
1.0
  9
$DISPSILH
 70
     0
  9
$DIMSCALE
 40
1.0
  9
$DIMASZ
 40
0.18
  9
$DIMEXO
 40
0.0625
  9
$DIMDLI
 40
0.38
  9
$DIMRND
 40
0.0
  9
$DIMDLE
 40
0.0
  9
$DIMEXE
 40
0.18
  9
$DIMTP
 40
0.0
  9
$DIMTM
 40
0.0
  9
$DIMTXT
 40
0.18
  9
$DIMCEN
 40
0.09
  9
$DIMTSZ
 40
0.0
  9
$DIMTOL
 70
     0
  9
$DIMLIM
 70
     0
  9
$DIMTIH
 70
     1
  9
$DIMTOH
 70
     1
  9
$DIMSE1
 70
     0
  9
$DIMSE2
 70
     0
  9
$DIMTAD
 70
     0
  9
$DIMZIN
 70
     0
  9
$DIMBLK
  1

  9
$DIMASO
 70
     1
  9
$DIMSHO
 70
     1
  9
$DIMPOST
  1

  9
$DIMAPOST
  1

  9
$DIMALT
 70
     0
  9
$DIMALTD
 70
     2
  9
$DIMALTF
 40
25.4
  9
$DIMLFAC
 40
1.0
  9
$DIMTOFL
 70
     0
  9
$DIMTVP
 40
0.0
  9
$DIMTIX
 70
     0
  9
$DIMSOXD
 70
     0
  9
$DIMSAH
 70
     0
  9
$DIMBLK1
  1

  9
$DIMBLK2
  1

  9
$DIMSTYLE
  2
Standard
  9
$DIMCLRD
 70
     0
  9
$DIMCLRE
 70
     0
  9
$DIMCLRT
 70
     0
  9
$DIMTFAC
 40
1.0
  9
$DIMGAP
 40
0.09
  9
$DIMJUST
 70
     0
  9
$DIMSD1
 70
     0
  9
$DIMSD2
 70
     0
  9
$DIMTOLJ
 70
     1
  9
$DIMTZIN
 70
     0
  9
$DIMALTZ
 70
     0
  9
$DIMALTTZ
 70
     0
  9
$DIMUPT
 70
     0
  9
$DIMDEC
 70
     4
  9
$DIMTDEC
 70
     4
  9
$DIMALTU
 70
     2
  9
$DIMALTTD
 70
     2
  9
$DIMTXSTY
  7
Standard
  9
$DIMAUNIT
 70
     0
  9
$DIMADEC
 70
     0
  9
$DIMALTRND
 40
0.0
  9
$DIMAZIN
 70
     0
  9
$DIMDSEP
 70
    46
  9
$DIMATFIT
 70
     3
  9
$DIMFRAC
 70
     0
  9
$DIMLDRBLK
  1

  9
$DIMLUNIT
 70
     2
  9
$DIMLWD
 70
    -2
  9
$DIMLWE
 70
    -2
  9
$DIMTMOVE
 70
     0
  9
$DIMFXL
 40
1.0
  9
$DIMFXLON
 70
     0
  9
$DIMJOGANG
 40
0.7853981633974483
  9
$DIMTFILL
 70
     0
  9
$DIMTFILLCLR
 70
     0
  9
$DIMARCSYM
 70
     0
  9
$DIMLTYPE
  6

  9
$DIMLTEX1
  6

  9
$DIMLTEX2
  6

  9
$DIMTXTDIRECTION
 70
     0
  9
$LUNITS
 70
     2
  9
$LUPREC
 70
     4
  9
$SKETCHINC
 40
0.1
  9
$FILLETRAD
 40
0.0
  9
$AUNITS
 70
     0
  9
$AUPREC
 70
     0
  9
$MENU
  1
.
  9
$ELEVATION
 40
0.0
  9
$PELEVATION
 40
0.0
  9
$THICKNESS
 40
0.0
  9
$LIMCHECK
 70
     0
  9
$CHAMFERA
 40
0.0
  9
$CHAMFERB
 40
0.0
  9
$CHAMFERC
 40
0.0
  9
$CHAMFERD
 40
0.0
  9
$SKPOLY
 70
     0
  9
$TDCREATE
 40
2460733.396238426
  9
$TDUCREATE
 40
2460733.729571759
  9
$TDUPDATE
 40
2460733.396238426
  9
$TDUUPDATE
 40
2460733.729571759
  9
$TDINDWG
 40
0.0000115741
  9
$TDUSRTIMER
 40
0.0000115741
  9
$USRTIMER
 70
     1
  9
$ANGBASE
 50
0.0
  9
$ANGDIR
 70
     0
  9
$PDMODE
 70
     0
  9
$PDSIZE
 40
0.0
  9
$PLINEWID
 40
0.0
  9
$SPLFRAME
 70
     0
  9
$SPLINETYPE
 70
     6
  9
$SPLINESEGS
 70
     8
  9
$HANDSEED
  5
127
  9
$SURFTAB1
 70
     6
  9
$SURFTAB2
 70
     6
  9
$SURFTYPE
 70
     6
  9
$SURFU
 70
     6
  9
$SURFV
 70
     6
  9
$UCSBASE
  2

  9
$UCSNAME
  2

  9
$UCSORG
 10
0.0
 20
0.0
 30
0.0
  9
$UCSXDIR
 10
1.0
 20
0.0
 30
0.0
  9
$UCSYDIR
 10
0.0
 20
1.0
 30
0.0
  9
$UCSORTHOREF
  2

  9
$UCSORTHOVIEW
 70
     0
  9
$UCSORGTOP
 10
0.0
 20
0.0
 30
0.0
  9
$UCSORGBOTTOM
 10
0.0
 20
0.0
 30
0.0
  9
$UCSORGLEFT
 10
0.0
 20
0.0
 30
0.0
  9
$UCSORGRIGHT
 10
0.0
 20
0.0
 30
0.0
  9
$UCSORGFRONT
 10
0.0
 20
0.0
 30
0.0
  9
$UCSORGBACK
 10
0.0
 20
0.0
 30
0.0
  9
$PUCSBASE
  2

  9
$PUCSNAME
  2

  9
$PUCSORG
 10
0.0
 20
0.0
 30
0.0
  9
$PUCSXDIR
 10
1.0
 20
0.0
 30
0.0
  9
$PUCSYDIR
 10
0.0
 20
1.0
 30
0.0
  9
$PUCSORTHOREF
  2

  9
$PUCSORTHOVIEW
 70
     0
  9
$PUCSORGTOP
 10
0.0
 20
0.0
 30
0.0
  9
$PUCSORGBOTTOM
 10
0.0
 20
0.0
 30
0.0
  9
$PUCSORGLEFT
 10
0.0
 20
0.0
 30
0.0
  9
$PUCSORGRIGHT
 10
0.0
 20
0.0
 30
0.0
  9
$PUCSORGFRONT
 10
0.0
 20
0.0
 30
0.0
  9
$PUCSORGBACK
 10
0.0
 20
0.0
 30
0.0
  9
$USERI1
 70
     0
  9
$USERI2
 70
     0
  9
$USERI3
 70
     0
  9
$USERI4
 70
     0
  9
$USERI5
 70
     0
  9
$USERR1
 40
0.0
  9
$USERR2
 40
0.0
  9
$USERR3
 40
0.0
  9
$USERR4
 40
0.0
  9
$USERR5
 40
0.0
  9
$WORLDVIEW
 70
     1
  9
$SHADEDGE
 70
     3
  9
$SHADEDIF
 70
    70
  9
$TILEMODE
 70
     1
  9
$MAXACTVP
 70
    64
  9
$PINSBASE
 10
0.0
 20
0.0
 30
0.0
  9
$PLIMCHECK
 70
     0
  9
$PEXTMIN
 10
1.000000000000000E+20
 20
1.000000000000000E+20
 30
1.000000000000000E+20
  9
$PEXTMAX
 10
-1.000000000000000E+20
 20
-1.000000000000000E+20
 30
-1.000000000000000E+20
  9
$PLIMMIN
 10
0.0
 20
0.0
  9
$PLIMMAX
 10
12.0
 20
9.0
  9
$UNITMODE
 70
     0
  9
$VISRETAIN
 70
     1
  9
$PLINEGEN
 70
     0
  9
$PSLTSCALE
 70
     1
  9
$TREEDEPTH
 70
  3020
  9
$CMLSTYLE
  2
Standard
  9
$CMLJUST
 70
     0
  9
$CMLSCALE
 40
1.0
  9
$PROXYGRAPHICS
 70
     1
  9
$MEASUREMENT
 70
     0
  9
$CELWEIGHT
370
    -1
  9
$ENDCAPS
280
     0
  9
$JOINSTYLE
280
     0
  9
$LWDISPLAY
290
     1
  9
$INSUNITS
 70
     1
  9
$HYPERLINKBASE
  1

  9
$STYLESHEET
  1

  9
$XEDIT
290
     1
  9
$CEPSNTYPE
380
     0
  9
$PSTYLEMODE
290
     1
  9
$FINGERPRINTGUID
  2
{9D5A1994-D617-4E42-96E0-F872F79A6766}
  9
$VERSIONGUID
  2
{5EA256C8-F3F2-F648-AD19-0EE85AB58083}
  9
$EXTNAMES
290
     1
  9
$PSVPSCALE
 40
0.0
  9
$OLESTARTUP
290
     0
  9
$SORTENTS
280
   127
  9
$INDEXCTL
280
     0
  9
$HIDETEXT
280
     1
  9
$XCLIPFRAME
280
     2
  9
$HALOGAP
280
     0
  9
$OBSCOLOR
 70
   257
  9
$OBSLTYPE
280
     0
  9
$INTERSECTIONDISPLAY
280
     0
  9
$INTERSECTIONCOLOR
 70
   257
  9
$DIMASSOC
280
     2
  9
$PROJECTNAME
  1

  9
$CAMERADISPLAY
290
     0
  9
$LENSLENGTH
 40
50.0
  9
$CAMERAHEIGHT
 40
0.0
  9
$STEPSPERSEC
 40
2.0
  9
$STEPSIZE
 40
6.0
  9
$3DDWFPREC
 40
2.0
  9
$PSOLWIDTH
 40
0.25
  9
$PSOLHEIGHT
 40
4.0
  9
$LOFTANG1
 40
1.570796326794896
  9
$LOFTANG2
 40
1.570796326794896
  9
$LOFTMAG1
 40
0.0
  9
$LOFTMAG2
 40
0.0
  9
$LOFTPARAM
 70
     7
  9
$LOFTNORMALS
280
     1
  9
$LATITUDE
 40
37.795
  9
$LONGITUDE
 40
-122.394
  9
$NORTHDIRECTION
 40
0.0
  9
$TIMEZONE
 70
 -8000
  9
$LIGHTGLYPHDISPLAY
280
     1
  9
$TILEMODELIGHTSYNCH
280
     1
  9
$CMATERIAL
347
11
  9
$SOLIDHIST
280
     0
  9
$SHOWHIST
280
     1
  9
$DWFFRAME
280
     2
  9
$DGNFRAME
280
     0
  9
$REALWORLDSCALE
290
     1
  9
$INTERFERECOLOR
 62
     1
  9
$INTERFEREOBJVS
345
33
  9
$INTERFEREVPVS
346
30
  9
$CSHADOW
280
     0
  9
$SHADOWPLANELOCATION
 40
0.0
  0
ENDSEC
  0
SECTION
  2
CLASSES
  0
CLASS
  1
ACDBDICTIONARYWDFLT
  2
AcDbDictionaryWithDefault
  3
ObjectDBX Classes
 90
        0
 91
        1
280
     0
281
     0
  0
CLASS
  1
MATERIAL
  2
AcDbMaterial
  3
ObjectDBX Classes
 90
     1153
 91
        3
280
     0
281
     0
  0
CLASS
  1
VISUALSTYLE
  2
AcDbVisualStyle
  3
ObjectDBX Classes
 90
     4095
 91
       24
280
     0
281
     0
  0
CLASS
  1
SCALE
  2
AcDbScale
  3
ObjectDBX Classes
 90
     1153
 91
       17
280
     0
281
     0
  0
CLASS
  1
TABLESTYLE
  2
AcDbTableStyle
  3
ObjectDBX Classes
 90
     4095
 91
        1
280
     0
281
     0
  0
CLASS
  1
MLEADERSTYLE
  2
AcDbMLeaderStyle
  3
ACDB_MLEADERSTYLE_CLASS
 90
     4095
 91
        1
280
     0
281
     0
  0
CLASS
  1
ACDBSECTIONVIEWSTYLE
  2
AcDbSectionViewStyle
  3
ObjectDBX Classes
 90
     1025
 91
        1
280
     0
281
     0
  0
CLASS
  1
ACDBDETAILVIEWSTYLE
  2
AcDbDetailViewStyle
  3
ObjectDBX Classes
 90
     1025
 91
        1
280
     0
281
     0
  0
CLASS
  1
DICTIONARYVAR
  2
AcDbDictionaryVar
  3
ObjectDBX Classes
 90
        0
 91
        5
280
     0
281
     0
  0
CLASS
  1
CELLSTYLEMAP
  2
AcDbCellStyleMap
  3
ObjectDBX Classes
 90
     1152
 91
        1
280
     0
281
     0
  0
ENDSEC
  0
SECTION
  2
TABLES
  0
TABLE
  2
VPORT
  5
8
330
0
100
AcDbSymbolTable
 70
     1
  0
VPORT
  5
57
330
8
100
AcDbSymbolTableRecord
100
AcDbViewportTableRecord
  2
*Active
 70
     0
 10
0.0
 20
0.0
 11
1.0
 21
1.0
 12
0.0
 22
0.0
 13
0.0
 23
0.0
 14
1.0
 24
1.0
 15
0.0
 25
0.0
 16
0.0
 26
0.0
 36
1.0
 17
13.33333333333333
 27
7.5
 37
0.0
 40
18.36
 41
1.333333333333333
 42
50.0
 43
0.0
 44
0.0
 50
0.0
 51
0.0
 71
     0
 72
   100
 73
     1
 74
     1
 75
     0
 76
     0
 77
     0
 78
     0
281
     0
 65
     1
110
0.0
120
0.0
130
0.0
111
1.0
121
0.0
131
0.0
112
0.0
122
1.0
132
0.0
 79
     0
146
0.0
 60
     3
 61
     5
292
     1
282
     1
141
0.0
142
0.0
 63
   250
421
  3355443
  0
ENDTAB
  0
TABLE
  2
LTYPE
  5
5
330
0
100
AcDbSymbolTable
 70
     1
  0
LTYPE
  5
5B
330
5
100
AcDbSymbolTableRecord
100
AcDbLinetypeTableRecord
  2
ByBlock
 70
     0
  3

 72
    65
 73
     0
 40
0.0
  0
LTYPE
  5
5C
330
5
100
AcDbSymbolTableRecord
100
AcDbLinetypeTableRecord
  2
ByLayer
 70
     0
  3

 72
    65
 73
     0
 40
0.0
  0
LTYPE
  5
5D
330
5
100
AcDbSymbolTableRecord
100
AcDbLinetypeTableRecord
  2
Continuous
 70
     0
  3
Solid line
 72
    65
 73
     0
 40
0.0
  0
ENDTAB
  0
TABLE
  2
LAYER
  5
2
330
0
100
AcDbSymbolTable
 70
     4
  0
LAYER
  5
54
330
2
100
AcDbSymbolTableRecord
100
AcDbLayerTableRecord
  2
0
 70
     0
 62
     7
  6
Continuous
370
    -3
390
F
347
21
348
0
  0
LAYER
  5
78
330
2
100
AcDbSymbolTableRecord
100
AcDbLayerTableRecord
  2
SKIP
 70
     0
 62
     7
  6
Continuous
370
     0
390
F
347
21
348
0
  0
LAYER
  5
7A
330
2
100
AcDbSymbolTableRecord
100
AcDbLayerTableRecord
  2
CUT
 70
     0
 62
     7
  6
Continuous
370
     0
390
F
347
21
348
0
  0
LAYER
  5
C1
330
2
100
AcDbSymbolTableRecord
100
AcDbLayerTableRecord
  2
ETCH
 70
     0
 62
     7
  6
Continuous
370
     0
390
F
347
21
348
0
  0
ENDTAB
  0
TABLE
  2
STYLE
  5
3
330
0
100
AcDbSymbolTable
 70
     2
  0
STYLE
  5
55
330
3
100
AcDbSymbolTableRecord
100
AcDbTextStyleTableRecord
  2
Standard
 70
     0
 40
0.0
 41
1.0
 50
0.0
 71
     0
 42
0.2
  3
txt
  4

  0
STYLE
  5
5A
330
3
100
AcDbSymbolTableRecord
100
AcDbTextStyleTableRecord
  2
Annotative
 70
     0
 40
0.0
 41
1.0
 50
0.0
 71
     0
 42
0.2
  3
txt
  4

1001
AcadAnnotative
1000
AnnotativeData
1002
{
1070
     1
1070
     1
1002
}
  0
ENDTAB
  0
TABLE
  2
VIEW
  5
6
330
0
100
AcDbSymbolTable
 70
     0
  0
ENDTAB
  0
TABLE
  2
UCS
  5
7
330
0
100
AcDbSymbolTable
 70
     0
  0
ENDTAB
  0
TABLE
  2
APPID
  5
9
330
0
100
AcDbSymbolTable
 70
     2
  0
APPID
  5
56
330
9
100
AcDbSymbolTableRecord
100
AcDbRegAppTableRecord
  2
ACAD
 70
     0
  0
APPID
  5
5E
330
9
100
AcDbSymbolTableRecord
100
AcDbRegAppTableRecord
  2
AcadAnnotative
 70
     0
  0
ENDTAB
  0
TABLE
  2
DIMSTYLE
  5
A
330
0
100
AcDbSymbolTable
 70
     2
100
AcDbDimStyleTable
 71
     0
  0
DIMSTYLE
105
58
330
A
100
AcDbSymbolTableRecord
100
AcDbDimStyleTableRecord
  2
Standard
 70
     0
340
55
  0
DIMSTYLE
105
59
330
A
100
AcDbSymbolTableRecord
100
AcDbDimStyleTableRecord
  2
Annotative
 70
     0
340
55
1001
AcadAnnotative
1000
AnnotativeData
1002
{
1070
     1
1070
     1
1002
}
  0
ENDTAB
  0
TABLE
  2
BLOCK_RECORD
  5
1
330
0
100
AcDbSymbolTable
 70
    17
  0
BLOCK_RECORD
  5
70
330
1
100
AcDbSymbolTableRecord
100
AcDbBlockTableRecord
  2
*Model_Space
340
73
 70
     0
280
     1
281
     0
  0
BLOCK_RECORD
  5
6C
330
1
100
AcDbSymbolTableRecord
100
AcDbBlockTableRecord
  2
*Paper_Space
340
6F
 70
     0
280
     1
281
     0
  0
BLOCK_RECORD
  5
74
330
1
100
AcDbSymbolTableRecord
100
AcDbBlockTableRecord
  2
*Paper_Space0
340
77
 70
     0
280
     1
281
     0
  0
BLOCK_RECORD
  5
7B
330
1
100
AcDbSymbolTableRecord
100
AcDbBlockTableRecord
  2
Block_0
340
0
102
{BLKREFS
331
7C
102
}
 70
     0
280
     1
281
     0
  0
BLOCK_RECORD
  5
8E
330
1
100
AcDbSymbolTableRecord
100
AcDbBlockTableRecord
  2
Block_1
340
0
102
{BLKREFS
331
8F
102
}
 70
     0
280
     1
281
     0
  0
BLOCK_RECORD
  5
A1
330
1
100
AcDbSymbolTableRecord
100
AcDbBlockTableRecord
  2
Block_2
340
0
102
{BLKREFS
331
A2
102
}
 70
     0
280
     1
281
     0
  0
BLOCK_RECORD
  5
B1
330
1
100
AcDbSymbolTableRecord
100
AcDbBlockTableRecord
  2
Block_3
340
0
102
{BLKREFS
331
B2
102
}
 70
     0
280
     1
281
     0
  0
BLOCK_RECORD
  5
C2
330
1
100
AcDbSymbolTableRecord
100
AcDbBlockTableRecord
  2
Block_4
340
0
102
{BLKREFS
331
C3
102
}
 70
     0
280
     1
281
     0
  0
BLOCK_RECORD
  5
C9
330
1
100
AcDbSymbolTableRecord
100
AcDbBlockTableRecord
  2
Block_5
340
0
102
{BLKREFS
331
CA
102
}
 70
     0
280
     1
281
     0
  0
BLOCK_RECORD
  5
D2
330
1
100
AcDbSymbolTableRecord
100
AcDbBlockTableRecord
  2
Block_6
340
0
102
{BLKREFS
331
D3
102
}
 70
     0
280
     1
281
     0
  0
BLOCK_RECORD
  5
DC
330
1
100
AcDbSymbolTableRecord
100
AcDbBlockTableRecord
  2
Block_7
340
0
102
{BLKREFS
331
DD
102
}
 70
     0
280
     1
281
     0
  0
BLOCK_RECORD
  5
E0
330
1
100
AcDbSymbolTableRecord
100
AcDbBlockTableRecord
  2
Block_8
340
0
102
{BLKREFS
331
E1
102
}
 70
     0
280
     1
281
     0
  0
BLOCK_RECORD
  5
E7
330
1
100
AcDbSymbolTableRecord
100
AcDbBlockTableRecord
  2
Block_9
340
0
102
{BLKREFS
331
E8
102
}
 70
     0
280
     1
281
     0
  0
BLOCK_RECORD
  5
F0
330
1
100
AcDbSymbolTableRecord
100
AcDbBlockTableRecord
  2
Block_10
340
0
102
{BLKREFS
331
F1
102
}
 70
     0
280
     1
281
     0
  0
BLOCK_RECORD
  5
F7
330
1
100
AcDbSymbolTableRecord
100
AcDbBlockTableRecord
  2
Block_11
340
0
102
{BLKREFS
331
F8
102
}
 70
     0
280
     1
281
     0
  0
BLOCK_RECORD
  5
100
330
1
100
AcDbSymbolTableRecord
100
AcDbBlockTableRecord
  2
Block_12
340
0
102
{BLKREFS
331
101
102
}
 70
     0
280
     1
281
     0
  0
BLOCK_RECORD
  5
10A
330
1
100
AcDbSymbolTableRecord
100
AcDbBlockTableRecord
  2
Block_13
340
0
102
{BLKREFS
331
10B
102
}
 70
     0
280
     1
281
     0
  0
BLOCK_RECORD
  5
10E
330
1
100
AcDbSymbolTableRecord
100
AcDbBlockTableRecord
  2
Block_14
340
0
102
{BLKREFS
331
10F
102
}
 70
     0
280
     1
281
     0
  0
BLOCK_RECORD
  5
115
330
1
100
AcDbSymbolTableRecord
100
AcDbBlockTableRecord
  2
Block_15
340
0
102
{BLKREFS
331
116
102
}
 70
     0
280
     1
281
     0
  0
ENDTAB
  0
ENDSEC
  0
SECTION
  2
BLOCKS
  0
BLOCK
  5
71
330
70
100
AcDbEntity
  8
0
100
AcDbBlockBegin
  2
*Model_Space
 70
     0
 10
0.0
 20
0.0
 30
0.0
  3
*Model_Space
  1

  0
ENDBLK
  5
72
330
70
100
AcDbEntity
  8
0
100
AcDbBlockEnd
  0
BLOCK
  5
6D
330
6C
100
AcDbEntity
 67
     1
  8
0
100
AcDbBlockBegin
  2
*Paper_Space
 70
     0
 10
0.0
 20
0.0
 30
0.0
  3
*Paper_Space
  1

  0
ENDBLK
  5
6E
330
6C
100
AcDbEntity
 67
     1
  8
0
100
AcDbBlockEnd
  0
BLOCK
  5
75
330
74
100
AcDbEntity
 67
     1
  8
0
100
AcDbBlockBegin
  2
*Paper_Space0
 70
     0
 10
0.0
 20
0.0
 30
0.0
  3
*Paper_Space0
  1

  0
ENDBLK
  5
76
330
74
100
AcDbEntity
 67
     1
  8
0
100
AcDbBlockEnd
  0
BLOCK
  5
7D
330
7B
100
AcDbEntity
  8
0
100
AcDbBlockBegin
  2
Block_0
 70
     0
 10
0.0
 20
0.0
 30
0.0
  3
Block_0
  1

  0
CIRCLE
  5
7F
330
7B
100
AcDbEntity
  8
CUT
 62
     1
420
 16711680
370
     9
100
AcDbCircle
 10
5.937004057736928
 20
3.549999999999979
 30
0.0
 40
0.063999999999993
  0
CIRCLE
  5
80
330
7B
100
AcDbEntity
  8
CUT
 62
     1
420
 16711680
370
     9
100
AcDbCircle
 10
5.937004057736928
 20
11.93799999999997
 30
0.0
 40
0.063999999999993
  0
LINE
  5
81
330
7B
100
AcDbEntity
  8
CUT
 62
     1
420
 16711680
370
     9
100
AcDbLine
 10
2.763004057736945
 20
-0.1310000000000097
 30
0.0
 11
2.763004057736945
 21
15.61899999999998
 31
0.0
  0
LINE
  5
82
330
7B
100
AcDbEntity
  8
CUT
 62
     1
420
 16711680
370
     9
100
AcDbLine
 10
2.763004057736945
 20
-0.1310000000000097
 30
0.0
 11
6.250004057736923
 21
-0.1310000000000097
 31
0.0
  0
LINE
  5
83
330
7B
100
AcDbEntity
  8
CUT
 62
     1
420
 16711680
370
     9
100
AcDbLine
 10
6.250004057736923
 20
-0.1310000000000097
 30
0.0
 11
6.250004057736923
 21
15.61899999999998
 31
0.0
  0
LINE
  5
84
330
7B
100
AcDbEntity
  8
CUT
 62
     1
420
 16711680
370
     9
100
AcDbLine
 10
6.250004057736923
 20
15.61899999999998
 30
0.0
 11
2.763004057736945
 21
15.61899999999998
 31
0.0
  0
CIRCLE
  5
85
330
7B
100
AcDbEntity
  8
CUT
 62
     1
420
 16711680
370
     9
100
AcDbCircle
 10
3.669004057736941
 20
13.61899999999997
 30
0.0
 40
0.5450000000000017
  0
CIRCLE
  5
86
330
7B
100
AcDbEntity
  8
CUT
 62
     1
420
 16711680
370
     9
100
AcDbCircle
 10
5.369004057736939
 20
13.61899999999997
 30
0.0
 40
0.5449999999999969
  0
CIRCLE
  5
87
330
7B
100
AcDbEntity
  8
CUT
 62
     1
420
 16711680
370
     9
100
AcDbCircle
 10
4.369004057736936
 20
0.1819999999999784
 30
0.0
 40
0.06899999999999
  0
CIRCLE
  5
88
330
7B
100
AcDbEntity
  8
CUT
 62
     1
420
 16711680
370
     9
100
AcDbCircle
 10
4.369004057736939
 20
15.30599999999997
 30
0.0
 40
0.0689999999999979
  0
CIRCLE
  5
89
330
7B
100
AcDbEntity
  8
CUT
 62
     1
420
 16711680
370
     9
100
AcDbCircle
 10
5.937004057736928
 20
7.743999999999964
 30
0.0
 40
0.069000000000001
  0
CIRCLE
  5
8A
330
7B
100
AcDbEntity
  8
CUT
 62
     1
420
 16711680
370
     9
100
AcDbCircle
 10
4.369004057736936
 20
9.743999999999976
 30
0.0
 40
0.4625000000000009
  0
CIRCLE
  5
8B
330
7B
100
AcDbEntity
  8
CUT
 62
     1
420
 16711680
370
     9
100
AcDbCircle
 10
4.369004057736939
 20
5.743999999999977
 30
0.0
 40
1.199999999999988
  0
CIRCLE
  5
8C
330
7B
100
AcDbEntity
  8
CUT
 62
     1
420
 16711680
370
     9
100
AcDbCircle
 10
5.369004057736939
 20
1.868999999999977
 30
0.0
 40
0.5449999999999906
  0
CIRCLE
  5
8D
330
7B
100
AcDbEntity
  8
CUT
 62
     1
420
 16711680
370
     9
100
AcDbCircle
 10
3.669004057736941
 20
1.868999999999977
 30
0.0
 40
0.5449999999999954
  0
ENDBLK
  5
7E
330
7B
100
AcDbEntity
  8
0
100
AcDbBlockEnd
  0
BLOCK
  5
90
330
8E
100
AcDbEntity
  8
0
100
AcDbBlockBegin
  2
Block_1
 70
     0
 10
0.0
 20
0.0
 30
0.0
  3
Block_1
  1

  0
CIRCLE
  5
92
330
8E
100
AcDbEntity
  8
CUT
 62
     1
420
 16711680
370
     9
100
AcDbCircle
 10
10.16279726171672
 20
3.480999999999969
 30
0.0
 40
0.063999999999993
  0
CIRCLE
  5
93
330
8E
100
AcDbEntity
  8
CUT
 62
     1
420
 16711680
370
     9
100
AcDbCircle
 10
10.16279726171672
 20
11.86899999999995
 30
0.0
 40
0.063999999999993
  0
LINE
  5
94
330
8E
100
AcDbEntity
  8
CUT
 62
     1
420
 16711680
370
     9
100
AcDbLine
 10
6.98879726171674
 20
-0.2000000000000202
 30
0.0
 11
6.98879726171674
 21
15.54999999999995
 31
0.0
  0
LINE
  5
95
330
8E
100
AcDbEntity
  8
CUT
 62
     1
420
 16711680
370
     9
100
AcDbLine
 10
6.98879726171674
 20
-0.2000000000000202
 30
0.0
 11
10.47579726171672
 21
-0.2000000000000202
 31
0.0
  0
LINE
  5
96
330
8E
100
AcDbEntity
  8
CUT
 62
     1
420
 16711680
370
     9
100
AcDbLine
 10
10.47579726171672
 20
-0.2000000000000202
 30
0.0
 11
10.47579726171672
 21
15.54999999999995
 31
0.0
  0
LINE
  5
97
330
8E
100
AcDbEntity
  8
CUT
 62
     1
420
 16711680
370
     9
100
AcDbLine
 10
10.47579726171672
 20
15.54999999999995
 30
0.0
 11
6.98879726171674
 21
15.54999999999995
 31
0.0
  0
CIRCLE
  5
98
330
8E
100
AcDbEntity
  8
CUT
 62
     1
420
 16711680
370
     9
100
AcDbCircle
 10
7.894797261716736
 20
13.54999999999995
 30
0.0
 40
0.5450000000000017
  0
CIRCLE
  5
99
330
8E
100
AcDbEntity
  8
CUT
 62
     1
420
 16711680
370
     9
100
AcDbCircle
 10
9.594797261716735
 20
13.54999999999995
 30
0.0
 40
0.5449999999999969
  0
CIRCLE
  5
9A
330
8E
100
AcDbEntity
  8
CUT
 62
     1
420
 16711680
370
     9
100
AcDbCircle
 10
8.594797261716731
 20
0.112999999999968
 30
0.0
 40
0.06899999999999
  0
CIRCLE
  5
9B
330
8E
100
AcDbEntity
  8
CUT
 62
     1
420
 16711680
370
     9
100
AcDbCircle
 10
8.594797261716735
 20
15.23699999999995
 30
0.0
 40
0.0689999999999979
  0
CIRCLE
  5
9C
330
8E
100
AcDbEntity
  8
CUT
 62
     1
420
 16711680
370
     9
100
AcDbCircle
 10
10.16279726171672
 20
7.674999999999941
 30
0.0
 40
0.069000000000001
  0
CIRCLE
  5
9D
330
8E
100
AcDbEntity
  8
CUT
 62
     1
420
 16711680
370
     9
100
AcDbCircle
 10
8.594797261716731
 20
9.674999999999954
 30
0.0
 40
0.4625000000000009
  0
CIRCLE
  5
9E
330
8E
100
AcDbEntity
  8
CUT
 62
     1
420
 16711680
370
     9
100
AcDbCircle
 10
8.594797261716735
 20
5.674999999999966
 30
0.0
 40
1.199999999999988
  0
CIRCLE
  5
9F
330
8E
100
AcDbEntity
  8
CUT
 62
     1
420
 16711680
370
     9
100
AcDbCircle
 10
9.594797261716735
 20
1.799999999999966
 30
0.0
 40
0.5449999999999906
  0
CIRCLE
  5
A0
330
8E
100
AcDbEntity
  8
CUT
 62
     1
420
 16711680
370
     9
100
AcDbCircle
 10
7.894797261716736
 20
1.799999999999966
 30
0.0
 40
0.5449999999999954
  0
ENDBLK
  5
91
330
8E
100
AcDbEntity
  8
0
100
AcDbBlockEnd
  0
BLOCK
  5
A3
330
A1
100
AcDbEntity
  8
0
100
AcDbBlockBegin
  2
Block_2
 70
     0
 10
0.0
 20
0.0
 30
0.0
  3
Block_2
  1

  0
CIRCLE
  5
A5
330
A1
100
AcDbEntity
  8
CUT
 62
     1
420
 16711680
370
     9
100
AcDbCircle
 10
14.16265508181161
 20
11.86899999994076
 30
0.0
 40
0.0640000000000024
  0
CIRCLE
  5
A6
330
A1
100
AcDbEntity
  8
CUT
 62
     1
420
 16711680
370
     9
100
AcDbCircle
 10
14.16265508143501
 20
3.480999999940801
 30
0.0
 40
0.0639999999999961
  0
CIRCLE
  5
A7
330
A1
100
AcDbEntity
  8
CUT
 62
     1
420
 16711680
370
     9
100
AcDbCircle
 10
11.5266550818116
 20
11.86900000005912
 30
0.0
 40
0.0639999999999961
  0
CIRCLE
  5
A8
330
A1
100
AcDbEntity
  8
CUT
 62
     1
420
 16711680
370
     9
100
AcDbCircle
 10
11.52665508143502
 20
3.481000000059136
 30
0.0
 40
0.0640000000000024
  0
CIRCLE
  5
A9
330
A1
100
AcDbEntity
  8
CUT
 62
     1
420
 16711680
370
     9
100
AcDbCircle
 10
14.16265508162332
 20
7.67499999994076
 30
0.0
 40
0.0690000000000042
  0
CIRCLE
  5
AA
330
A1
100
AcDbEntity
  8
CUT
 62
     1
420
 16711680
370
     9
100
AcDbCircle
 10
12.8446550812838
 20
0.1129999999999553
 30
0.0
 40
0.0689999999999979
  0
CIRCLE
  5
AB
330
A1
100
AcDbEntity
  8
CUT
 62
     1
420
 16711680
370
     9
100
AcDbCircle
 10
12.84465508196281
 20
15.23699999999995
 30
0.0
 40
0.0690000000000058
  0
CIRCLE
  5
AC
330
A1
100
AcDbEntity
  8
CUT
 62
     1
420
 16711680
370
     9
100
AcDbCircle
 10
11.52665508162331
 20
7.675000000059121
 30
0.0
 40
0.0689999999999916
  0
LINE
  5
AD
330
A1
100
AcDbEntity
  8
CUT
 62
     1
420
 16711680
370
     9
100
AcDbLine
 10
14.59465508126974
 20
-0.200000000078641
 30
0.0
 11
14.59465508197687
 21
15.54999999992134
 31
0.0
  0
LINE
  5
AE
330
A1
100
AcDbEntity
  8
CUT
 62
     1
420
 16711680
370
     9
100
AcDbLine
 10
14.59465508197687
 20
15.54999999992134
 30
0.0
 11
11.0946550819769
 21
15.55000000007857
 31
0.0
  0
LINE
  5
AF
330
A1
100
AcDbEntity
  8
CUT
 62
     1
420
 16711680
370
     9
100
AcDbLine
 10
11.0946550819769
 20
15.55000000007857
 30
0.0
 11
11.09465508126975
 21
-0.1999999999215005
 31
0.0
  0
LINE
  5
B0
330
A1
100
AcDbEntity
  8
CUT
 62
     1
420
 16711680
370
     9
100
AcDbLine
 10
14.59465508126974
 20
-0.200000000078641
 30
0.0
 11
11.09465508126975
 21
-0.1999999999215005
 31
0.0
  0
ENDBLK
  5
A4
330
A1
100
AcDbEntity
  8
0
100
AcDbBlockEnd
  0
BLOCK
  5
B3
330
B1
100
AcDbEntity
  8
0
100
AcDbBlockBegin
  2
Block_3
 70
     0
 10
0.0
 20
0.0
 30
0.0
  3
Block_3
  1

  0
CIRCLE
  5
B5
330
B1
100
AcDbEntity
  8
CUT
 62
     1
420
 16711680
370
     9
100
AcDbCircle
 10
18.28151290207178
 20
11.86900000001933
 30
0.0
 40
0.0640000000000024
  0
CIRCLE
  5
B6
330
B1
100
AcDbEntity
  8
CUT
 62
     1
420
 16711680
370
     9
100
AcDbCircle
 10
18.28151290169518
 20
3.481000000019371
 30
0.0
 40
0.0639999999999961
  0
CIRCLE
  5
B7
330
B1
100
AcDbEntity
  8
CUT
 62
     1
420
 16711680
370
     9
100
AcDbCircle
 10
15.64551290207176
 20
11.86900000013769
 30
0.0
 40
0.0639999999999961
  0
CIRCLE
  5
B8
330
B1
100
AcDbEntity
  8
CUT
 62
     1
420
 16711680
370
     9
100
AcDbCircle
 10
15.64551290169518
 20
3.481000000137707
 30
0.0
 40
0.0640000000000024
  0
CIRCLE
  5
B9
330
B1
100
AcDbEntity
  8
CUT
 62
     1
420
 16711680
370
     9
100
AcDbCircle
 10
18.28151290188349
 20
7.675000000019331
 30
0.0
 40
0.0690000000000042
  0
CIRCLE
  5
BA
330
B1
100
AcDbEntity
  8
CUT
 62
     1
420
 16711680
370
     9
100
AcDbCircle
 10
16.96351290154397
 20
0.1130000000785256
 30
0.0
 40
0.0690000000000042
  0
CIRCLE
  5
BB
330
B1
100
AcDbEntity
  8
CUT
 62
     1
420
 16711680
370
     9
100
AcDbCircle
 10
16.96351290222299
 20
15.23700000007852
 30
0.0
 40
0.0689999999999994
  0
CIRCLE
  5
BC
330
B1
100
AcDbEntity
  8
CUT
 62
     1
420
 16711680
370
     9
100
AcDbCircle
 10
15.64551290188347
 20
7.675000000137692
 30
0.0
 40
0.0689999999999916
  0
LINE
  5
BD
330
B1
100
AcDbEntity
  8
CUT
 62
     1
420
 16711680
370
     9
100
AcDbLine
 10
18.71351290152991
 20
-0.2000000000000707
 30
0.0
 11
18.71351290223704
 21
15.54999999999991
 31
0.0
  0
LINE
  5
BE
330
B1
100
AcDbEntity
  8
CUT
 62
     1
420
 16711680
370
     9
100
AcDbLine
 10
18.71351290223704
 20
15.54999999999991
 30
0.0
 11
15.21351290223707
 21
15.55000000015714
 31
0.0
  0
LINE
  5
BF
330
B1
100
AcDbEntity
  8
CUT
 62
     1
420
 16711680
370
     9
100
AcDbLine
 10
15.21351290223707
 20
15.55000000015714
 30
0.0
 11
15.21351290152991
 21
-0.1999999998429303
 31
0.0
  0
LINE
  5
C0
330
B1
100
AcDbEntity
  8
CUT
 62
     1
420
 16711680
370
     9
100
AcDbLine
 10
18.71351290152991
 20
-0.2000000000000707
 30
0.0
 11
15.21351290152991
 21
-0.1999999998429303
 31
0.0
  0
ENDBLK
  5
B4
330
B1
100
AcDbEntity
  8
0
100
AcDbBlockEnd
  0
BLOCK
  5
C4
330
C2
100
AcDbEntity
  8
0
100
AcDbBlockBegin
  2
Block_4
 70
     0
 10
0.0
 20
0.0
 30
0.0
  3
Block_4
  1

  0
LWPOLYLINE
  5
C6
330
C2
100
AcDbEntity
  8
ETCH
 62
     5
420
      255
370
   140
100
AcDbPolyline
 90
       12
 70
     1
 43
0.0
 10
5.323093198174597
 20
14.66850888219428
 10
5.323093198174597
 20
14.66850888219428
 10
5.323093198179927
 20
14.78764573813942
 10
5.357132299878533
 20
14.7876457381379
 10
5.35713229987319
 20
14.66850888219275
 10
5.35713229987319
 20
14.66850888219275
 10
5.357132299871661
 20
14.63446978049415
 10
5.357132299871661
 20
14.63446978049415
 10
5.357132299866318
 20
14.515332924549
 10
5.3230931981677
 20
14.51533292455053
 10
5.323093198173043
 20
14.63446978049566
 10
5.323093198173043
 20
14.63446978049566
  0
SPLINE
  5
C7
330
C2
100
AcDbEntity
  8
ETCH
 62
     5
420
      255
370
   158
100
AcDbSpline
210
0.0
220
0.0
230
1.0
 70
     9
 71
     3
 72
    11
 73
     7
 74
     0
 42
0.0000000001
 43
0.0000000001
 40
0.0
 40
0.0
 40
0.0
 40
0.0
 40
1.0
 40
1.0
 40
1.0
 40
2.0
 40
2.0
 40
2.0
 40
2.0
 10
5.087052758746431
 20
14.61536877667886
 30
0.0
 10
5.129289996341172
 20
14.29317668973414
 30
0.0
 10
5.629029277631667
 20
14.34453545641372
 30
0.0
 10
5.594451503801843
 20
14.68039032102581
 30
0.0
 10
5.560345613160658
 20
15.01166177129789
 30
0.0
 10
5.041790375604742
 20
14.96063713500359
 30
0.0
 10
5.087052758746431
 20
14.61536877667886
 30
0.0
  0
SPLINE
  5
C8
330
C2
100
AcDbEntity
  8
ETCH
 62
     5
420
      255
370
   158
100
AcDbSpline
210
0.0
220
0.0
230
1.0
 70
     9
 71
     3
 72
    23
 73
    19
 74
     0
 42
0.0000000001
 43
0.0000000001
 40
0.0
 40
0.0
 40
0.0
 40
0.0
 40
1.0
 40
1.0
 40
1.0
 40
2.0
 40
2.0
 40
2.0
 40
3.0
 40
3.0
 40
3.0
 40
4.0
 40
4.0
 40
4.0
 40
5.0
 40
5.0
 40
5.0
 40
6.0
 40
6.0
 40
6.0
 40
6.0
 10
5.052981402600216
 20
14.60688528670276
 30
0.0
 10
5.016677737856298
 20
14.87465808126123
 30
0.0
 10
5.320299702679865
 20
15.04098174327913
 30
0.0
 10
5.530372098474408
 20
14.87362341923123
 30
0.0
 10
5.530372098474408
 20
14.87362341923123
 30
0.0
 10
5.740250233138125
 20
15.0815216426415
 30
0.0
 10
5.740250233138125
 20
15.0815216426415
 30
0.0
 10
5.765510851792176
 20
15.09502997680012
 30
0.0
 10
5.806029130424462
 20
15.05478296984094
 30
0.0
 10
5.783128360961464
 20
15.02978868143025
 30
0.0
 10
5.783128360961464
 20
15.02978868143025
 30
0.0
 10
5.579278770823407
 20
14.82419001915761
 30
0.0
 10
5.579278770823407
 20
14.82419001915761
 30
0.0
 10
5.616766058850581
 20
14.74728098050026
 30
0.0
 10
5.639644323053895
 20
14.68819630302775
 30
0.0
 10
5.625626589758098
 20
14.60000223644803
 30
0.0
 10
5.575340967821451
 20
14.28362487389622
 30
0.0
 10
5.096290272156377
 20
14.28744268739414
 30
0.0
 10
5.052981402600216
 20
14.60688528670276
 30
0.0
  0
INSERT
  5
CA
330
C2
100
AcDbEntity
  8
ETCH
100
AcDbBlockReference
  2
Block_5
 10
0.0
 20
0.0
 30
0.0
  0
INSERT
  5
D3
330
C2
100
AcDbEntity
  8
ETCH
100
AcDbBlockReference
  2
Block_6
 10
0.0
 20
0.0
 30
0.0
  0
SPLINE
  5
DB
330
C2
100
AcDbEntity
  8
ETCH
 62
     5
420
      255
370
   106
100
AcDbSpline
210
0.0
220
0.0
230
1.0
 70
     9
 71
     3
 72
    17
 73
    13
 74
     0
 42
0.0000000001
 43
0.0000000001
 40
0.0
 40
0.0
 40
0.0
 40
0.0
 40
1.0
 40
1.0
 40
1.0
 40
2.0
 40
2.0
 40
2.0
 40
3.0
 40
3.0
 40
3.0
 40
4.0
 40
4.0
 40
4.0
 40
4.0
 10
5.450139763709696
 20
0.9060396382992369
 30
0.0
 10
5.450139763709696
 20
0.9060396382992369
 30
0.0
 10
5.41956320601706
 20
0.8963855449217135
 30
0.0
 10
5.41956320601706
 20
0.8963855449217135
 30
0.0
 10
5.393730678280221
 20
0.9455691089210631
 30
0.0
 10
5.343694842598185
 20
0.9456832263933341
 30
0.0
 10
5.317775382432588
 20
0.8963855449263114
 30
0.0
 10
5.317775382432588
 20
0.8963855449263114
 30
0.0
 10
5.286870884048324
 20
0.9110792732934037
 30
0.0
 10
5.286870884048324
 20
0.9110792732934037
 30
0.0
 10
5.308844761174403
 20
0.9905564000990681
 30
0.0
 10
5.436322092718492
 20
0.988423836036822
 30
0.0
 10
5.450139763709696
 20
0.9060396382992369
 30
0.0
  0
INSERT
  5
DD
330
C2
100
AcDbEntity
  8
ETCH
100
AcDbBlockReference
  2
Block_7
 10
0.0
 20
0.0
 30
0.0
  0
ENDBLK
  5
C5
330
C2
100
AcDbEntity
  8
0
100
AcDbBlockEnd
  0
BLOCK
  5
CB
330
C9
100
AcDbEntity
  8
0
100
AcDbBlockBegin
  2
Block_5
 70
     0
 10
0.0
 20
0.0
 30
0.0
  3
Block_5
  1

  0
SPLINE
  5
CD
330
C9
100
AcDbEntity
  8
ETCH
 62
     5
420
      255
370
   158
100
AcDbSpline
210
0.0
220
0.0
230
1.0
 70
     9
 71
     3
 72
    11
 73
     7
 74
     0
 42
0.0000000001
 43
0.0000000001
 40
0.0
 40
0.0
 40
0.0
 40
0.0
 40
1.0
 40
1.0
 40
1.0
 40
2.0
 40
2.0
 40
2.0
 40
2.0
 10
3.424579836420927
 20
14.61536877667886
 30
0.0
 10
3.46681707401568
 20
14.29317668973414
 30
0.0
 10
3.966556355306149
 20
14.34453545641372
 30
0.0
 10
3.931978581476338
 20
14.68039032102581
 30
0.0
 10
3.897872690835166
 20
15.01166177129789
 30
0.0
 10
3.379317453279238
 20
14.96063713500359
 30
0.0
 10
3.424579836420927
 20
14.61536877667886
 30
0.0
  0
SPLINE
  5
CE
330
C9
100
AcDbEntity
  8
ETCH
 62
     5
420
      255
370
   158
100
AcDbSpline
210
0.0
220
0.0
230
1.0
 70
     9
 71
     3
 72
    23
 73
    19
 74
     0
 42
0.0000000001
 43
0.0000000001
 40
0.0
 40
0.0
 40
0.0
 40
0.0
 40
1.0
 40
1.0
 40
1.0
 40
2.0
 40
2.0
 40
2.0
 40
3.0
 40
3.0
 40
3.0
 40
4.0
 40
4.0
 40
4.0
 40
5.0
 40
5.0
 40
5.0
 40
6.0
 40
6.0
 40
6.0
 40
6.0
 10
3.390508480274711
 20
14.60688528670276
 30
0.0
 10
3.354204815530806
 20
14.87465808126123
 30
0.0
 10
3.657826780354361
 20
15.04098174327913
 30
0.0
 10
3.867899176148903
 20
14.87362341923123
 30
0.0
 10
3.867899176148903
 20
14.87362341923123
 30
0.0
 10
4.077777310812621
 20
15.0815216426415
 30
0.0
 10
4.077777310812621
 20
15.0815216426415
 30
0.0
 10
4.103037929466672
 20
15.09502997680012
 30
0.0
 10
4.143556208098958
 20
15.05478296984094
 30
0.0
 10
4.120655438635948
 20
15.02978868143025
 30
0.0
 10
4.120655438635948
 20
15.02978868143025
 30
0.0
 10
3.916805848497902
 20
14.82419001915761
 30
0.0
 10
3.916805848497902
 20
14.82419001915761
 30
0.0
 10
3.954293136525077
 20
14.74728098050026
 30
0.0
 10
3.977171400728403
 20
14.68819630302775
 30
0.0
 10
3.963153667432581
 20
14.60000223644803
 30
0.0
 10
3.912868045495959
 20
14.28362487389622
 30
0.0
 10
3.433817349830873
 20
14.28744268739414
 30
0.0
 10
3.390508480274711
 20
14.60688528670276
 30
0.0
  0
SPLINE
  5
CF
330
C9
100
AcDbEntity
  8
ETCH
 62
     5
420
      255
370
    35
100
AcDbSpline
210
0.0
220
0.0
230
1.0
 70
    11
 71
     3
 72
    41
 73
    37
 74
     0
 42
0.0000000001
 43
0.0000000001
 40
0.0
 40
0.0
 40
0.0
 40
0.0
 40
1.0
 40
1.0
 40
1.0
 40
2.0
 40
2.0
 40
2.0
 40
3.0
 40
3.0
 40
3.0
 40
4.0
 40
4.0
 40
4.0
 40
5.0
 40
5.0
 40
5.0
 40
6.0
 40
6.0
 40
6.0
 40
7.0
 40
7.0
 40
7.0
 40
8.0
 40
8.0
 40
8.0
 40
9.0
 40
9.0
 40
9.0
 40
10.0
 40
10.0
 40
10.0
 40
11.0
 40
11.0
 40
11.0
 40
12.0
 40
12.0
 40
12.0
 40
12.0
 10
3.54148341990396
 20
14.66850888219956
 30
0.0
 10
3.54148341990396
 20
14.66850888219956
 30
0.0
 10
3.541483419902444
 20
14.63446978050094
 30
0.0
 10
3.541483419902444
 20
14.63446978050094
 30
0.0
 10
3.541483419902444
 20
14.63446978050094
 30
0.0
 10
3.660620275847552
 20
14.63446978049566
 30
0.0
 10
3.660620275847552
 20
14.63446978049566
 30
0.0
 10
3.660620275847552
 20
14.63446978049566
 30
0.0
 10
3.660620275842208
 20
14.51533292455053
 30
0.0
 10
3.660620275842208
 20
14.51533292455053
 30
0.0
 10
3.660620275842208
 20
14.51533292455053
 30
0.0
 10
3.694659377540814
 20
14.515332924549
 30
0.0
 10
3.694659377540814
 20
14.515332924549
 30
0.0
 10
3.694659377540814
 20
14.515332924549
 30
0.0
 10
3.694659377546157
 20
14.63446978049415
 30
0.0
 10
3.694659377546157
 20
14.63446978049415
 30
0.0
 10
3.694659377546157
 20
14.63446978049415
 30
0.0
 10
3.813796233491277
 20
14.63446978048873
 30
0.0
 10
3.813796233491277
 20
14.63446978048873
 30
0.0
 10
3.813796233491277
 20
14.63446978048873
 30
0.0
 10
3.813796233492805
 20
14.66850888218734
 30
0.0
 10
3.813796233492805
 20
14.66850888218734
 30
0.0
 10
3.813796233492805
 20
14.66850888218734
 30
0.0
 10
3.694659377547686
 20
14.66850888219275
 30
0.0
 10
3.694659377547686
 20
14.66850888219275
 30
0.0
 10
3.694659377547686
 20
14.66850888219275
 30
0.0
 10
3.694659377553041
 20
14.7876457381379
 30
0.0
 10
3.694659377553041
 20
14.7876457381379
 30
0.0
 10
3.694659377553041
 20
14.7876457381379
 30
0.0
 10
3.660620275854423
 20
14.78764573813942
 30
0.0
 10
3.660620275854423
 20
14.78764573813942
 30
0.0
 10
3.660620275854423
 20
14.78764573813942
 30
0.0
 10
3.66062027584908
 20
14.66850888219428
 30
0.0
 10
3.66062027584908
 20
14.66850888219428
 30
0.0
 10
3.66062027584908
 20
14.66850888219428
 30
0.0
 10
3.54148341990396
 20
14.66850888219956
 30
0.0
 10
3.54148341990396
 20
14.66850888219956
 30
0.0
  0
SPLINE
  5
D0
330
C9
100
AcDbEntity
  8
ETCH
 62
     5
420
      255
370
    35
100
AcDbSpline
210
0.0
220
0.0
230
1.0
 70
     9
 71
     3
 72
    11
 73
     7
 74
     0
 42
0.0000000001
 43
0.0000000001
 40
0.0
 40
0.0
 40
0.0
 40
0.0
 40
1.0
 40
1.0
 40
1.0
 40
2.0
 40
2.0
 40
2.0
 40
2.0
 10
3.424579836420927
 20
14.61536877667886
 30
0.0
 10
3.379317453279238
 20
14.96063713500359
 30
0.0
 10
3.897872690835166
 20
15.01166177129789
 30
0.0
 10
3.931978581476338
 20
14.68039032102581
 30
0.0
 10
3.966556355306149
 20
14.34453545641372
 30
0.0
 10
3.46681707401568
 20
14.29317668973414
 30
0.0
 10
3.424579836420927
 20
14.61536877667886
 30
0.0
  0
LWPOLYLINE
  5
D1
330
C9
100
AcDbEntity
  8
ETCH
 62
     5
420
      255
370
   140
100
AcDbPolyline
 90
       12
 70
     1
 43
0.0
 10
3.54148341990396
 20
14.66850888219956
 10
3.66062027584908
 20
14.66850888219428
 10
3.660620275854423
 20
14.78764573813942
 10
3.694659377553041
 20
14.7876457381379
 10
3.694659377547686
 20
14.66850888219275
 10
3.813796233492805
 20
14.66850888218734
 10
3.813796233491277
 20
14.63446978048873
 10
3.694659377546157
 20
14.63446978049415
 10
3.694659377540814
 20
14.515332924549
 10
3.660620275842208
 20
14.51533292455053
 10
3.660620275847552
 20
14.63446978049566
 10
3.541483419902444
 20
14.63446978050094
  0
ENDBLK
  5
CC
330
C9
100
AcDbEntity
  8
0
100
AcDbBlockEnd
  0
BLOCK
  5
D4
330
D2
100
AcDbEntity
  8
0
100
AcDbBlockBegin
  2
Block_6
 70
     0
 10
0.0
 20
0.0
 30
0.0
  3
Block_6
  1

  0
SPLINE
  5
D6
330
D2
100
AcDbEntity
  8
ETCH
 62
     5
420
      255
370
   106
100
AcDbSpline
210
0.0
220
0.0
230
1.0
 70
    11
 71
     3
 72
    23
 73
    19
 74
     0
 42
0.0000000001
 43
0.0000000001
 40
0.0
 40
0.0
 40
0.0
 40
0.0
 40
1.0
 40
1.0
 40
1.0
 40
2.0
 40
2.0
 40
2.0
 40
3.0
 40
3.0
 40
3.0
 40
4.0
 40
4.0
 40
4.0
 40
5.0
 40
5.0
 40
5.0
 40
6.0
 40
6.0
 40
6.0
 40
6.0
 10
5.241949804616461
 20
0.4995116119452329
 30
0.0
 10
5.241949804616461
 20
0.4995116119452329
 30
0.0
 10
5.241949804610574
 20
0.3682664262978758
 30
0.0
 10
5.241949804610574
 20
0.3682664262978758
 30
0.0
 10
5.247649181901061
 20
0.3592962823330859
 30
0.0
 10
5.254444662795902
 20
0.3565504131577705
 30
0.0
 10
5.264583443189735
 20
0.3546944959021705
 30
0.0
 10
5.297239337166463
 20
0.3487167910131524
 30
0.0
 10
5.428368032678855
 20
0.3500263647989767
 30
0.0
 10
5.464169753902258
 20
0.3542284991113623
 30
0.0
 10
5.477347658112837
 20
0.3557752214910326
 30
0.0
 10
5.487444076582037
 20
0.3553509883896721
 30
0.0
 10
5.495388783791654
 20
0.3682664262864566
 30
0.0
 10
5.495388783791654
 20
0.3682664262864566
 30
0.0
 10
5.495388783797541
 20
0.4995116119338137
 30
0.0
 10
5.495388783797541
 20
0.4995116119338137
 30
0.0
 10
5.495388783797541
 20
0.4995116119338137
 30
0.0
 10
5.241949804616461
 20
0.4995116119452329
 30
0.0
 10
5.241949804616461
 20
0.4995116119452329
 30
0.0
  0
SPLINE
  5
D7
330
D2
100
AcDbEntity
  8
ETCH
 62
     5
420
      255
370
   106
100
AcDbSpline
210
0.0
220
0.0
230
1.0
 70
     9
 71
     3
 72
    23
 73
    19
 74
     0
 42
0.0000000001
 43
0.0000000001
 40
0.0
 40
0.0
 40
0.0
 40
0.0
 40
1.0
 40
1.0
 40
1.0
 40
2.0
 40
2.0
 40
2.0
 40
3.0
 40
3.0
 40
3.0
 40
4.0
 40
4.0
 40
4.0
 40
5.0
 40
5.0
 40
5.0
 40
6.0
 40
6.0
 40
6.0
 40
6.0
 10
4.988510825447557
 20
0.7710533753648986
 30
0.0
 10
4.98439268659077
 20
0.7535167329722805
 30
0.0
 10
4.994905652517988
 20
0.7536313147625404
 30
0.0
 10
5.003754657782906
 20
0.7455638405739743
 30
0.0
 10
5.077884854488943
 20
0.6779807133621791
 30
0.0
 10
5.152337490746061
 20
0.6106129902474448
 30
0.0
 10
5.224013186327296
 20
0.540409042393018
 30
0.0
 10
5.224013186327296
 20
0.540409042393018
 30
0.0
 10
5.518510692650238
 20
0.5442751439351873
 30
0.0
 10
5.518510692650238
 20
0.5442751439351873
 30
0.0
 10
5.587682832000419
 20
0.6139530774459116
 30
0.0
 10
5.661058533832689
 20
0.6794424942888782
 30
0.0
 10
5.733583930653177
 20
0.7455638405412325
 30
0.0
 10
5.742432765725614
 20
0.7536313163966497
 30
0.0
 10
5.75294596817663
 20
0.7535166504194674
 30
0.0
 10
5.748827762990824
 20
0.771053375330742
 30
0.0
 10
5.748827762990824
 20
0.771053375330742
 30
0.0
 10
4.988510825447557
 20
0.7710533753648986
 30
0.0
 10
4.988510825447557
 20
0.7710533753648986
 30
0.0
  0
SPLINE
  5
D8
330
D2
100
AcDbEntity
  8
ETCH
 62
     5
420
      255
370
   106
100
AcDbSpline
210
0.0
220
0.0
230
1.0
 70
     9
 71
     3
 72
    32
 73
    28
 74
     0
 42
0.0000000001
 43
0.0000000001
 40
0.0
 40
0.0
 40
0.0
 40
0.0
 40
1.0
 40
1.0
 40
1.0
 40
2.0
 40
2.0
 40
2.0
 40
3.0
 40
3.0
 40
3.0
 40
4.0
 40
4.0
 40
4.0
 40
5.0
 40
5.0
 40
5.0
 40
6.0
 40
6.0
 40
6.0
 40
7.0
 40
7.0
 40
7.0
 40
8.0
 40
8.0
 40
8.0
 40
9.0
 40
9.0
 40
9.0
 40
9.0
 10
4.963571650859736
 20
0.7960455219639345
 30
0.0
 10
4.973666060387245
 20
0.8061247510033808
 30
0.0
 10
4.996657082208419
 20
0.8064296394221502
 30
0.0
 10
5.010752314876652
 20
0.8076275471475279
 30
0.0
 10
5.242150632118018
 20
0.8272933333310245
 30
0.0
 10
5.501004947582069
 20
0.7921989988873418
 30
0.0
 10
5.735404030043897
 20
0.8072602529049264
 30
0.0
 10
5.766145614808124
 20
0.8080857326779096
 30
0.0
 10
5.788907142942447
 20
0.7902481640363324
 30
0.0
 10
5.785160946815532
 20
0.757769591549959
 30
0.0
 10
5.781278439860153
 20
0.724109238672933
 30
0.0
 10
5.57364453024685
 20
0.5549907768368282
 30
0.0
 10
5.536163044440589
 20
0.5175714000281965
 30
0.0
 10
5.51437392023259
 20
0.4505089625235238
 30
0.0
 10
5.571501996145053
 20
0.3298250322788034
 30
0.0
 10
5.472928992024271
 20
0.3183150800737419
 30
0.0
 10
5.435832410094954
 20
0.3139834693169329
 30
0.0
 10
5.252416114060085
 20
0.3138691293109383
 30
0.0
 10
5.229306088991771
 20
0.328468534330644
 30
0.0
 10
5.183389766998225
 20
0.3574754687592
 30
0.0
 10
5.218933503571443
 20
0.4700173109154346
 30
0.0
 10
5.20117554397503
 20
0.5175714000432537
 30
0.0
 10
5.20117554397503
 20
0.5175714000432537
 30
0.0
 10
4.960790966297495
 20
0.7389204693324195
 30
0.0
 10
4.960790966297495
 20
0.7389204693324195
 30
0.0
 10
4.947262429473249
 20
0.7522514406442344
 30
0.0
 10
4.951623622299128
 20
0.7841154614582643
 30
0.0
 10
4.963571650859736
 20
0.7960455219639345
 30
0.0
  0
SPLINE
  5
D9
330
D2
100
AcDbEntity
  8
ETCH
 62
     5
420
      255
370
   106
100
AcDbSpline
210
0.0
220
0.0
230
1.0
 70
     9
 71
     3
 72
    23
 73
    19
 74
     0
 42
0.0000000001
 43
0.0000000001
 40
0.0
 40
0.0
 40
0.0
 40
0.0
 40
1.0
 40
1.0
 40
1.0
 40
2.0
 40
2.0
 40
2.0
 40
3.0
 40
3.0
 40
3.0
 40
4.0
 40
4.0
 40
4.0
 40
5.0
 40
5.0
 40
5.0
 40
6.0
 40
6.0
 40
6.0
 40
6.0
 10
4.988510825447557
 20
0.7710533753648986
 30
0.0
 10
4.988510825447557
 20
0.7710533753648986
 30
0.0
 10
5.748827762990824
 20
0.771053375330742
 30
0.0
 10
5.748827762990824
 20
0.771053375330742
 30
0.0
 10
5.75294596817663
 20
0.7535166504194674
 30
0.0
 10
5.742432765725614
 20
0.7536313163966497
 30
0.0
 10
5.733583930653177
 20
0.7455638405412325
 30
0.0
 10
5.661058533832689
 20
0.6794424942888782
 30
0.0
 10
5.587682832000419
 20
0.6139530774459116
 30
0.0
 10
5.518510692650238
 20
0.5442751439351873
 30
0.0
 10
5.518510692650238
 20
0.5442751439351873
 30
0.0
 10
5.224013186327296
 20
0.540409042393018
 30
0.0
 10
5.224013186327296
 20
0.540409042393018
 30
0.0
 10
5.152337490746061
 20
0.6106129902474448
 30
0.0
 10
5.077884854488943
 20
0.6779807133621791
 30
0.0
 10
5.003754657782906
 20
0.7455638405739743
 30
0.0
 10
4.994905652517988
 20
0.7536313147625404
 30
0.0
 10
4.98439268659077
 20
0.7535167329722805
 30
0.0
 10
4.988510825447557
 20
0.7710533753648986
 30
0.0
  0
SPLINE
  5
DA
330
D2
100
AcDbEntity
  8
ETCH
 62
     5
420
      255
370
   106
100
AcDbSpline
210
0.0
220
0.0
230
1.0
 70
    11
 71
     3
 72
    23
 73
    19
 74
     0
 42
0.0000000001
 43
0.0000000001
 40
0.0
 40
0.0
 40
0.0
 40
0.0
 40
1.0
 40
1.0
 40
1.0
 40
2.0
 40
2.0
 40
2.0
 40
3.0
 40
3.0
 40
3.0
 40
4.0
 40
4.0
 40
4.0
 40
5.0
 40
5.0
 40
5.0
 40
6.0
 40
6.0
 40
6.0
 40
6.0
 10
5.241949804616461
 20
0.4995116119452329
 30
0.0
 10
5.241949804616461
 20
0.4995116119452329
 30
0.0
 10
5.495388783797541
 20
0.4995116119338137
 30
0.0
 10
5.495388783797541
 20
0.4995116119338137
 30
0.0
 10
5.495388783797541
 20
0.4995116119338137
 30
0.0
 10
5.495388783791654
 20
0.3682664262864566
 30
0.0
 10
5.495388783791654
 20
0.3682664262864566
 30
0.0
 10
5.487444076582037
 20
0.3553509883896721
 30
0.0
 10
5.477347658112837
 20
0.3557752214910326
 30
0.0
 10
5.464169753902258
 20
0.3542284991113623
 30
0.0
 10
5.428368032678855
 20
0.3500263647989767
 30
0.0
 10
5.297239337166463
 20
0.3487167910131524
 30
0.0
 10
5.264583443189735
 20
0.3546944959021705
 30
0.0
 10
5.254444662795902
 20
0.3565504131577705
 30
0.0
 10
5.247649181901061
 20
0.3592962823330859
 30
0.0
 10
5.241949804610574
 20
0.3682664262978758
 30
0.0
 10
5.241949804610574
 20
0.3682664262978758
 30
0.0
 10
5.241949804616461
 20
0.4995116119452329
 30
0.0
 10
5.241949804616461
 20
0.4995116119452329
 30
0.0
  0
ENDBLK
  5
D5
330
D2
100
AcDbEntity
  8
0
100
AcDbBlockEnd
  0
BLOCK
  5
DE
330
DC
100
AcDbEntity
  8
0
100
AcDbBlockBegin
  2
Block_7
 70
     0
 10
0.0
 20
0.0
 30
0.0
  3
Block_7
  1

  0
INSERT
  5
E1
330
DC
100
AcDbEntity
  8
ETCH
100
AcDbBlockReference
  2
Block_8
 10
0.0
 20
0.0
 30
0.0
  0
INSERT
  5
E8
330
DC
100
AcDbEntity
  8
ETCH
100
AcDbBlockReference
  2
Block_9
 10
0.0
 20
0.0
 30
0.0
  0
ENDBLK
  5
DF
330
DC
100
AcDbEntity
  8
0
100
AcDbBlockEnd
  0
BLOCK
  5
E2
330
E0
100
AcDbEntity
  8
0
100
AcDbBlockBegin
  2
Block_8
 70
     0
 10
0.0
 20
0.0
 30
0.0
  3
Block_8
  1

  0
SPLINE
  5
E4
330
E0
100
AcDbEntity
  8
ETCH
 62
     5
420
      255
370
   106
100
AcDbSpline
210
0.0
220
0.0
230
1.0
 70
     9
 71
     3
 72
    26
 73
    22
 74
     0
 42
0.0000000001
 43
0.0000000001
 40
0.0
 40
0.0
 40
0.0
 40
0.0
 40
1.0
 40
1.0
 40
1.0
 40
2.0
 40
2.0
 40
2.0
 40
3.0
 40
3.0
 40
3.0
 40
4.0
 40
4.0
 40
4.0
 40
5.0
 40
5.0
 40
5.0
 40
6.0
 40
6.0
 40
6.0
 40
7.0
 40
7.0
 40
7.0
 40
7.0
 10
3.406400677644278
 20
1.04739307954474
 30
0.0
 10
3.405880287961167
 20
1.057791551330157
 30
0.0
 10
3.461562140288353
 20
1.114182588084784
 30
0.0
 10
3.473850431875967
 20
1.124600272740129
 30
0.0
 10
3.586992183902616
 20
1.220518821348933
 30
0.0
 10
3.743561897688298
 20
1.222821749078674
 30
0.0
 10
3.858855758835134
 20
1.129019257390963
 30
0.0
 10
3.877908513565216
 20
1.113518034260626
 30
0.0
 10
3.973622084380394
 20
1.011816095262575
 30
0.0
 10
3.900485287475476
 20
1.034815914204146
 30
0.0
 10
3.894667165772994
 20
1.036645577949356
 30
0.0
 10
3.863622783476633
 20
1.080609914826962
 30
0.0
 10
3.849781399370259
 20
1.092790738189554
 30
0.0
 10
3.74781970762241
 20
1.18252001290562
 30
0.0
 10
3.589562581047907
 20
1.182577370663188
 30
0.0
 10
3.48755718909615
 20
1.092790738205823
 30
0.0
 10
3.47372040669941
 20
1.080611400705366
 30
0.0
 10
3.442668052055182
 20
1.03664451798401
 30
0.0
 10
3.436853300985704
 20
1.034815914224964
 30
0.0
 10
3.425097004445786
 20
1.031118832821347
 30
0.0
 10
3.406811610500918
 20
1.039181783559241
 30
0.0
 10
3.406400677644278
 20
1.04739307954474
 30
0.0
  0
SPLINE
  5
E5
330
E0
100
AcDbEntity
  8
ETCH
 62
     5
420
      255
370
   106
100
AcDbSpline
210
0.0
220
0.0
230
1.0
 70
     9
 71
     3
 72
    20
 73
    16
 74
     0
 42
0.0000000001
 43
0.0000000001
 40
0.0
 40
0.0
 40
0.0
 40
0.0
 40
1.0
 40
1.0
 40
1.0
 40
2.0
 40
2.0
 40
2.0
 40
3.0
 40
3.0
 40
3.0
 40
4.0
 40
4.0
 40
4.0
 40
5.0
 40
5.0
 40
5.0
 40
5.0
 10
3.527063414682806
 20
1.030657870970571
 30
0.0
 10
3.619071956697451
 20
1.122440249919034
 30
0.0
 10
3.78325298690533
 20
1.100747153492041
 30
0.0
 10
3.840634245808283
 20
0.9842563785126305
 30
0.0
 10
3.806627809431221
 20
0.9456339765665182
 30
0.0
 10
3.794098377927108
 20
1.004273373762872
 30
0.0
 10
3.756532933842537
 20
1.026691943120062
 30
0.0
 10
3.699863337241165
 20
1.060511622690228
 30
0.0
 10
3.637929084559143
 20
1.060760122648288
 30
0.0
 10
3.580805654617936
 20
1.026691943127944
 30
0.0
 10
3.555469388617186
 20
1.011581497915257
 30
0.0
 10
3.530559861175914
 20
0.9628539394197508
 30
0.0
 10
3.510370324366426
 20
0.9706055266711802
 30
0.0
 10
3.48201797100248
 20
0.9814911523770762
 30
0.0
 10
3.514659923658516
 20
1.018284868545505
 30
0.0
 10
3.527063414682806
 20
1.030657870970571
 30
0.0
  0
SPLINE
  5
E6
330
E0
100
AcDbEntity
  8
ETCH
 62
     5
420
      255
370
   106
100
AcDbSpline
210
0.0
220
0.0
230
1.0
 70
     9
 71
     3
 72
    17
 73
    13
 74
     0
 42
0.0000000001
 43
0.0000000001
 40
0.0
 40
0.0
 40
0.0
 40
0.0
 40
1.0
 40
1.0
 40
1.0
 40
2.0
 40
2.0
 40
2.0
 40
3.0
 40
3.0
 40
3.0
 40
4.0
 40
4.0
 40
4.0
 40
4.0
 10
3.750139763709714
 20
0.9163006035228136
 30
0.0
 10
3.750139763709714
 20
0.9163006035228136
 30
0.0
 10
3.719563206017078
 20
0.9066465101452902
 30
0.0
 10
3.719563206017078
 20
0.9066465101452902
 30
0.0
 10
3.693730678280239
 20
0.9558300741446398
 30
0.0
 10
3.643694842598203
 20
0.9559441916169109
 30
0.0
 10
3.617775382432606
 20
0.9066465101498881
 30
0.0
 10
3.617775382432606
 20
0.9066465101498881
 30
0.0
 10
3.586870884048342
 20
0.9213402385169803
 30
0.0
 10
3.586870884048342
 20
0.9213402385169803
 30
0.0
 10
3.60884476117442
 20
1.000817365322644
 30
0.0
 10
3.736322092718511
 20
0.9986848012603989
 30
0.0
 10
3.750139763709714
 20
0.9163006035228136
 30
0.0
  0
ENDBLK
  5
E3
330
E0
100
AcDbEntity
  8
0
100
AcDbBlockEnd
  0
BLOCK
  5
E9
330
E7
100
AcDbEntity
  8
0
100
AcDbBlockBegin
  2
Block_9
 70
     0
 10
0.0
 20
0.0
 30
0.0
  3
Block_9
  1

  0
SPLINE
  5
EB
330
E7
100
AcDbEntity
  8
ETCH
 62
     5
420
      255
370
   106
100
AcDbSpline
210
0.0
220
0.0
230
1.0
 70
    11
 71
     3
 72
    23
 73
    19
 74
     0
 42
0.0000000001
 43
0.0000000001
 40
0.0
 40
0.0
 40
0.0
 40
0.0
 40
1.0
 40
1.0
 40
1.0
 40
2.0
 40
2.0
 40
2.0
 40
3.0
 40
3.0
 40
3.0
 40
4.0
 40
4.0
 40
4.0
 40
5.0
 40
5.0
 40
5.0
 40
6.0
 40
6.0
 40
6.0
 40
6.0
 10
3.541949804616479
 20
0.5097725771688097
 30
0.0
 10
3.541949804616479
 20
0.5097725771688097
 30
0.0
 10
3.541949804610592
 20
0.3785273915214526
 30
0.0
 10
3.541949804610592
 20
0.3785273915214526
 30
0.0
 10
3.547649181901078
 20
0.3695572475566627
 30
0.0
 10
3.554444662795908
 20
0.3668113783813472
 30
0.0
 10
3.564583443189765
 20
0.3649554611257473
 30
0.0
 10
3.597239337166481
 20
0.3589777562367292
 30
0.0
 10
3.728368032678872
 20
0.3602873300225534
 30
0.0
 10
3.764169753902276
 20
0.364489464334939
 30
0.0
 10
3.777347658112855
 20
0.3660361867146094
 30
0.0
 10
3.787444076582055
 20
0.3656119536132488
 30
0.0
 10
3.795388783791672
 20
0.3785273915100333
 30
0.0
 10
3.795388783791672
 20
0.3785273915100333
 30
0.0
 10
3.795388783797559
 20
0.5097725771573904
 30
0.0
 10
3.795388783797559
 20
0.5097725771573904
 30
0.0
 10
3.795388783797559
 20
0.5097725771573904
 30
0.0
 10
3.541949804616479
 20
0.5097725771688097
 30
0.0
 10
3.541949804616479
 20
0.5097725771688097
 30
0.0
  0
SPLINE
  5
EC
330
E7
100
AcDbEntity
  8
ETCH
 62
     5
420
      255
370
   106
100
AcDbSpline
210
0.0
220
0.0
230
1.0
 70
     9
 71
     3
 72
    23
 73
    19
 74
     0
 42
0.0000000001
 43
0.0000000001
 40
0.0
 40
0.0
 40
0.0
 40
0.0
 40
1.0
 40
1.0
 40
1.0
 40
2.0
 40
2.0
 40
2.0
 40
3.0
 40
3.0
 40
3.0
 40
4.0
 40
4.0
 40
4.0
 40
5.0
 40
5.0
 40
5.0
 40
6.0
 40
6.0
 40
6.0
 40
6.0
 10
3.288510825447575
 20
0.7813143405884754
 30
0.0
 10
3.284392686590788
 20
0.7637776981958571
 30
0.0
 10
3.294905652518006
 20
0.7638922799861171
 30
0.0
 10
3.303754657782923
 20
0.7558248057975511
 30
0.0
 10
3.377884854488961
 20
0.688241678585756
 30
0.0
 10
3.452337490746079
 20
0.6208739554710215
 30
0.0
 10
3.524013186327313
 20
0.5506700076165948
 30
0.0
 10
3.524013186327313
 20
0.5506700076165948
 30
0.0
 10
3.818510692650256
 20
0.554536109158764
 30
0.0
 10
3.818510692650256
 20
0.554536109158764
 30
0.0
 10
3.887682832000437
 20
0.6242140426694883
 30
0.0
 10
3.961058533832707
 20
0.6897034595124549
 30
0.0
 10
4.033583930653182
 20
0.7558248057648093
 30
0.0
 10
4.042432765725632
 20
0.7638922816202264
 30
0.0
 10
4.052945968176648
 20
0.7637776156430442
 30
0.0
 10
4.048827762990842
 20
0.7813143405543189
 30
0.0
 10
4.048827762990842
 20
0.7813143405543189
 30
0.0
 10
3.288510825447575
 20
0.7813143405884754
 30
0.0
 10
3.288510825447575
 20
0.7813143405884754
 30
0.0
  0
SPLINE
  5
ED
330
E7
100
AcDbEntity
  8
ETCH
 62
     5
420
      255
370
   106
100
AcDbSpline
210
0.0
220
0.0
230
1.0
 70
     9
 71
     3
 72
    32
 73
    28
 74
     0
 42
0.0000000001
 43
0.0000000001
 40
0.0
 40
0.0
 40
0.0
 40
0.0
 40
1.0
 40
1.0
 40
1.0
 40
2.0
 40
2.0
 40
2.0
 40
3.0
 40
3.0
 40
3.0
 40
4.0
 40
4.0
 40
4.0
 40
5.0
 40
5.0
 40
5.0
 40
6.0
 40
6.0
 40
6.0
 40
7.0
 40
7.0
 40
7.0
 40
8.0
 40
8.0
 40
8.0
 40
9.0
 40
9.0
 40
9.0
 40
9.0
 10
3.263571650859754
 20
0.8063064871875111
 30
0.0
 10
3.273666060387262
 20
0.8163857162269575
 30
0.0
 10
3.296657082208437
 20
0.8166906046457269
 30
0.0
 10
3.310752314876657
 20
0.8178885123711046
 30
0.0
 10
3.542150632118035
 20
0.8375542985546012
 30
0.0
 10
3.801004947582087
 20
0.8024599641109185
 30
0.0
 10
4.035404030043915
 20
0.8175212181285031
 30
0.0
 10
4.066145614808116
 20
0.8183466979014863
 30
0.0
 10
4.088907142942464
 20
0.8005091292599091
 30
0.0
 10
4.08516094681555
 20
0.7680305567735357
 30
0.0
 10
4.08127843986017
 20
0.7343702038965098
 30
0.0
 10
3.873644530246868
 20
0.565251742060405
 30
0.0
 10
3.836163044440606
 20
0.5278323652517731
 30
0.0
 10
3.814373920232608
 20
0.4607699277471006
 30
0.0
 10
3.871501996145057
 20
0.3400859975023801
 30
0.0
 10
3.772928992024288
 20
0.3285760452973187
 30
0.0
 10
3.73583241009496
 20
0.3242444345405096
 30
0.0
 10
3.552416114060103
 20
0.324130094534515
 30
0.0
 10
3.529306088991789
 20
0.3387294995542207
 30
0.0
 10
3.483389766998243
 20
0.3677364339827767
 30
0.0
 10
3.518933503571461
 20
0.4802782761390114
 30
0.0
 10
3.501175543975048
 20
0.5278323652668304
 30
0.0
 10
3.501175543975048
 20
0.5278323652668304
 30
0.0
 10
3.260790966297513
 20
0.7491814345559962
 30
0.0
 10
3.260790966297513
 20
0.7491814345559962
 30
0.0
 10
3.247262429473279
 20
0.7625124058678113
 30
0.0
 10
3.251623622299145
 20
0.7943764266818409
 30
0.0
 10
3.263571650859754
 20
0.8063064871875111
 30
0.0
  0
SPLINE
  5
EE
330
E7
100
AcDbEntity
  8
ETCH
 62
     5
420
      255
370
   106
100
AcDbSpline
210
0.0
220
0.0
230
1.0
 70
     9
 71
     3
 72
    23
 73
    19
 74
     0
 42
0.0000000001
 43
0.0000000001
 40
0.0
 40
0.0
 40
0.0
 40
0.0
 40
1.0
 40
1.0
 40
1.0
 40
2.0
 40
2.0
 40
2.0
 40
3.0
 40
3.0
 40
3.0
 40
4.0
 40
4.0
 40
4.0
 40
5.0
 40
5.0
 40
5.0
 40
6.0
 40
6.0
 40
6.0
 40
6.0
 10
3.288510825447575
 20
0.7813143405884754
 30
0.0
 10
3.288510825447575
 20
0.7813143405884754
 30
0.0
 10
4.048827762990842
 20
0.7813143405543189
 30
0.0
 10
4.048827762990842
 20
0.7813143405543189
 30
0.0
 10
4.052945968176648
 20
0.7637776156430442
 30
0.0
 10
4.042432765725632
 20
0.7638922816202264
 30
0.0
 10
4.033583930653182
 20
0.7558248057648093
 30
0.0
 10
3.961058533832707
 20
0.6897034595124549
 30
0.0
 10
3.887682832000437
 20
0.6242140426694883
 30
0.0
 10
3.818510692650256
 20
0.554536109158764
 30
0.0
 10
3.818510692650256
 20
0.554536109158764
 30
0.0
 10
3.524013186327313
 20
0.5506700076165948
 30
0.0
 10
3.524013186327313
 20
0.5506700076165948
 30
0.0
 10
3.452337490746079
 20
0.6208739554710215
 30
0.0
 10
3.377884854488961
 20
0.688241678585756
 30
0.0
 10
3.303754657782923
 20
0.7558248057975511
 30
0.0
 10
3.294905652518006
 20
0.7638922799861171
 30
0.0
 10
3.284392686590788
 20
0.7637776981958571
 30
0.0
 10
3.288510825447575
 20
0.7813143405884754
 30
0.0
  0
SPLINE
  5
EF
330
E7
100
AcDbEntity
  8
ETCH
 62
     5
420
      255
370
   106
100
AcDbSpline
210
0.0
220
0.0
230
1.0
 70
    11
 71
     3
 72
    23
 73
    19
 74
     0
 42
0.0000000001
 43
0.0000000001
 40
0.0
 40
0.0
 40
0.0
 40
0.0
 40
1.0
 40
1.0
 40
1.0
 40
2.0
 40
2.0
 40
2.0
 40
3.0
 40
3.0
 40
3.0
 40
4.0
 40
4.0
 40
4.0
 40
5.0
 40
5.0
 40
5.0
 40
6.0
 40
6.0
 40
6.0
 40
6.0
 10
3.541949804616479
 20
0.5097725771688097
 30
0.0
 10
3.541949804616479
 20
0.5097725771688097
 30
0.0
 10
3.795388783797559
 20
0.5097725771573904
 30
0.0
 10
3.795388783797559
 20
0.5097725771573904
 30
0.0
 10
3.795388783797559
 20
0.5097725771573904
 30
0.0
 10
3.795388783791672
 20
0.3785273915100333
 30
0.0
 10
3.795388783791672
 20
0.3785273915100333
 30
0.0
 10
3.787444076582055
 20
0.3656119536132488
 30
0.0
 10
3.777347658112855
 20
0.3660361867146094
 30
0.0
 10
3.764169753902276
 20
0.364489464334939
 30
0.0
 10
3.728368032678872
 20
0.3602873300225534
 30
0.0
 10
3.597239337166481
 20
0.3589777562367292
 30
0.0
 10
3.564583443189765
 20
0.3649554611257473
 30
0.0
 10
3.554444662795908
 20
0.3668113783813472
 30
0.0
 10
3.547649181901078
 20
0.3695572475566627
 30
0.0
 10
3.541949804610592
 20
0.3785273915214526
 30
0.0
 10
3.541949804610592
 20
0.3785273915214526
 30
0.0
 10
3.541949804616479
 20
0.5097725771688097
 30
0.0
 10
3.541949804616479
 20
0.5097725771688097
 30
0.0
  0
ENDBLK
  5
EA
330
E7
100
AcDbEntity
  8
0
100
AcDbBlockEnd
  0
BLOCK
  5
F2
330
F0
100
AcDbEntity
  8
0
100
AcDbBlockBegin
  2
Block_10
 70
     0
 10
0.0
 20
0.0
 30
0.0
  3
Block_10
  1

  0
LWPOLYLINE
  5
F4
330
F0
100
AcDbEntity
  8
ETCH
 62
     5
420
      255
370
   140
100
AcDbPolyline
 90
       12
 70
     1
 43
0.0
 10
9.548886402154392
 20
14.59950888219426
 10
9.548886402154392
 20
14.59950888219426
 10
9.548886402159723
 20
14.71864573813939
 10
9.582925503858328
 20
14.71864573813788
 10
9.582925503852985
 20
14.59950888219273
 10
9.582925503852985
 20
14.59950888219273
 10
9.582925503851457
 20
14.56546978049412
 10
9.582925503851457
 20
14.56546978049412
 10
9.582925503846114
 20
14.44633292454898
 10
9.548886402147495
 20
14.44633292455051
 10
9.548886402152838
 20
14.56546978049564
 10
9.548886402152838
 20
14.56546978049564
  0
SPLINE
  5
F5
330
F0
100
AcDbEntity
  8
ETCH
 62
     5
420
      255
370
   158
100
AcDbSpline
210
0.0
220
0.0
230
1.0
 70
     9
 71
     3
 72
    11
 73
     7
 74
     0
 42
0.0000000001
 43
0.0000000001
 40
0.0
 40
0.0
 40
0.0
 40
0.0
 40
1.0
 40
1.0
 40
1.0
 40
2.0
 40
2.0
 40
2.0
 40
2.0
 10
9.312845962726227
 20
14.54636877667884
 30
0.0
 10
9.355083200320967
 20
14.22417668973412
 30
0.0
 10
9.854822481611462
 20
14.2755354564137
 30
0.0
 10
9.820244707781638
 20
14.61139032102579
 30
0.0
 10
9.786138817140454
 20
14.94266177129787
 30
0.0
 10
9.267583579584538
 20
14.89163713500357
 30
0.0
 10
9.312845962726227
 20
14.54636877667884
 30
0.0
  0
SPLINE
  5
F6
330
F0
100
AcDbEntity
  8
ETCH
 62
     5
420
      255
370
   158
100
AcDbSpline
210
0.0
220
0.0
230
1.0
 70
     9
 71
     3
 72
    23
 73
    19
 74
     0
 42
0.0000000001
 43
0.0000000001
 40
0.0
 40
0.0
 40
0.0
 40
0.0
 40
1.0
 40
1.0
 40
1.0
 40
2.0
 40
2.0
 40
2.0
 40
3.0
 40
3.0
 40
3.0
 40
4.0
 40
4.0
 40
4.0
 40
5.0
 40
5.0
 40
5.0
 40
6.0
 40
6.0
 40
6.0
 40
6.0
 10
9.278774606580011
 20
14.53788528670274
 30
0.0
 10
9.242470941836092
 20
14.80565808126121
 30
0.0
 10
9.54609290665966
 20
14.97198174327911
 30
0.0
 10
9.756165302454203
 20
14.80462341923121
 30
0.0
 10
9.756165302454203
 20
14.80462341923121
 30
0.0
 10
9.966043437117919
 20
15.01252164264148
 30
0.0
 10
9.966043437117919
 20
15.01252164264148
 30
0.0
 10
9.991304055771971
 20
15.02602997680009
 30
0.0
 10
10.03182233440425
 20
14.98578296984092
 30
0.0
 10
10.00892156494126
 20
14.96078868143023
 30
0.0
 10
10.00892156494126
 20
14.96078868143023
 30
0.0
 10
9.805071974803201
 20
14.75519001915759
 30
0.0
 10
9.805071974803201
 20
14.75519001915759
 30
0.0
 10
9.842559262830377
 20
14.67828098050024
 30
0.0
 10
9.865437527033691
 20
14.61919630302773
 30
0.0
 10
9.851419793737893
 20
14.53100223644801
 30
0.0
 10
9.801134171801246
 20
14.2146248738962
 30
0.0
 10
9.322083476136173
 20
14.21844268739412
 30
0.0
 10
9.278774606580011
 20
14.53788528670274
 30
0.0
  0
INSERT
  5
F8
330
F0
100
AcDbEntity
  8
ETCH
100
AcDbBlockReference
  2
Block_11
 10
0.0
 20
0.0
 30
0.0
  0
INSERT
  5
101
330
F0
100
AcDbEntity
  8
ETCH
100
AcDbBlockReference
  2
Block_12
 10
0.0
 20
0.0
 30
0.0
  0
SPLINE
  5
109
330
F0
100
AcDbEntity
  8
ETCH
 62
     5
420
      255
370
   106
100
AcDbSpline
210
0.0
220
0.0
230
1.0
 70
     9
 71
     3
 72
    17
 73
    13
 74
     0
 42
0.0000000001
 43
0.0000000001
 40
0.0
 40
0.0
 40
0.0
 40
0.0
 40
1.0
 40
1.0
 40
1.0
 40
2.0
 40
2.0
 40
2.0
 40
3.0
 40
3.0
 40
3.0
 40
4.0
 40
4.0
 40
4.0
 40
4.0
 10
9.675932967689492
 20
0.837039638299201
 30
0.0
 10
9.675932967689492
 20
0.837039638299201
 30
0.0
 10
9.645356409996855
 20
0.8273855449216776
 30
0.0
 10
9.645356409996855
 20
0.8273855449216776
 30
0.0
 10
9.619523882260017
 20
0.8765691089210525
 30
0.0
 10
9.56948804657798
 20
0.8766832263932984
 30
0.0
 10
9.543568586412384
 20
0.8273855449262757
 30
0.0
 10
9.543568586412384
 20
0.8273855449262757
 30
0.0
 10
9.512664088028119
 20
0.842079273293368
 30
0.0
 10
9.512664088028119
 20
0.842079273293368
 30
0.0
 10
9.534637965154198
 20
0.9215564000990323
 30
0.0
 10
9.662115296698289
 20
0.9194238360368116
 30
0.0
 10
9.675932967689492
 20
0.837039638299201
 30
0.0
  0
INSERT
  5
10B
330
F0
100
AcDbEntity
  8
ETCH
100
AcDbBlockReference
  2
Block_13
 10
0.0
 20
0.0
 30
0.0
  0
ENDBLK
  5
F3
330
F0
100
AcDbEntity
  8
0
100
AcDbBlockEnd
  0
BLOCK
  5
F9
330
F7
100
AcDbEntity
  8
0
100
AcDbBlockBegin
  2
Block_11
 70
     0
 10
0.0
 20
0.0
 30
0.0
  3
Block_11
  1

  0
SPLINE
  5
FB
330
F7
100
AcDbEntity
  8
ETCH
 62
     5
420
      255
370
   158
100
AcDbSpline
210
0.0
220
0.0
230
1.0
 70
     9
 71
     3
 72
    11
 73
     7
 74
     0
 42
0.0000000001
 43
0.0000000001
 40
0.0
 40
0.0
 40
0.0
 40
0.0
 40
1.0
 40
1.0
 40
1.0
 40
2.0
 40
2.0
 40
2.0
 40
2.0
 10
7.650373040400722
 20
14.54636877667884
 30
0.0
 10
7.692610277995476
 20
14.22417668973412
 30
0.0
 10
8.192349559285945
 20
14.2755354564137
 30
0.0
 10
8.157771785456134
 20
14.61139032102579
 30
0.0
 10
8.123665894814962
 20
14.94266177129787
 30
0.0
 10
7.605110657259033
 20
14.89163713500357
 30
0.0
 10
7.650373040400722
 20
14.54636877667884
 30
0.0
  0
SPLINE
  5
FC
330
F7
100
AcDbEntity
  8
ETCH
 62
     5
420
      255
370
   158
100
AcDbSpline
210
0.0
220
0.0
230
1.0
 70
     9
 71
     3
 72
    23
 73
    19
 74
     0
 42
0.0000000001
 43
0.0000000001
 40
0.0
 40
0.0
 40
0.0
 40
0.0
 40
1.0
 40
1.0
 40
1.0
 40
2.0
 40
2.0
 40
2.0
 40
3.0
 40
3.0
 40
3.0
 40
4.0
 40
4.0
 40
4.0
 40
5.0
 40
5.0
 40
5.0
 40
6.0
 40
6.0
 40
6.0
 40
6.0
 10
7.616301684254507
 20
14.53788528670274
 30
0.0
 10
7.579998019510601
 20
14.80565808126121
 30
0.0
 10
7.883619984334156
 20
14.97198174327911
 30
0.0
 10
8.093692380128699
 20
14.80462341923121
 30
0.0
 10
8.093692380128699
 20
14.80462341923121
 30
0.0
 10
8.303570514792415
 20
15.01252164264148
 30
0.0
 10
8.303570514792415
 20
15.01252164264148
 30
0.0
 10
8.328831133446467
 20
15.02602997680009
 30
0.0
 10
8.369349412078753
 20
14.98578296984092
 30
0.0
 10
8.346448642615744
 20
14.96078868143023
 30
0.0
 10
8.346448642615744
 20
14.96078868143023
 30
0.0
 10
8.142599052477697
 20
14.75519001915759
 30
0.0
 10
8.142599052477697
 20
14.75519001915759
 30
0.0
 10
8.180086340504873
 20
14.67828098050024
 30
0.0
 10
8.202964604708199
 20
14.61919630302773
 30
0.0
 10
8.188946871412376
 20
14.53100223644801
 30
0.0
 10
8.138661249475754
 20
14.2146248738962
 30
0.0
 10
7.659610553810668
 20
14.21844268739412
 30
0.0
 10
7.616301684254507
 20
14.53788528670274
 30
0.0
  0
SPLINE
  5
FD
330
F7
100
AcDbEntity
  8
ETCH
 62
     5
420
      255
370
    35
100
AcDbSpline
210
0.0
220
0.0
230
1.0
 70
    11
 71
     3
 72
    41
 73
    37
 74
     0
 42
0.0000000001
 43
0.0000000001
 40
0.0
 40
0.0
 40
0.0
 40
0.0
 40
1.0
 40
1.0
 40
1.0
 40
2.0
 40
2.0
 40
2.0
 40
3.0
 40
3.0
 40
3.0
 40
4.0
 40
4.0
 40
4.0
 40
5.0
 40
5.0
 40
5.0
 40
6.0
 40
6.0
 40
6.0
 40
7.0
 40
7.0
 40
7.0
 40
8.0
 40
8.0
 40
8.0
 40
9.0
 40
9.0
 40
9.0
 40
10.0
 40
10.0
 40
10.0
 40
11.0
 40
11.0
 40
11.0
 40
12.0
 40
12.0
 40
12.0
 40
12.0
 10
7.767276623883756
 20
14.59950888219954
 30
0.0
 10
7.767276623883756
 20
14.59950888219954
 30
0.0
 10
7.767276623882239
 20
14.56546978050092
 30
0.0
 10
7.767276623882239
 20
14.56546978050092
 30
0.0
 10
7.767276623882239
 20
14.56546978050092
 30
0.0
 10
7.886413479827346
 20
14.56546978049564
 30
0.0
 10
7.886413479827346
 20
14.56546978049564
 30
0.0
 10
7.886413479827346
 20
14.56546978049564
 30
0.0
 10
7.886413479822003
 20
14.44633292455051
 30
0.0
 10
7.886413479822003
 20
14.44633292455051
 30
0.0
 10
7.886413479822003
 20
14.44633292455051
 30
0.0
 10
7.920452581520609
 20
14.44633292454898
 30
0.0
 10
7.920452581520609
 20
14.44633292454898
 30
0.0
 10
7.920452581520609
 20
14.44633292454898
 30
0.0
 10
7.920452581525952
 20
14.56546978049412
 30
0.0
 10
7.920452581525952
 20
14.56546978049412
 30
0.0
 10
7.920452581525952
 20
14.56546978049412
 30
0.0
 10
8.039589437471072
 20
14.56546978048871
 30
0.0
 10
8.039589437471072
 20
14.56546978048871
 30
0.0
 10
8.039589437471072
 20
14.56546978048871
 30
0.0
 10
8.039589437472601
 20
14.59950888218731
 30
0.0
 10
8.039589437472601
 20
14.59950888218731
 30
0.0
 10
8.039589437472601
 20
14.59950888218731
 30
0.0
 10
7.920452581527481
 20
14.59950888219273
 30
0.0
 10
7.920452581527481
 20
14.59950888219273
 30
0.0
 10
7.920452581527481
 20
14.59950888219273
 30
0.0
 10
7.920452581532837
 20
14.71864573813788
 30
0.0
 10
7.920452581532837
 20
14.71864573813788
 30
0.0
 10
7.920452581532837
 20
14.71864573813788
 30
0.0
 10
7.886413479834218
 20
14.71864573813939
 30
0.0
 10
7.886413479834218
 20
14.71864573813939
 30
0.0
 10
7.886413479834218
 20
14.71864573813939
 30
0.0
 10
7.886413479828875
 20
14.59950888219426
 30
0.0
 10
7.886413479828875
 20
14.59950888219426
 30
0.0
 10
7.886413479828875
 20
14.59950888219426
 30
0.0
 10
7.767276623883756
 20
14.59950888219954
 30
0.0
 10
7.767276623883756
 20
14.59950888219954
 30
0.0
  0
SPLINE
  5
FE
330
F7
100
AcDbEntity
  8
ETCH
 62
     5
420
      255
370
    35
100
AcDbSpline
210
0.0
220
0.0
230
1.0
 70
     9
 71
     3
 72
    11
 73
     7
 74
     0
 42
0.0000000001
 43
0.0000000001
 40
0.0
 40
0.0
 40
0.0
 40
0.0
 40
1.0
 40
1.0
 40
1.0
 40
2.0
 40
2.0
 40
2.0
 40
2.0
 10
7.650373040400722
 20
14.54636877667884
 30
0.0
 10
7.605110657259033
 20
14.89163713500357
 30
0.0
 10
8.123665894814962
 20
14.94266177129787
 30
0.0
 10
8.157771785456134
 20
14.61139032102579
 30
0.0
 10
8.192349559285945
 20
14.2755354564137
 30
0.0
 10
7.692610277995476
 20
14.22417668973412
 30
0.0
 10
7.650373040400722
 20
14.54636877667884
 30
0.0
  0
LWPOLYLINE
  5
FF
330
F7
100
AcDbEntity
  8
ETCH
 62
     5
420
      255
370
   140
100
AcDbPolyline
 90
       12
 70
     1
 43
0.0
 10
7.767276623883756
 20
14.59950888219954
 10
7.886413479828875
 20
14.59950888219426
 10
7.886413479834218
 20
14.71864573813939
 10
7.920452581532837
 20
14.71864573813788
 10
7.920452581527481
 20
14.59950888219273
 10
8.039589437472601
 20
14.59950888218731
 10
8.039589437471072
 20
14.56546978048871
 10
7.920452581525952
 20
14.56546978049412
 10
7.920452581520609
 20
14.44633292454898
 10
7.886413479822003
 20
14.44633292455051
 10
7.886413479827346
 20
14.56546978049564
 10
7.767276623882239
 20
14.56546978050092
  0
ENDBLK
  5
FA
330
F7
100
AcDbEntity
  8
0
100
AcDbBlockEnd
  0
BLOCK
  5
102
330
100
100
AcDbEntity
  8
0
100
AcDbBlockBegin
  2
Block_12
 70
     0
 10
0.0
 20
0.0
 30
0.0
  3
Block_12
  1

  0
SPLINE
  5
104
330
100
100
AcDbEntity
  8
ETCH
 62
     5
420
      255
370
   106
100
AcDbSpline
210
0.0
220
0.0
230
1.0
 70
    11
 71
     3
 72
    23
 73
    19
 74
     0
 42
0.0000000001
 43
0.0000000001
 40
0.0
 40
0.0
 40
0.0
 40
0.0
 40
1.0
 40
1.0
 40
1.0
 40
2.0
 40
2.0
 40
2.0
 40
3.0
 40
3.0
 40
3.0
 40
4.0
 40
4.0
 40
4.0
 40
5.0
 40
5.0
 40
5.0
 40
6.0
 40
6.0
 40
6.0
 40
6.0
 10
9.467743008596256
 20
0.4305116119451971
 30
0.0
 10
9.467743008596256
 20
0.4305116119451971
 30
0.0
 10
9.467743008590369
 20
0.29926642629784
 30
0.0
 10
9.467743008590369
 20
0.29926642629784
 30
0.0
 10
9.473442385880856
 20
0.2902962823330502
 30
0.0
 10
9.480237866775697
 20
0.2875504131577347
 30
0.0
 10
9.490376647169529
 20
0.2856944959021348
 30
0.0
 10
9.523032541146259
 20
0.2797167910131166
 30
0.0
 10
9.65416123665865
 20
0.281026364798941
 30
0.0
 10
9.689962957882054
 20
0.2852284991113265
 30
0.0
 10
9.703140862092633
 20
0.2867752214909968
 30
0.0
 10
9.713237280561832
 20
0.2863509883896364
 30
0.0
 10
9.72118198777145
 20
0.2992664262864208
 30
0.0
 10
9.72118198777145
 20
0.2992664262864208
 30
0.0
 10
9.721181987777336
 20
0.4305116119337779
 30
0.0
 10
9.721181987777336
 20
0.4305116119337779
 30
0.0
 10
9.721181987777336
 20
0.4305116119337779
 30
0.0
 10
9.467743008596256
 20
0.4305116119451971
 30
0.0
 10
9.467743008596256
 20
0.4305116119451971
 30
0.0
  0
SPLINE
  5
105
330
100
100
AcDbEntity
  8
ETCH
 62
     5
420
      255
370
   106
100
AcDbSpline
210
0.0
220
0.0
230
1.0
 70
     9
 71
     3
 72
    23
 73
    19
 74
     0
 42
0.0000000001
 43
0.0000000001
 40
0.0
 40
0.0
 40
0.0
 40
0.0
 40
1.0
 40
1.0
 40
1.0
 40
2.0
 40
2.0
 40
2.0
 40
3.0
 40
3.0
 40
3.0
 40
4.0
 40
4.0
 40
4.0
 40
5.0
 40
5.0
 40
5.0
 40
6.0
 40
6.0
 40
6.0
 40
6.0
 10
9.214304029427353
 20
0.702053375364863
 30
0.0
 10
9.210185890570565
 20
0.6845167329722446
 30
0.0
 10
9.220698856497783
 20
0.6846313147625046
 30
0.0
 10
9.2295478617627
 20
0.6765638405739385
 30
0.0
 10
9.303678058468738
 20
0.6089807133621435
 30
0.0
 10
9.378130694725856
 20
0.5416129902474091
 30
0.0
 10
9.44980639030709
 20
0.4714090423929823
 30
0.0
 10
9.44980639030709
 20
0.4714090423929823
 30
0.0
 10
9.744303896630032
 20
0.4752751439351516
 30
0.0
 10
9.744303896630032
 20
0.4752751439351516
 30
0.0
 10
9.813476035980215
 20
0.5449530774458759
 30
0.0
 10
9.886851737812484
 20
0.6104424942888424
 30
0.0
 10
9.959377134632973
 20
0.6765638405411967
 30
0.0
 10
9.968225969705409
 20
0.6846313163966139
 30
0.0
 10
9.978739172156425
 20
0.6845166504194317
 30
0.0
 10
9.97462096697062
 20
0.7020533753307064
 30
0.0
 10
9.97462096697062
 20
0.7020533753307064
 30
0.0
 10
9.214304029427353
 20
0.702053375364863
 30
0.0
 10
9.214304029427353
 20
0.702053375364863
 30
0.0
  0
SPLINE
  5
106
330
100
100
AcDbEntity
  8
ETCH
 62
     5
420
      255
370
   106
100
AcDbSpline
210
0.0
220
0.0
230
1.0
 70
     9
 71
     3
 72
    32
 73
    28
 74
     0
 42
0.0000000001
 43
0.0000000001
 40
0.0
 40
0.0
 40
0.0
 40
0.0
 40
1.0
 40
1.0
 40
1.0
 40
2.0
 40
2.0
 40
2.0
 40
3.0
 40
3.0
 40
3.0
 40
4.0
 40
4.0
 40
4.0
 40
5.0
 40
5.0
 40
5.0
 40
6.0
 40
6.0
 40
6.0
 40
7.0
 40
7.0
 40
7.0
 40
8.0
 40
8.0
 40
8.0
 40
9.0
 40
9.0
 40
9.0
 40
9.0
 10
9.189364854839531
 20
0.7270455219638987
 30
0.0
 10
9.199459264367039
 20
0.7371247510033451
 30
0.0
 10
9.222450286188214
 20
0.7374296394221144
 30
0.0
 10
9.236545518856447
 20
0.7386275471474921
 30
0.0
 10
9.467943836097813
 20
0.7582933333309888
 30
0.0
 10
9.726798151561865
 20
0.7231989988873062
 30
0.0
 10
9.961197234023693
 20
0.7382602529048907
 30
0.0
 10
9.991938818787918
 20
0.7390857326778738
 30
0.0
 10
10.01470034692224
 20
0.7212481640362967
 30
0.0
 10
10.01095415079533
 20
0.6887695915499231
 30
0.0
 10
10.00707164383995
 20
0.6551092386728972
 30
0.0
 10
9.799437734226644
 20
0.4859907768367925
 30
0.0
 10
9.761956248420384
 20
0.4485714000281607
 30
0.0
 10
9.740167124212385
 20
0.381508962523488
 30
0.0
 10
9.797295200124848
 20
0.2608250322787676
 30
0.0
 10
9.698722196004066
 20
0.2493150800737061
 30
0.0
 10
9.66162561407475
 20
0.2449834693168971
 30
0.0
 10
9.47820931803988
 20
0.2448691293109025
 30
0.0
 10
9.455099292971567
 20
0.2594685343306082
 30
0.0
 10
9.409182970978021
 20
0.2884754687591642
 30
0.0
 10
9.444726707551239
 20
0.4010173109153988
 30
0.0
 10
9.426968747954825
 20
0.4485714000432179
 30
0.0
 10
9.426968747954825
 20
0.4485714000432179
 30
0.0
 10
9.18658417027729
 20
0.6699204693323838
 30
0.0
 10
9.18658417027729
 20
0.6699204693323838
 30
0.0
 10
9.173055633453044
 20
0.6832514406441988
 30
0.0
 10
9.177416826278923
 20
0.7151154614582285
 30
0.0
 10
9.189364854839531
 20
0.7270455219638987
 30
0.0
  0
SPLINE
  5
107
330
100
100
AcDbEntity
  8
ETCH
 62
     5
420
      255
370
   106
100
AcDbSpline
210
0.0
220
0.0
230
1.0
 70
     9
 71
     3
 72
    23
 73
    19
 74
     0
 42
0.0000000001
 43
0.0000000001
 40
0.0
 40
0.0
 40
0.0
 40
0.0
 40
1.0
 40
1.0
 40
1.0
 40
2.0
 40
2.0
 40
2.0
 40
3.0
 40
3.0
 40
3.0
 40
4.0
 40
4.0
 40
4.0
 40
5.0
 40
5.0
 40
5.0
 40
6.0
 40
6.0
 40
6.0
 40
6.0
 10
9.214304029427353
 20
0.702053375364863
 30
0.0
 10
9.214304029427353
 20
0.702053375364863
 30
0.0
 10
9.97462096697062
 20
0.7020533753307064
 30
0.0
 10
9.97462096697062
 20
0.7020533753307064
 30
0.0
 10
9.978739172156425
 20
0.6845166504194317
 30
0.0
 10
9.968225969705409
 20
0.6846313163966139
 30
0.0
 10
9.959377134632973
 20
0.6765638405411967
 30
0.0
 10
9.886851737812484
 20
0.6104424942888424
 30
0.0
 10
9.813476035980215
 20
0.5449530774458759
 30
0.0
 10
9.744303896630032
 20
0.4752751439351516
 30
0.0
 10
9.744303896630032
 20
0.4752751439351516
 30
0.0
 10
9.44980639030709
 20
0.4714090423929823
 30
0.0
 10
9.44980639030709
 20
0.4714090423929823
 30
0.0
 10
9.378130694725856
 20
0.5416129902474091
 30
0.0
 10
9.303678058468738
 20
0.6089807133621435
 30
0.0
 10
9.2295478617627
 20
0.6765638405739385
 30
0.0
 10
9.220698856497783
 20
0.6846313147625046
 30
0.0
 10
9.210185890570565
 20
0.6845167329722446
 30
0.0
 10
9.214304029427353
 20
0.702053375364863
 30
0.0
  0
SPLINE
  5
108
330
100
100
AcDbEntity
  8
ETCH
 62
     5
420
      255
370
   106
100
AcDbSpline
210
0.0
220
0.0
230
1.0
 70
    11
 71
     3
 72
    23
 73
    19
 74
     0
 42
0.0000000001
 43
0.0000000001
 40
0.0
 40
0.0
 40
0.0
 40
0.0
 40
1.0
 40
1.0
 40
1.0
 40
2.0
 40
2.0
 40
2.0
 40
3.0
 40
3.0
 40
3.0
 40
4.0
 40
4.0
 40
4.0
 40
5.0
 40
5.0
 40
5.0
 40
6.0
 40
6.0
 40
6.0
 40
6.0
 10
9.467743008596256
 20
0.4305116119451971
 30
0.0
 10
9.467743008596256
 20
0.4305116119451971
 30
0.0
 10
9.721181987777336
 20
0.4305116119337779
 30
0.0
 10
9.721181987777336
 20
0.4305116119337779
 30
0.0
 10
9.721181987777336
 20
0.4305116119337779
 30
0.0
 10
9.72118198777145
 20
0.2992664262864208
 30
0.0
 10
9.72118198777145
 20
0.2992664262864208
 30
0.0
 10
9.713237280561832
 20
0.2863509883896364
 30
0.0
 10
9.703140862092633
 20
0.2867752214909968
 30
0.0
 10
9.689962957882054
 20
0.2852284991113265
 30
0.0
 10
9.65416123665865
 20
0.281026364798941
 30
0.0
 10
9.523032541146259
 20
0.2797167910131166
 30
0.0
 10
9.490376647169529
 20
0.2856944959021348
 30
0.0
 10
9.480237866775697
 20
0.2875504131577347
 30
0.0
 10
9.473442385880856
 20
0.2902962823330502
 30
0.0
 10
9.467743008590369
 20
0.29926642629784
 30
0.0
 10
9.467743008590369
 20
0.29926642629784
 30
0.0
 10
9.467743008596256
 20
0.4305116119451971
 30
0.0
 10
9.467743008596256
 20
0.4305116119451971
 30
0.0
  0
ENDBLK
  5
103
330
100
100
AcDbEntity
  8
0
100
AcDbBlockEnd
  0
BLOCK
  5
10C
330
10A
100
AcDbEntity
  8
0
100
AcDbBlockBegin
  2
Block_13
 70
     0
 10
0.0
 20
0.0
 30
0.0
  3
Block_13
  1

  0
INSERT
  5
10F
330
10A
100
AcDbEntity
  8
ETCH
100
AcDbBlockReference
  2
Block_14
 10
0.0
 20
0.0
 30
0.0
  0
INSERT
  5
116
330
10A
100
AcDbEntity
  8
ETCH
100
AcDbBlockReference
  2
Block_15
 10
0.0
 20
0.0
 30
0.0
  0
ENDBLK
  5
10D
330
10A
100
AcDbEntity
  8
0
100
AcDbBlockEnd
  0
BLOCK
  5
110
330
10E
100
AcDbEntity
  8
0
100
AcDbBlockBegin
  2
Block_14
 70
     0
 10
0.0
 20
0.0
 30
0.0
  3
Block_14
  1

  0
SPLINE
  5
112
330
10E
100
AcDbEntity
  8
ETCH
 62
     5
420
      255
370
   106
100
AcDbSpline
210
0.0
220
0.0
230
1.0
 70
     9
 71
     3
 72
    26
 73
    22
 74
     0
 42
0.0000000001
 43
0.0000000001
 40
0.0
 40
0.0
 40
0.0
 40
0.0
 40
1.0
 40
1.0
 40
1.0
 40
2.0
 40
2.0
 40
2.0
 40
3.0
 40
3.0
 40
3.0
 40
4.0
 40
4.0
 40
4.0
 40
5.0
 40
5.0
 40
5.0
 40
6.0
 40
6.0
 40
6.0
 40
7.0
 40
7.0
 40
7.0
 40
7.0
 10
7.632193881624074
 20
0.9783930795447304
 30
0.0
 10
7.631673491940962
 20
0.9887915513301473
 30
0.0
 10
7.687355344268148
 20
1.045182588084773
 30
0.0
 10
7.699643635855762
 20
1.055600272740119
 30
0.0
 10
7.812785387882412
 20
1.151518821348923
 30
0.0
 10
7.969355101668092
 20
1.153821749078663
 30
0.0
 10
8.084648962814929
 20
1.060019257390952
 30
0.0
 10
8.103701717545011
 20
1.044518034260616
 30
0.0
 10
8.199415288360189
 20
0.9428160952625653
 30
0.0
 10
8.12627849145527
 20
0.9658159142041363
 30
0.0
 10
8.120460369752789
 20
0.9676455779493455
 30
0.0
 10
8.089415987456428
 20
1.011609914826951
 30
0.0
 10
8.075574603350053
 20
1.023790738189543
 30
0.0
 10
7.973612911602205
 20
1.11352001290561
 30
0.0
 10
7.815355785027703
 20
1.113577370663177
 30
0.0
 10
7.713350393075946
 20
1.023790738205813
 30
0.0
 10
7.699513610679205
 20
1.01161140070533
 30
0.0
 10
7.668461256034977
 20
0.9676445179840003
 30
0.0
 10
7.6626465049655
 20
0.9658159142249536
 30
0.0
 10
7.650890208425582
 20
0.9621188328213367
 30
0.0
 10
7.632604814480714
 20
0.9701817835592311
 30
0.0
 10
7.632193881624074
 20
0.9783930795447304
 30
0.0
  0
SPLINE
  5
113
330
10E
100
AcDbEntity
  8
ETCH
 62
     5
420
      255
370
   106
100
AcDbSpline
210
0.0
220
0.0
230
1.0
 70
     9
 71
     3
 72
    20
 73
    16
 74
     0
 42
0.0000000001
 43
0.0000000001
 40
0.0
 40
0.0
 40
0.0
 40
0.0
 40
1.0
 40
1.0
 40
1.0
 40
2.0
 40
2.0
 40
2.0
 40
3.0
 40
3.0
 40
3.0
 40
4.0
 40
4.0
 40
4.0
 40
5.0
 40
5.0
 40
5.0
 40
5.0
 10
7.752856618662601
 20
0.9616578709705612
 30
0.0
 10
7.844865160677247
 20
1.053440249919023
 30
0.0
 10
8.009046190885126
 20
1.031747153492031
 30
0.0
 10
8.066427449788079
 20
0.9152563785126201
 30
0.0
 10
8.032421013411015
 20
0.8766339765665078
 30
0.0
 10
8.019891581906904
 20
0.9352733737628618
 30
0.0
 10
7.982326137822332
 20
0.957691943120052
 30
0.0
 10
7.92565654122096
 20
0.9915116226902176
 30
0.0
 10
7.863722288538938
 20
0.9917601226482776
 30
0.0
 10
7.80659885859773
 20
0.9576919431279343
 30
0.0
 10
7.781262592596981
 20
0.9425814979152466
 30
0.0
 10
7.756353065155709
 20
0.8938539394197404
 30
0.0
 10
7.736163528346221
 20
0.9016055266711695
 30
0.0
 10
7.707811174982275
 20
0.9124911523770403
 30
0.0
 10
7.740453127638311
 20
0.9492848685454696
 30
0.0
 10
7.752856618662601
 20
0.9616578709705612
 30
0.0
  0
SPLINE
  5
114
330
10E
100
AcDbEntity
  8
ETCH
 62
     5
420
      255
370
   106
100
AcDbSpline
210
0.0
220
0.0
230
1.0
 70
     9
 71
     3
 72
    17
 73
    13
 74
     0
 42
0.0000000001
 43
0.0000000001
 40
0.0
 40
0.0
 40
0.0
 40
0.0
 40
1.0
 40
1.0
 40
1.0
 40
2.0
 40
2.0
 40
2.0
 40
3.0
 40
3.0
 40
3.0
 40
4.0
 40
4.0
 40
4.0
 40
4.0
 10
7.975932967689509
 20
0.847300603522803
 30
0.0
 10
7.975932967689509
 20
0.847300603522803
 30
0.0
 10
7.945356409996874
 20
0.8376465101452797
 30
0.0
 10
7.945356409996874
 20
0.8376465101452797
 30
0.0
 10
7.919523882260035
 20
0.886830074144604
 30
0.0
 10
7.869488046577998
 20
0.8869441916169003
 30
0.0
 10
7.843568586412402
 20
0.8376465101498776
 30
0.0
 10
7.843568586412402
 20
0.8376465101498776
 30
0.0
 10
7.812664088028137
 20
0.8523402385169699
 30
0.0
 10
7.812664088028137
 20
0.8523402385169699
 30
0.0
 10
7.834637965154215
 20
0.9318173653226342
 30
0.0
 10
7.962115296698306
 20
0.929684801260363
 30
0.0
 10
7.975932967689509
 20
0.847300603522803
 30
0.0
  0
ENDBLK
  5
111
330
10E
100
AcDbEntity
  8
0
100
AcDbBlockEnd
  0
BLOCK
  5
117
330
115
100
AcDbEntity
  8
0
100
AcDbBlockBegin
  2
Block_15
 70
     0
 10
0.0
 20
0.0
 30
0.0
  3
Block_15
  1

  0
SPLINE
  5
119
330
115
100
AcDbEntity
  8
ETCH
 62
     5
420
      255
370
   106
100
AcDbSpline
210
0.0
220
0.0
230
1.0
 70
    11
 71
     3
 72
    23
 73
    19
 74
     0
 42
0.0000000001
 43
0.0000000001
 40
0.0
 40
0.0
 40
0.0
 40
0.0
 40
1.0
 40
1.0
 40
1.0
 40
2.0
 40
2.0
 40
2.0
 40
3.0
 40
3.0
 40
3.0
 40
4.0
 40
4.0
 40
4.0
 40
5.0
 40
5.0
 40
5.0
 40
6.0
 40
6.0
 40
6.0
 40
6.0
 10
7.767743008596274
 20
0.4407725771687991
 30
0.0
 10
7.767743008596274
 20
0.4407725771687991
 30
0.0
 10
7.767743008590387
 20
0.309527391521442
 30
0.0
 10
7.767743008590387
 20
0.309527391521442
 30
0.0
 10
7.773442385880874
 20
0.3005572475566522
 30
0.0
 10
7.780237866775703
 20
0.2978113783813367
 30
0.0
 10
7.79037664716956
 20
0.2959554611257368
 30
0.0
 10
7.823032541146276
 20
0.2899777562367186
 30
0.0
 10
7.954161236658667
 20
0.2912873300225429
 30
0.0
 10
7.989962957882071
 20
0.2954894643349285
 30
0.0
 10
8.003140862092651
 20
0.2970361867145988
 30
0.0
 10
8.013237280561851
 20
0.2966119536132383
 30
0.0
 10
8.021181987771468
 20
0.3095273915100228
 30
0.0
 10
8.021181987771468
 20
0.3095273915100228
 30
0.0
 10
8.021181987777355
 20
0.4407725771573799
 30
0.0
 10
8.021181987777355
 20
0.4407725771573799
 30
0.0
 10
8.021181987777355
 20
0.4407725771573799
 30
0.0
 10
7.767743008596274
 20
0.4407725771687991
 30
0.0
 10
7.767743008596274
 20
0.4407725771687991
 30
0.0
  0
SPLINE
  5
11A
330
115
100
AcDbEntity
  8
ETCH
 62
     5
420
      255
370
   106
100
AcDbSpline
210
0.0
220
0.0
230
1.0
 70
     9
 71
     3
 72
    23
 73
    19
 74
     0
 42
0.0000000001
 43
0.0000000001
 40
0.0
 40
0.0
 40
0.0
 40
0.0
 40
1.0
 40
1.0
 40
1.0
 40
2.0
 40
2.0
 40
2.0
 40
3.0
 40
3.0
 40
3.0
 40
4.0
 40
4.0
 40
4.0
 40
5.0
 40
5.0
 40
5.0
 40
6.0
 40
6.0
 40
6.0
 40
6.0
 10
7.51430402942737
 20
0.712314340588465
 30
0.0
 10
7.510185890570583
 20
0.6947776981958466
 30
0.0
 10
7.520698856497801
 20
0.6948922799861066
 30
0.0
 10
7.529547861762718
 20
0.6868248057975405
 30
0.0
 10
7.603678058468757
 20
0.6192416785857455
 30
0.0
 10
7.678130694725874
 20
0.5518739554710111
 30
0.0
 10
7.749806390307108
 20
0.4816700076165843
 30
0.0
 10
7.749806390307108
 20
0.4816700076165843
 30
0.0
 10
8.044303896630051
 20
0.4855361091587535
 30
0.0
 10
8.044303896630051
 20
0.4855361091587535
 30
0.0
 10
8.113476035980232
 20
0.5552140426694779
 30
0.0
 10
8.186851737812503
 20
0.6207034595124444
 30
0.0
 10
8.259377134632977
 20
0.6868248057647987
 30
0.0
 10
8.268225969705428
 20
0.6948922816202159
 30
0.0
 10
8.278739172156443
 20
0.6947776156430337
 30
0.0
 10
8.274620966970637
 20
0.7123143405543084
 30
0.0
 10
8.274620966970637
 20
0.7123143405543084
 30
0.0
 10
7.51430402942737
 20
0.712314340588465
 30
0.0
 10
7.51430402942737
 20
0.712314340588465
 30
0.0
  0
SPLINE
  5
11B
330
115
100
AcDbEntity
  8
ETCH
 62
     5
420
      255
370
   106
100
AcDbSpline
210
0.0
220
0.0
230
1.0
 70
     9
 71
     3
 72
    32
 73
    28
 74
     0
 42
0.0000000001
 43
0.0000000001
 40
0.0
 40
0.0
 40
0.0
 40
0.0
 40
1.0
 40
1.0
 40
1.0
 40
2.0
 40
2.0
 40
2.0
 40
3.0
 40
3.0
 40
3.0
 40
4.0
 40
4.0
 40
4.0
 40
5.0
 40
5.0
 40
5.0
 40
6.0
 40
6.0
 40
6.0
 40
7.0
 40
7.0
 40
7.0
 40
8.0
 40
8.0
 40
8.0
 40
9.0
 40
9.0
 40
9.0
 40
9.0
 10
7.48936485483955
 20
0.7373064871875006
 30
0.0
 10
7.499459264367057
 20
0.7473857162269471
 30
0.0
 10
7.522450286188232
 20
0.7476906046457163
 30
0.0
 10
7.536545518856453
 20
0.7488885123710941
 30
0.0
 10
7.76794383609783
 20
0.7685542985545908
 30
0.0
 10
8.026798151561882
 20
0.7334599641109082
 30
0.0
 10
8.261197234023711
 20
0.7485212181284926
 30
0.0
 10
8.291938818787912
 20
0.7493466979014758
 30
0.0
 10
8.31470034692226
 20
0.7315091292598987
 30
0.0
 10
8.310954150795344
 20
0.6990305567735251
 30
0.0
 10
8.307071643839964
 20
0.6653702038964992
 30
0.0
 10
8.099437734226663
 20
0.4962517420603945
 30
0.0
 10
8.061956248420402
 20
0.4588323652517627
 30
0.0
 10
8.040167124212404
 20
0.39176992774709
 30
0.0
 10
8.097295200124852
 20
0.2710859975023696
 30
0.0
 10
7.998722196004083
 20
0.2595760452973081
 30
0.0
 10
7.961625614074755
 20
0.2552444345404991
 30
0.0
 10
7.778209318039898
 20
0.2551300945345045
 30
0.0
 10
7.755099292971585
 20
0.2697294995542102
 30
0.0
 10
7.709182970978038
 20
0.2987364339827662
 30
0.0
 10
7.744726707551257
 20
0.4112782761390008
 30
0.0
 10
7.726968747954843
 20
0.4588323652668199
 30
0.0
 10
7.726968747954843
 20
0.4588323652668199
 30
0.0
 10
7.486584170277309
 20
0.6801814345559857
 30
0.0
 10
7.486584170277309
 20
0.6801814345559857
 30
0.0
 10
7.473055633453074
 20
0.6935124058678008
 30
0.0
 10
7.477416826278941
 20
0.7253764266818305
 30
0.0
 10
7.48936485483955
 20
0.7373064871875006
 30
0.0
  0
SPLINE
  5
11C
330
115
100
AcDbEntity
  8
ETCH
 62
     5
420
      255
370
   106
100
AcDbSpline
210
0.0
220
0.0
230
1.0
 70
     9
 71
     3
 72
    23
 73
    19
 74
     0
 42
0.0000000001
 43
0.0000000001
 40
0.0
 40
0.0
 40
0.0
 40
0.0
 40
1.0
 40
1.0
 40
1.0
 40
2.0
 40
2.0
 40
2.0
 40
3.0
 40
3.0
 40
3.0
 40
4.0
 40
4.0
 40
4.0
 40
5.0
 40
5.0
 40
5.0
 40
6.0
 40
6.0
 40
6.0
 40
6.0
 10
7.51430402942737
 20
0.712314340588465
 30
0.0
 10
7.51430402942737
 20
0.712314340588465
 30
0.0
 10
8.274620966970637
 20
0.7123143405543084
 30
0.0
 10
8.274620966970637
 20
0.7123143405543084
 30
0.0
 10
8.278739172156443
 20
0.6947776156430337
 30
0.0
 10
8.268225969705428
 20
0.6948922816202159
 30
0.0
 10
8.259377134632977
 20
0.6868248057647987
 30
0.0
 10
8.186851737812503
 20
0.6207034595124444
 30
0.0
 10
8.113476035980232
 20
0.5552140426694779
 30
0.0
 10
8.044303896630051
 20
0.4855361091587535
 30
0.0
 10
8.044303896630051
 20
0.4855361091587535
 30
0.0
 10
7.749806390307108
 20
0.4816700076165843
 30
0.0
 10
7.749806390307108
 20
0.4816700076165843
 30
0.0
 10
7.678130694725874
 20
0.5518739554710111
 30
0.0
 10
7.603678058468757
 20
0.6192416785857455
 30
0.0
 10
7.529547861762718
 20
0.6868248057975405
 30
0.0
 10
7.520698856497801
 20
0.6948922799861066
 30
0.0
 10
7.510185890570583
 20
0.6947776981958466
 30
0.0
 10
7.51430402942737
 20
0.712314340588465
 30
0.0
  0
SPLINE
  5
11D
330
115
100
AcDbEntity
  8
ETCH
 62
     5
420
      255
370
   106
100
AcDbSpline
210
0.0
220
0.0
230
1.0
 70
    11
 71
     3
 72
    23
 73
    19
 74
     0
 42
0.0000000001
 43
0.0000000001
 40
0.0
 40
0.0
 40
0.0
 40
0.0
 40
1.0
 40
1.0
 40
1.0
 40
2.0
 40
2.0
 40
2.0
 40
3.0
 40
3.0
 40
3.0
 40
4.0
 40
4.0
 40
4.0
 40
5.0
 40
5.0
 40
5.0
 40
6.0
 40
6.0
 40
6.0
 40
6.0
 10
7.767743008596274
 20
0.4407725771687991
 30
0.0
 10
7.767743008596274
 20
0.4407725771687991
 30
0.0
 10
8.021181987777355
 20
0.4407725771573799
 30
0.0
 10
8.021181987777355
 20
0.4407725771573799
 30
0.0
 10
8.021181987777355
 20
0.4407725771573799
 30
0.0
 10
8.021181987771468
 20
0.3095273915100228
 30
0.0
 10
8.021181987771468
 20
0.3095273915100228
 30
0.0
 10
8.013237280561851
 20
0.2966119536132383
 30
0.0
 10
8.003140862092651
 20
0.2970361867145988
 30
0.0
 10
7.989962957882071
 20
0.2954894643349285
 30
0.0
 10
7.954161236658667
 20
0.2912873300225429
 30
0.0
 10
7.823032541146276
 20
0.2899777562367186
 30
0.0
 10
7.79037664716956
 20
0.2959554611257368
 30
0.0
 10
7.780237866775703
 20
0.2978113783813367
 30
0.0
 10
7.773442385880874
 20
0.3005572475566522
 30
0.0
 10
7.767743008590387
 20
0.309527391521442
 30
0.0
 10
7.767743008590387
 20
0.309527391521442
 30
0.0
 10
7.767743008596274
 20
0.4407725771687991
 30
0.0
 10
7.767743008596274
 20
0.4407725771687991
 30
0.0
  0
ENDBLK
  5
118
330
115
100
AcDbEntity
  8
0
100
AcDbBlockEnd
  0
ENDSEC
  0
SECTION
  2
ENTITIES
  0
LWPOLYLINE
  5
79
330
70
100
AcDbEntity
  8
SKIP
 62
     3
420
    65280
370
     9
100
AcDbPolyline
 90
        4
 70
     1
 43
0.0
 10
25.08333333333333
 20
-1.25
 10
1.583333333333333
 20
-1.25
 10
1.583333333333333
 20
16.25
 10
25.08333333333333
 20
16.25
  0
INSERT
  5
7C
330
70
100
AcDbEntity
  8
CUT
100
AcDbBlockReference
  2
Block_0
 10
0.0
 20
0.0
 30
0.0
  0
INSERT
  5
8F
330
70
100
AcDbEntity
  8
CUT
100
AcDbBlockReference
  2
Block_1
 10
0.0
 20
0.0
 30
0.0
  0
INSERT
  5
A2
330
70
100
AcDbEntity
  8
CUT
100
AcDbBlockReference
  2
Block_2
 10
0.0
 20
0.0
 30
0.0
  0
INSERT
  5
B2
330
70
100
AcDbEntity
  8
CUT
100
AcDbBlockReference
  2
Block_3
 10
0.0
 20
0.0
 30
0.0
  0
INSERT
  5
C3
330
70
100
AcDbEntity
  8
ETCH
100
AcDbBlockReference
  2
Block_4
 10
0.0
 20
0.0
 30
0.0
  0
INSERT
  5
F1
330
70
100
AcDbEntity
  8
ETCH
100
AcDbBlockReference
  2
Block_10
 10
0.0
 20
0.0
 30
0.0
  0
ENDSEC
  0
SECTION
  2
OBJECTS
  0
DICTIONARY
  5
C
330
0
100
AcDbDictionary
281
     1
  3
ACAD_COLOR
350
63
  3
ACAD_DETAILVIEWSTYLE
350
6A
  3
ACAD_GROUP
350
D
  3
ACAD_LAYOUT
350
62
  3
ACAD_MATERIAL
350
10
  3
ACAD_MLEADERSTYLE
350
66
  3
ACAD_MLINESTYLE
350
5F
  3
ACAD_PLOTSETTINGS
350
61
  3
ACAD_PLOTSTYLENAME
350
E
  3
ACAD_SCALELIST
350
42
  3
ACAD_SECTIONVIEWSTYLE
350
68
  3
ACAD_TABLESTYLE
350
64
  3
ACAD_VISUALSTYLE
350
29
  3
ACDB_RECOMPOSE_DATA
350
126
  3
AcDbVariableDictionary
350
11E
  0
DICTIONARY
  5
63
102
{ACAD_REACTORS
330
C
102
}
330
C
100
AcDbDictionary
281
     1
  0
DICTIONARY
  5
6A
102
{ACAD_REACTORS
330
C
102
}
330
C
100
AcDbDictionary
281
     1
  3
Imperial24
350
6B
  0
DICTIONARY
  5
D
102
{ACAD_REACTORS
330
C
102
}
330
C
100
AcDbDictionary
281
     1
  0
DICTIONARY
  5
62
102
{ACAD_REACTORS
330
C
102
}
330
C
100
AcDbDictionary
281
     1
  3
Layout1
350
6F
  3
Layout2
350
77
  3
Model
350
73
  0
DICTIONARY
  5
10
102
{ACAD_REACTORS
330
C
102
}
330
C
100
AcDbDictionary
281
     1
  3
ByBlock
350
19
  3
ByLayer
350
11
  3
Global
350
21
  0
DICTIONARY
  5
66
102
{ACAD_REACTORS
330
C
102
}
330
C
100
AcDbDictionary
281
     1
  3
Standard
350
67
  0
DICTIONARY
  5
5F
102
{ACAD_REACTORS
330
C
102
}
330
C
100
AcDbDictionary
281
     1
  3
Standard
350
60
  0
DICTIONARY
  5
61
102
{ACAD_REACTORS
330
C
102
}
330
C
100
AcDbDictionary
281
     1
  0
ACDBDICTIONARYWDFLT
  5
E
102
{ACAD_REACTORS
330
C
102
}
330
C
100
AcDbDictionary
281
     1
  3
Normal
350
F
100
AcDbDictionaryWithDefault
340
F
  0
DICTIONARY
  5
42
102
{ACAD_REACTORS
330
C
102
}
330
C
100
AcDbDictionary
281
     1
  3
A0
350
43
  3
A1
350
44
  3
A2
350
45
  3
A3
350
46
  3
A4
350
47
  3
A5
350
48
  3
A6
350
49
  3
A7
350
4A
  3
A8
350
4B
  3
A9
350
4C
  3
B0
350
4D
  3
B1
350
4E
  3
B2
350
4F
  3
B3
350
50
  3
B4
350
51
  3
B5
350
52
  3
B6
350
53
  0
DICTIONARY
  5
68
102
{ACAD_REACTORS
330
C
102
}
330
C
100
AcDbDictionary
281
     1
  3
Imperial24
350
69
  0
DICTIONARY
  5
64
102
{ACAD_REACTORS
330
C
102
}
330
C
100
AcDbDictionary
281
     1
  3
Standard
350
65
  0
DICTIONARY
  5
29
102
{ACAD_REACTORS
330
C
102
}
330
C
100
AcDbDictionary
281
     1
  3
2dWireframe
350
2F
  3
Basic
350
2E
  3
Brighten
350
35
  3
ColorChange
350
39
  3
Conceptual
350
32
  3
Dim
350
34
  3
EdgeColorOff
350
41
  3
Facepattern
350
38
  3
Flat
350
2A
  3
FlatWithEdges
350
2B
  3
Gouraud
350
2C
  3
GouraudWithEdges
350
2D
  3
Hidden
350
31
  3
JitterOff
350
3F
  3
Linepattern
350
37
  3
OverhangOff
350
40
  3
Realistic
350
33
  3
Shaded
350
3E
  3
Shaded with edges
350
3D
  3
Shades of Gray
350
3A
  3
Sketchy
350
3B
  3
Thicken
350
36
  3
Wireframe
350
30
  3
X-Ray
350
3C
  0
XRECORD
  5
126
102
{ACAD_REACTORS
330
C
102
}
330
C
100
AcDbXrecord
280
     1
 90
        1
330
65
  0
DICTIONARY
  5
11E
102
{ACAD_REACTORS
330
C
102
}
330
C
100
AcDbDictionary
281
     1
  3
CANNOSCALE
350
123
  3
CMLEADERSTYLE
350
120
  3
CTABLESTYLE
350
11F
  3
CVIEWDETAILSTYLE
350
121
  3
CVIEWSECTIONSTYLE
350
122
  0
ACDBDETAILVIEWSTYLE
  5
6B
102
{ACAD_REACTORS
330
6A
102
}
330
6A
100
AcDbModelDocViewStyle
 70
     0
  3
Imperial24
290
     1
300
Imperial24
 90
        0
100
AcDbDetailViewStyle
 70
     0
 71
     0
 90
        3
 71
     1
340
55
 62
   256
 40
0.24
340
0
 62
   256
 40
0.24
300

 40
0.36
280
     3
 71
     2
340
5D
 90
       25
 62
   256
 71
     3
340
55
 62
   256
 40
0.24
 90
        1
 40
0.75
 90
        1
300
%<\AcVar ViewType \f "%tc1">% %<\AcVar ViewDetailId>%\PSCALE %<\AcVar ViewScale \f "%sn">%
 71
     4
340
5D
 90
       25
 62
   256
340
5D
 90
       25
 62
   256
280
     0
  0
LAYOUT
  5
6F
102
{ACAD_REACTORS
330
62
102
}
330
62
100
AcDbPlotSettings
  1

  2

  4

  6

 40
0.0
 41
0.0
 42
0.0
 43
0.0
 44
0.0
 45
0.0
 46
0.0
 47
0.0
 48
0.0
 49
0.0
140
0.0
141
0.0
142
1.0
143
1.0
 70
   688
 72
     0
 73
     0
 74
     5
  7

 75
    16
147
1.0
 76
     0
 77
     2
 78
   300
148
0.0
149
0.0
100
AcDbLayout
  1
Layout1
 70
     1
 71
     1
 10
0.0
 20
0.0
 11
12.0
 21
9.0
 12
0.0
 22
0.0
 32
0.0
 14
0.0
 24
0.0
 34
0.0
 15
0.0
 25
0.0
 35
0.0
146
0.0
 13
0.0
 23
0.0
 33
0.0
 16
1.0
 26
0.0
 36
0.0
 17
0.0
 27
1.0
 37
0.0
 76
     0
330
6C
  0
LAYOUT
  5
77
102
{ACAD_REACTORS
330
62
102
}
330
62
100
AcDbPlotSettings
  1

  2

  4

  6

 40
0.0
 41
0.0
 42
0.0
 43
0.0
 44
0.0
 45
0.0
 46
0.0
 47
0.0
 48
0.0
 49
0.0
140
0.0
141
0.0
142
1.0
143
1.0
 70
   688
 72
     0
 73
     0
 74
     5
  7

 75
    16
147
1.0
 76
     0
 77
     2
 78
   300
148
0.0
149
0.0
100
AcDbLayout
  1
Layout2
 70
     1
 71
     2
 10
0.0
 20
0.0
 11
12.0
 21
9.0
 12
0.0
 22
0.0
 32
0.0
 14
0.0
 24
0.0
 34
0.0
 15
0.0
 25
0.0
 35
0.0
146
0.0
 13
0.0
 23
0.0
 33
0.0
 16
1.0
 26
0.0
 36
0.0
 17
0.0
 27
1.0
 37
0.0
 76
     0
330
74
  0
LAYOUT
  5
73
102
{ACAD_REACTORS
330
62
102
}
330
62
100
AcDbPlotSettings
  1

  2

  4

  6

 40
0.0
 41
0.0
 42
0.0
 43
0.0
 44
0.0
 45
0.0
 46
0.0
 47
0.0
 48
0.0
 49
0.0
140
0.0
141
0.0
142
1.0
143
1.0
 70
  1712
 72
     0
 73
     0
 74
     0
  7

 75
     0
147
1.0
 76
     0
 77
     2
 78
   300
148
0.0
149
0.0
100
AcDbLayout
  1
Model
 70
     1
 71
     0
 10
0.0
 20
0.0
 11
12.0
 21
9.0
 12
0.0
 22
0.0
 32
0.0
 14
0.0
 24
0.0
 34
0.0
 15
0.0
 25
0.0
 35
0.0
146
0.0
 13
0.0
 23
0.0
 33
0.0
 16
1.0
 26
0.0
 36
0.0
 17
0.0
 27
1.0
 37
0.0
 76
     0
330
70
  0
MATERIAL
  5
19
102
{ACAD_XDICTIONARY
360
1A
102
}
102
{ACAD_REACTORS
330
10
102
}
330
10
100
AcDbMaterial
  1
ByBlock
 72
     0
 43
0.0208333333333333
 43
0.0
 43
0.0
 43
0.0
 43
0.0
 43
0.0208333333333333
 43
0.0
 43
0.0
 43
0.0
 43
0.0
 43
1.0
 43
0.0
 43
0.0
 43
0.0
 43
0.0
 43
1.0
 77
     0
 47
0.0208333333333333
 47
0.0
 47
0.0
 47
0.0
 47
0.0
 47
0.0208333333333333
 47
0.0
 47
0.0
 47
0.0
 47
0.0
 47
1.0
 47
0.0
 47
0.0
 47
0.0
 47
0.0
 47
1.0
171
     0
 49
0.0208333333333333
 49
0.0
 49
0.0
 49
0.0
 49
0.0
 49
0.0208333333333333
 49
0.0
 49
0.0
 49
0.0
 49
0.0
 49
1.0
 49
0.0
 49
0.0
 49
0.0
 49
0.0
 49
1.0
175
     0
142
0.0208333333333333
142
0.0
142
0.0
142
0.0
142
0.0
142
0.0208333333333333
142
0.0
142
0.0
142
0.0
142
0.0
142
1.0
142
0.0
142
0.0
142
0.0
142
0.0
142
1.0
179
     0
144
0.0208333333333333
144
0.0
144
0.0
144
0.0
144
0.0
144
0.0208333333333333
144
0.0
144
0.0
144
0.0
144
0.0
144
1.0
144
0.0
144
0.0
144
0.0
144
0.0
144
1.0
147
0.0208333333333333
147
0.0
147
0.0
147
0.0
147
0.0
147
0.0208333333333333
147
0.0
147
0.0
147
0.0
147
0.0
147
1.0
147
0.0
147
0.0
147
0.0
147
0.0
147
1.0
  0
MATERIAL
  5
11
102
{ACAD_XDICTIONARY
360
12
102
}
102
{ACAD_REACTORS
330
10
102
}
330
10
100
AcDbMaterial
  1
ByLayer
 72
     0
 43
0.0208333333333333
 43
0.0
 43
0.0
 43
0.0
 43
0.0
 43
0.0208333333333333
 43
0.0
 43
0.0
 43
0.0
 43
0.0
 43
1.0
 43
0.0
 43
0.0
 43
0.0
 43
0.0
 43
1.0
 77
     0
 47
0.0208333333333333
 47
0.0
 47
0.0
 47
0.0
 47
0.0
 47
0.0208333333333333
 47
0.0
 47
0.0
 47
0.0
 47
0.0
 47
1.0
 47
0.0
 47
0.0
 47
0.0
 47
0.0
 47
1.0
171
     0
 49
0.0208333333333333
 49
0.0
 49
0.0
 49
0.0
 49
0.0
 49
0.0208333333333333
 49
0.0
 49
0.0
 49
0.0
 49
0.0
 49
1.0
 49
0.0
 49
0.0
 49
0.0
 49
0.0
 49
1.0
175
     0
142
0.0208333333333333
142
0.0
142
0.0
142
0.0
142
0.0
142
0.0208333333333333
142
0.0
142
0.0
142
0.0
142
0.0
142
1.0
142
0.0
142
0.0
142
0.0
142
0.0
142
1.0
179
     0
144
0.0208333333333333
144
0.0
144
0.0
144
0.0
144
0.0
144
0.0208333333333333
144
0.0
144
0.0
144
0.0
144
0.0
144
1.0
144
0.0
144
0.0
144
0.0
144
0.0
144
1.0
147
0.0208333333333333
147
0.0
147
0.0
147
0.0
147
0.0
147
0.0208333333333333
147
0.0
147
0.0
147
0.0
147
0.0
147
1.0
147
0.0
147
0.0
147
0.0
147
0.0
147
1.0
  0
MATERIAL
  5
21
102
{ACAD_XDICTIONARY
360
22
102
}
102
{ACAD_REACTORS
330
10
102
}
330
10
100
AcDbMaterial
  1
Global
 72
     0
 43
0.0208333333333333
 43
0.0
 43
0.0
 43
0.0
 43
0.0
 43
0.0208333333333333
 43
0.0
 43
0.0
 43
0.0
 43
0.0
 43
1.0
 43
0.0
 43
0.0
 43
0.0
 43
0.0
 43
1.0
 77
     0
 47
0.0208333333333333
 47
0.0
 47
0.0
 47
0.0
 47
0.0
 47
0.0208333333333333
 47
0.0
 47
0.0
 47
0.0
 47
0.0
 47
1.0
 47
0.0
 47
0.0
 47
0.0
 47
0.0
 47
1.0
171
     0
 49
0.0208333333333333
 49
0.0
 49
0.0
 49
0.0
 49
0.0
 49
0.0208333333333333
 49
0.0
 49
0.0
 49
0.0
 49
0.0
 49
1.0
 49
0.0
 49
0.0
 49
0.0
 49
0.0
 49
1.0
175
     0
142
0.0208333333333333
142
0.0
142
0.0
142
0.0
142
0.0
142
0.0208333333333333
142
0.0
142
0.0
142
0.0
142
0.0
142
1.0
142
0.0
142
0.0
142
0.0
142
0.0
142
1.0
179
     0
144
0.0208333333333333
144
0.0
144
0.0
144
0.0
144
0.0
144
0.0208333333333333
144
0.0
144
0.0
144
0.0
144
0.0
144
1.0
144
0.0
144
0.0
144
0.0
144
0.0
144
1.0
147
0.0208333333333333
147
0.0
147
0.0
147
0.0
147
0.0
147
0.0208333333333333
147
0.0
147
0.0
147
0.0
147
0.0
147
1.0
147
0.0
147
0.0
147
0.0
147
0.0
147
1.0
  0
MLEADERSTYLE
  5
67
102
{ACAD_REACTORS
330
66
102
}
330
66
100
AcDbMLeaderStyle
179
     2
170
     2
171
     1
172
     0
 90
        2
 40
0.0
 41
0.0
173
     1
 91
-1056964608
340
5B
 92
       -2
290
     1
 42
0.09
291
     1
 43
0.36
  3
Standard
 44
0.18
300

342
55
174
     1
178
     6
175
     1
176
     0
 93
-1056964608
 45
0.18
292
     0
297
     0
 46
0.18
 94
-1056964608
 47
1.0
 49
1.0
140
1.0
293
     1
141
0.0
294
     1
177
     0
142
1.0
295
     1
296
     0
143
0.125
271
     0
272
     9
273
     9
298
     1
  0
MLINESTYLE
  5
60
102
{ACAD_REACTORS
330
5F
102
}
330
5F
100
AcDbMlineStyle
  2
STANDARD
 70
     0
  3

 62
   256
 51
90.0
 52
90.0
 71
     2
 49
0.5
 62
   256
  6
BYLAYER
 49
-0.5
 62
   256
  6
BYLAYER
  0
ACDBPLACEHOLDER
  5
F
102
{ACAD_REACTORS
330
E
102
}
330
E
  0
SCALE
  5
43
102
{ACAD_REACTORS
330
42
102
}
330
42
100
AcDbScale
 70
     0
300
1:1
140
1.0
141
1.0
290
     1
  0
SCALE
  5
44
102
{ACAD_REACTORS
330
42
102
}
330
42
100
AcDbScale
 70
     0
300
1/128" = 1'-0"
140
0.0078125
141
12.0
290
     0
  0
SCALE
  5
45
102
{ACAD_REACTORS
330
42
102
}
330
42
100
AcDbScale
 70
     0
300
1/64" = 1'-0"
140
0.015625
141
12.0
290
     0
  0
SCALE
  5
46
102
{ACAD_REACTORS
330
42
102
}
330
42
100
AcDbScale
 70
     0
300
1/32" = 1'-0"
140
0.03125
141
12.0
290
     0
  0
SCALE
  5
47
102
{ACAD_REACTORS
330
42
102
}
330
42
100
AcDbScale
 70
     0
300
1/16" = 1'-0"
140
0.0625
141
12.0
290
     0
  0
SCALE
  5
48
102
{ACAD_REACTORS
330
42
102
}
330
42
100
AcDbScale
 70
     0
300
3/32" = 1'-0"
140
0.09375
141
12.0
290
     0
  0
SCALE
  5
49
102
{ACAD_REACTORS
330
42
102
}
330
42
100
AcDbScale
 70
     0
300
1/8" = 1'-0"
140
0.125
141
12.0
290
     0
  0
SCALE
  5
4A
102
{ACAD_REACTORS
330
42
102
}
330
42
100
AcDbScale
 70
     0
300
3/16" = 1'-0"
140
0.1875
141
12.0
290
     0
  0
SCALE
  5
4B
102
{ACAD_REACTORS
330
42
102
}
330
42
100
AcDbScale
 70
     0
300
1/4" = 1'-0"
140
0.25
141
12.0
290
     0
  0
SCALE
  5
4C
102
{ACAD_REACTORS
330
42
102
}
330
42
100
AcDbScale
 70
     0
300
3/8" = 1'-0"
140
0.375
141
12.0
290
     0
  0
SCALE
  5
4D
102
{ACAD_REACTORS
330
42
102
}
330
42
100
AcDbScale
 70
     0
300
1/2" = 1'-0"
140
0.5
141
12.0
290
     0
  0
SCALE
  5
4E
102
{ACAD_REACTORS
330
42
102
}
330
42
100
AcDbScale
 70
     0
300
3/4" = 1'-0"
140
0.75
141
12.0
290
     0
  0
SCALE
  5
4F
102
{ACAD_REACTORS
330
42
102
}
330
42
100
AcDbScale
 70
     0
300
1" = 1'-0"
140
1.0
141
12.0
290
     0
  0
SCALE
  5
50
102
{ACAD_REACTORS
330
42
102
}
330
42
100
AcDbScale
 70
     0
300
1-1/2" = 1'-0"
140
1.5
141
12.0
290
     0
  0
SCALE
  5
51
102
{ACAD_REACTORS
330
42
102
}
330
42
100
AcDbScale
 70
     0
300
3" = 1'-0"
140
3.0
141
12.0
290
     0
  0
SCALE
  5
52
102
{ACAD_REACTORS
330
42
102
}
330
42
100
AcDbScale
 70
     0
300
6" = 1'-0"
140
6.0
141
12.0
290
     0
  0
SCALE
  5
53
102
{ACAD_REACTORS
330
42
102
}
330
42
100
AcDbScale
 70
     0
300
1'-0" = 1'-0"
140
12.0
141
12.0
290
     0
  0
ACDBSECTIONVIEWSTYLE
  5
69
102
{ACAD_REACTORS
330
68
102
}
330
68
100
AcDbModelDocViewStyle
 70
     0
  3
Imperial24
290
     1
300
Imperial24
 90
        0
100
AcDbSectionViewStyle
 70
     0
 71
     0
 90
       78
 71
     1
340
55
 62
   256
 40
0.24
340
0
340
0
 62
   256
 40
0.24
300
I, O, Q, S, X, Z
 40
0.48
 90
        3
 40
0.18
 90
        1
 71
     2
340
5D
 90
       25
 62
   256
340
5D
 90
       50
 62
   256
 40
0.24
 40
0.0
 40
0.24
 71
     3
340
55
 62
   256
 40
0.24
 90
        1
 40
0.75
 90
        1
300
%<\AcVar ViewType \f "%tc1">% %<\AcVar ViewSectionStartId>%-%<\AcVar ViewSectionEndId>%\PSCALE %<\AcVar ViewScale \f "%sn">%
 71
     4
 62
   256
 62
   257
300
ANSI31
 40
1.0
 90
        0
290
     0
290
     0
 90
        6
 40
0.0
 40
1.570796326794896
 40
0.2617993877991494
 40
1.308996938995747
 40
-0.2617993877991494
 40
1.832595714594046
  0
TABLESTYLE
  5
65
102
{ACAD_XDICTIONARY
360
124
102
}
102
{ACAD_REACTORS
330
64
102
}
330
64
100
AcDbTableStyle
280
     0
  3
Standard
 70
     0
 71
     0
 40
0.06
 41
0.06
280
     0
281
     0
  7
Standard
140
0.18
170
     2
 62
     0
 63
     7
283
     0
 90
      512
 91
        0
  1

274
    -2
284
     1
 64
     0
275
    -2
285
     1
 65
     0
276
    -2
286
     1
 66
     0
277
    -2
287
     1
 67
     0
278
    -2
288
     1
 68
     0
279
    -2
289
     1
 69
     0
  7
Standard
140
0.25
170
     5
 62
     0
 63
     7
283
     0
 90
      512
 91
        0
  1

274
    -2
284
     1
 64
     0
275
    -2
285
     1
 65
     0
276
    -2
286
     1
 66
     0
277
    -2
287
     1
 67
     0
278
    -2
288
     1
 68
     0
279
    -2
289
     1
 69
     0
  7
Standard
140
0.18
170
     5
 62
     0
 63
     7
283
     0
 90
      512
 91
        0
  1

274
    -2
284
     1
 64
     0
275
    -2
285
     1
 65
     0
276
    -2
286
     1
 66
     0
277
    -2
287
     1
 67
     0
278
    -2
288
     1
 68
     0
279
    -2
289
     1
 69
     0
  0
VISUALSTYLE
  5
2F
102
{ACAD_REACTORS
330
29
102
}
330
29
100
AcDbVisualStyle
  2
2dWireframe
 70
     4
177
     3
291
     0
 70
    58
 90
        0
176
     1
 90
        2
176
     1
 90
        0
176
     1
 90
        0
176
     1
 40
0.6
176
     1
 40
30.0
176
     1
 62
     7
420
 16777215
176
     1
 90
        1
176
     1
 90
        4
176
     1
 62
     7
176
     1
 62
   257
176
     1
 90
        1
176
     1
 90
        1
176
     1
 40
1.0
176
     1
 90
        0
176
     1
 62
   257
176
     1
 40
1.0
176
     1
 90
        1
176
     1
 90
        6
176
     1
 90
        2
176
     1
 62
     7
176
     1
 90
        5
176
     1
 90
        0
176
     1
 90
        0
176
     1
290
     0
176
     1
 90
        1
176
     1
 40
0.0
176
     1
 90
        0
176
     1
290
     1
176
     1
290
     1
176
     1
290
     0
176
     1
290
     0
176
     1
290
     0
176
     1
290
     0
176
     1
290
     0
176
     1
290
     0
176
     1
290
     0
176
     1
 90
       50
176
     1
 40
0.0
176
     1
 40
1.0
176
     1
 90
        0
176
     1
 62
    18
420
        0
176
     1
 90
       50
176
     1
 90
        3
176
     1
 62
     5
420
      255
176
     1
290
     0
176
     1
 90
       50
176
     1
 90
       50
176
     1
 90
       50
176
     1
290
     0
176
     1
 90
       50
176
     1
 62
   256
176
     0
 40
1.0
176
     0
 90
        2
176
     1
  1
strokes_ogs.tif
176
     1
290
     0
176
     1
 40
1.0
176
     1
 40
1.0
176
     1
  0
VISUALSTYLE
  5
2E
102
{ACAD_REACTORS
330
29
102
}
330
29
100
AcDbVisualStyle
  2
Basic
 70
     7
177
     3
291
     1
 70
    58
 90
        1
176
     1
 90
        0
176
     1
 90
        1
176
     1
 90
        0
176
     1
 40
0.6
176
     1
 40
30.0
176
     1
 62
     7
420
 16777215
176
     1
 90
        0
176
     1
 90
        4
176
     1
 62
     7
176
     1
 62
   257
176
     1
 90
        1
176
     1
 90
        1
176
     1
 40
1.0
176
     1
 90
        8
176
     1
 62
     7
176
     1
 40
1.0
176
     1
 90
        1
176
     1
 90
        6
176
     1
 90
        2
176
     1
 62
     7
176
     1
 90
        5
176
     1
 90
        0
176
     1
 90
        0
176
     1
290
     0
176
     1
 90
        1
176
     1
 40
0.0
176
     1
 90
        0
176
     1
290
     0
176
     1
290
     1
176
     1
290
     1
176
     1
290
     0
176
     1
290
     0
176
     1
290
     0
176
     1
290
     0
176
     1
290
     0
176
     1
290
     0
176
     1
 90
       50
176
     1
 40
0.0
176
     1
 40
1.0
176
     1
 90
        0
176
     1
 62
    18
420
        0
176
     1
 90
       50
176
     1
 90
        3
176
     1
 62
     5
420
      255
176
     1
290
     0
176
     1
 90
       50
176
     1
 90
       50
176
     1
 90
       50
176
     1
290
     0
176
     1
 90
       50
176
     1
 62
   256
176
     0
 40
1.0
176
     0
 90
        2
176
     1
  1
strokes_ogs.tif
176
     1
290
     0
176
     1
 40
1.0
176
     1
 40
1.0
176
     1
  0
VISUALSTYLE
  5
35
102
{ACAD_REACTORS
330
29
102
}
330
29
100
AcDbVisualStyle
  2
Brighten
 70
    12
177
     3
291
     1
 70
    58
 90
        2
176
     1
 90
        2
176
     1
 90
        0
176
     1
 90
        0
176
     1
 40
0.6
176
     1
 40
30.0
176
     1
 62
     7
420
 16777215
176
     1
 90
        1
176
     1
 90
        4
176
     1
 62
     7
176
     1
 62
   257
176
     1
 90
        1
176
     1
 90
        1
176
     1
 40
1.0
176
     1
 90
        8
176
     1
 62
     7
176
     1
 40
1.0
176
     1
 90
        1
176
     1
 90
        6
176
     1
 90
        2
176
     1
 62
     7
176
     1
 90
        5
176
     1
 90
        0
176
     1
 90
        0
176
     1
290
     0
176
     1
 90
        1
176
     1
 40
50.0
176
     1
 90
        0
176
     1
290
     0
176
     1
290
     1
176
     1
290
     1
176
     1
290
     0
176
     1
290
     0
176
     1
290
     0
176
     1
290
     0
176
     1
290
     0
176
     1
290
     0
176
     1
 90
       50
176
     1
 40
0.0
176
     1
 40
1.0
176
     1
 90
        0
176
     1
 62
    18
420
        0
176
     1
 90
       50
176
     1
 90
        3
176
     1
 62
     5
420
      255
176
     1
290
     0
176
     1
 90
       50
176
     1
 90
       50
176
     1
 90
       50
176
     1
290
     0
176
     1
 90
       50
176
     1
 62
   256
176
     0
 40
1.0
176
     0
 90
        2
176
     1
  1
strokes_ogs.tif
176
     1
290
     0
176
     1
 40
1.0
176
     1
 40
1.0
176
     1
  0
VISUALSTYLE
  5
39
102
{ACAD_REACTORS
330
29
102
}
330
29
100
AcDbVisualStyle
  2
ColorChange
 70
    16
177
     3
291
     1
 70
    58
 90
        2
176
     1
 90
        2
176
     1
 90
        3
176
     1
 90
        0
176
     1
 40
0.6
176
     1
 40
30.0
176
     1
 62
     8
420
  8421504
176
     1
 90
        1
176
     1
 90
        4
176
     1
 62
     7
176
     1
 62
   257
176
     1
 90
        1
176
     1
 90
        1
176
     1
 40
1.0
176
     1
 90
        8
176
     1
 62
     8
420
  8421504
176
     1
 40
1.0
176
     1
 90
        1
176
     1
 90
        6
176
     1
 90
        2
176
     1
 62
     7
176
     1
 90
        5
176
     1
 90
        0
176
     1
 90
        0
176
     1
290
     0
176
     1
 90
        1
176
     1
 40
0.0
176
     1
 90
        0
176
     1
290
     0
176
     1
290
     1
176
     1
290
     1
176
     1
290
     0
176
     1
290
     0
176
     1
290
     0
176
     1
290
     0
176
     1
290
     0
176
     1
290
     0
176
     1
 90
       50
176
     1
 40
0.0
176
     1
 40
1.0
176
     1
 90
        0
176
     1
 62
    18
420
        0
176
     1
 90
       50
176
     1
 90
        3
176
     1
 62
     5
420
      255
176
     1
290
     0
176
     1
 90
       50
176
     1
 90
       50
176
     1
 90
       50
176
     1
290
     0
176
     1
 90
       50
176
     1
 62
   256
176
     0
 40
1.0
176
     0
 90
        2
176
     1
  1
strokes_ogs.tif
176
     1
290
     0
176
     1
 40
1.0
176
     1
 40
1.0
176
     1
  0
VISUALSTYLE
  5
32
102
{ACAD_REACTORS
330
29
102
}
330
29
100
AcDbVisualStyle
  2
Conceptual
 70
     9
177
     3
291
     0
 70
    58
 90
        3
176
     1
 90
        2
176
     1
 90
        0
176
     1
 90
        0
176
     1
 40
0.6
176
     1
 40
30.0
176
     1
 62
     7
420
 16777215
176
     1
 90
        2
176
     1
 90
        2
176
     1
 62
     7
176
     1
 62
   257
176
     1
 90
        1
176
     1
 90
        1
176
     1
 40
179.0
176
     1
 90
        8
176
     1
 62
     7
176
     1
 40
1.0
176
     1
 90
        1
176
     1
 90
        6
176
     1
 90
        2
176
     1
 62
     7
176
     1
 90
        3
176
     1
 90
        0
176
     1
 90
        0
176
     1
290
     0
176
     1
 90
        1
176
     1
 40
0.0
176
     1
 90
        0
176
     1
290
     0
176
     1
290
     1
176
     1
290
     1
176
     1
290
     0
176
     1
290
     0
176
     1
290
     0
176
     1
290
     0
176
     1
290
     0
176
     1
290
     0
176
     1
 90
       50
176
     1
 40
0.0
176
     1
 40
1.0
176
     1
 90
        0
176
     1
 62
    18
420
        0
176
     1
 90
       50
176
     1
 90
        3
176
     1
 62
     5
420
      255
176
     1
290
     0
176
     1
 90
       50
176
     1
 90
       50
176
     1
 90
       50
176
     1
290
     0
176
     1
 90
       50
176
     1
 62
   256
176
     0
 40
1.0
176
     0
 90
        2
176
     1
  1
strokes_ogs.tif
176
     1
290
     0
176
     1
 40
1.0
176
     1
 40
1.0
176
     1
  0
VISUALSTYLE
  5
34
102
{ACAD_REACTORS
330
29
102
}
330
29
100
AcDbVisualStyle
  2
Dim
 70
    11
177
     3
291
     1
 70
    58
 90
        2
176
     1
 90
        2
176
     1
 90
        0
176
     1
 90
        0
176
     1
 40
0.6
176
     1
 40
30.0
176
     1
 62
     7
420
 16777215
176
     1
 90
        1
176
     1
 90
        4
176
     1
 62
     7
176
     1
 62
   257
176
     1
 90
        1
176
     1
 90
        1
176
     1
 40
1.0
176
     1
 90
        8
176
     1
 62
     7
176
     1
 40
1.0
176
     1
 90
        1
176
     1
 90
        6
176
     1
 90
        2
176
     1
 62
     7
176
     1
 90
        5
176
     1
 90
        0
176
     1
 90
        0
176
     1
290
     0
176
     1
 90
        1
176
     1
 40
-50.0
176
     1
 90
        0
176
     1
290
     0
176
     1
290
     1
176
     1
290
     1
176
     1
290
     0
176
     1
290
     0
176
     1
290
     0
176
     1
290
     0
176
     1
290
     0
176
     1
290
     0
176
     1
 90
       50
176
     1
 40
0.0
176
     1
 40
1.0
176
     1
 90
        0
176
     1
 62
    18
420
        0
176
     1
 90
       50
176
     1
 90
        3
176
     1
 62
     5
420
      255
176
     1
290
     0
176
     1
 90
       50
176
     1
 90
       50
176
     1
 90
       50
176
     1
290
     0
176
     1
 90
       50
176
     1
 62
   256
176
     0
 40
1.0
176
     0
 90
        2
176
     1
  1
strokes_ogs.tif
176
     1
290
     0
176
     1
 40
1.0
176
     1
 40
1.0
176
     1
  0
VISUALSTYLE
  5
41
102
{ACAD_REACTORS
330
29
102
}
330
29
100
AcDbVisualStyle
  2
EdgeColorOff
 70
    22
177
     3
291
     1
 70
    58
 90
        2
176
     0
 90
        2
176
     0
 90
        0
176
     0
 90
        0
176
     0
 40
0.6
176
     0
 40
30.0
176
     0
 62
     7
420
 16777215
176
     0
 90
        1
176
     0
 90
        4
176
     0
 62
     7
176
     0
 62
   257
176
     0
 90
        1
176
     0
 90
        1
176
     0
 40
1.0
176
     0
 90
        8
176
     2
 62
     7
176
     0
 40
1.0
176
     0
 90
        1
176
     0
 90
        6
176
     0
 90
        2
176
     0
 62
     7
176
     0
 90
        5
176
     0
 90
        0
176
     0
 90
        0
176
     0
290
     0
176
     0
 90
        1
176
     0
 40
0.0
176
     0
 90
        0
176
     0
290
     0
176
     0
290
     1
176
     0
290
     1
176
     0
290
     0
176
     0
290
     0
176
     0
290
     0
176
     0
290
     0
176
     0
290
     0
176
     0
290
     0
176
     0
 90
       50
176
     0
 40
0.0
176
     0
 40
1.0
176
     0
 90
        0
176
     0
 62
    18
420
        0
176
     0
 90
       50
176
     0
 90
        3
176
     0
 62
     5
420
      255
176
     0
290
     0
176
     0
 90
       50
176
     0
 90
       50
176
     0
 90
       50
176
     0
290
     0
176
     0
 90
       50
176
     0
 62
   256
176
     0
 40
1.0
176
     0
 90
        2
176
     0
  1
strokes_ogs.tif
176
     0
290
     0
176
     0
 40
1.0
176
     0
 40
1.0
176
     0
  0
VISUALSTYLE
  5
38
102
{ACAD_REACTORS
330
29
102
}
330
29
100
AcDbVisualStyle
  2
Facepattern
 70
    15
177
     3
291
     1
 70
    58
 90
        2
176
     1
 90
        2
176
     1
 90
        0
176
     1
 90
        0
176
     1
 40
0.6
176
     1
 40
30.0
176
     1
 62
     7
420
 16777215
176
     1
 90
        1
176
     1
 90
        4
176
     1
 62
     7
176
     1
 62
   257
176
     1
 90
        1
176
     1
 90
        1
176
     1
 40
1.0
176
     1
 90
        8
176
     1
 62
     7
176
     1
 40
1.0
176
     1
 90
        1
176
     1
 90
        6
176
     1
 90
        2
176
     1
 62
     7
176
     1
 90
        5
176
     1
 90
        0
176
     1
 90
        0
176
     1
290
     0
176
     1
 90
        1
176
     1
 40
0.0
176
     1
 90
        0
176
     1
290
     0
176
     1
290
     1
176
     1
290
     1
176
     1
290
     0
176
     1
290
     0
176
     1
290
     0
176
     1
290
     0
176
     1
290
     0
176
     1
290
     0
176
     1
 90
       50
176
     1
 40
0.0
176
     1
 40
1.0
176
     1
 90
        0
176
     1
 62
    18
420
        0
176
     1
 90
       50
176
     1
 90
        3
176
     1
 62
     5
420
      255
176
     1
290
     0
176
     1
 90
       50
176
     1
 90
       50
176
     1
 90
       50
176
     1
290
     0
176
     1
 90
       50
176
     1
 62
   256
176
     0
 40
1.0
176
     0
 90
        2
176
     1
  1
strokes_ogs.tif
176
     1
290
     0
176
     1
 40
1.0
176
     1
 40
1.0
176
     1
  0
VISUALSTYLE
  5
2A
102
{ACAD_REACTORS
330
29
102
}
330
29
100
AcDbVisualStyle
  2
Flat
 70
     0
177
     3
291
     1
 70
    58
 90
        2
176
     1
 90
        1
176
     1
 90
        1
176
     1
 90
        2
176
     1
 40
0.6
176
     1
 40
30.0
176
     1
 62
     7
420
 16777215
176
     1
 90
        0
176
     1
 90
        0
176
     1
 62
     7
176
     1
 62
   257
176
     1
 90
        1
176
     1
 90
        1
176
     1
 40
1.0
176
     1
 90
        8
176
     1
 62
     7
176
     1
 40
1.0
176
     1
 90
        1
176
     1
 90
        6
176
     1
 90
        2
176
     1
 62
     7
176
     1
 90
        5
176
     1
 90
        0
176
     1
 90
        0
176
     1
290
     0
176
     1
 90
       13
176
     1
 40
0.0
176
     1
 90
        0
176
     1
290
     0
176
     1
290
     1
176
     1
290
     1
176
     1
290
     0
176
     1
290
     0
176
     1
290
     0
176
     1
290
     0
176
     1
290
     0
176
     1
290
     0
176
     1
 90
       50
176
     1
 40
0.0
176
     1
 40
1.0
176
     1
 90
        0
176
     1
 62
    18
420
        0
176
     1
 90
       50
176
     1
 90
        3
176
     1
 62
     5
420
      255
176
     1
290
     0
176
     1
 90
       50
176
     1
 90
       50
176
     1
 90
       50
176
     1
290
     0
176
     1
 90
       50
176
     1
 62
   256
176
     0
 40
1.0
176
     0
 90
        2
176
     1
  1
strokes_ogs.tif
176
     1
290
     0
176
     1
 40
1.0
176
     1
 40
1.0
176
     1
  0
VISUALSTYLE
  5
2B
102
{ACAD_REACTORS
330
29
102
}
330
29
100
AcDbVisualStyle
  2
FlatWithEdges
 70
     1
177
     3
291
     1
 70
    58
 90
        2
176
     1
 90
        1
176
     1
 90
        1
176
     1
 90
        2
176
     1
 40
0.6
176
     1
 40
30.0
176
     1
 62
     7
420
 16777215
176
     1
 90
        1
176
     1
 90
        0
176
     1
 62
     7
176
     1
 62
   257
176
     1
 90
        1
176
     1
 90
        1
176
     1
 40
1.0
176
     1
 90
        0
176
     1
 62
   257
176
     1
 40
1.0
176
     1
 90
        1
176
     1
 90
        6
176
     1
 90
        2
176
     1
 62
     7
176
     1
 90
        5
176
     1
 90
        0
176
     1
 90
        0
176
     1
290
     0
176
     1
 90
       13
176
     1
 40
0.0
176
     1
 90
        0
176
     1
290
     0
176
     1
290
     1
176
     1
290
     1
176
     1
290
     0
176
     1
290
     0
176
     1
290
     0
176
     1
290
     0
176
     1
290
     0
176
     1
290
     0
176
     1
 90
       50
176
     1
 40
0.0
176
     1
 40
1.0
176
     1
 90
        0
176
     1
 62
    18
420
        0
176
     1
 90
       50
176
     1
 90
        3
176
     1
 62
     5
420
      255
176
     1
290
     0
176
     1
 90
       50
176
     1
 90
       50
176
     1
 90
       50
176
     1
290
     0
176
     1
 90
       50
176
     1
 62
   256
176
     0
 40
1.0
176
     0
 90
        2
176
     1
  1
strokes_ogs.tif
176
     1
290
     0
176
     1
 40
1.0
176
     1
 40
1.0
176
     1
  0
VISUALSTYLE
  5
2C
102
{ACAD_REACTORS
330
29
102
}
330
29
100
AcDbVisualStyle
  2
Gouraud
 70
     2
177
     3
291
     1
 70
    58
 90
        2
176
     1
 90
        2
176
     1
 90
        1
176
     1
 90
        2
176
     1
 40
0.6
176
     1
 40
30.0
176
     1
 62
     7
420
 16777215
176
     1
 90
        0
176
     1
 90
        0
176
     1
 62
     7
176
     1
 62
   257
176
     1
 90
        1
176
     1
 90
        1
176
     1
 40
1.0
176
     1
 90
        0
176
     1
 62
     7
176
     1
 40
1.0
176
     1
 90
        1
176
     1
 90
        6
176
     1
 90
        2
176
     1
 62
     7
176
     1
 90
        5
176
     1
 90
        0
176
     1
 90
        0
176
     1
290
     0
176
     1
 90
       13
176
     1
 40
0.0
176
     1
 90
        0
176
     1
290
     0
176
     1
290
     1
176
     1
290
     1
176
     1
290
     0
176
     1
290
     0
176
     1
290
     0
176
     1
290
     0
176
     1
290
     0
176
     1
290
     0
176
     1
 90
       50
176
     1
 40
0.0
176
     1
 40
1.0
176
     1
 90
        0
176
     1
 62
    18
420
        0
176
     1
 90
       50
176
     1
 90
        3
176
     1
 62
     5
420
      255
176
     1
290
     0
176
     1
 90
       50
176
     1
 90
       50
176
     1
 90
       50
176
     1
290
     0
176
     1
 90
       50
176
     1
 62
   256
176
     0
 40
1.0
176
     0
 90
        2
176
     1
  1
strokes_ogs.tif
176
     1
290
     0
176
     1
 40
1.0
176
     1
 40
1.0
176
     1
  0
VISUALSTYLE
  5
2D
102
{ACAD_REACTORS
330
29
102
}
330
29
100
AcDbVisualStyle
  2
GouraudWithEdges
 70
     3
177
     3
291
     1
 70
    58
 90
        2
176
     1
 90
        2
176
     1
 90
        1
176
     1
 90
        2
176
     1
 40
0.6
176
     1
 40
30.0
176
     1
 62
     7
420
 16777215
176
     1
 90
        1
176
     1
 90
        0
176
     1
 62
     7
176
     1
 62
   257
176
     1
 90
        1
176
     1
 90
        1
176
     1
 40
1.0
176
     1
 90
        0
176
     1
 62
   257
176
     1
 40
1.0
176
     1
 90
        1
176
     1
 90
        6
176
     1
 90
        2
176
     1
 62
     7
176
     1
 90
        5
176
     1
 90
        0
176
     1
 90
        0
176
     1
290
     0
176
     1
 90
       13
176
     1
 40
0.0
176
     1
 90
        0
176
     1
290
     0
176
     1
290
     1
176
     1
290
     1
176
     1
290
     0
176
     1
290
     0
176
     1
290
     0
176
     1
290
     0
176
     1
290
     0
176
     1
290
     0
176
     1
 90
       50
176
     1
 40
0.0
176
     1
 40
1.0
176
     1
 90
        0
176
     1
 62
    18
420
        0
176
     1
 90
       50
176
     1
 90
        3
176
     1
 62
     5
420
      255
176
     1
290
     0
176
     1
 90
       50
176
     1
 90
       50
176
     1
 90
       50
176
     1
290
     0
176
     1
 90
       50
176
     1
 62
   256
176
     0
 40
1.0
176
     0
 90
        2
176
     1
  1
strokes_ogs.tif
176
     1
290
     0
176
     1
 40
1.0
176
     1
 40
1.0
176
     1
  0
VISUALSTYLE
  5
31
102
{ACAD_REACTORS
330
29
102
}
330
29
100
AcDbVisualStyle
  2
Hidden
 70
     6
177
     3
291
     0
 70
    58
 90
        1
176
     1
 90
        2
176
     1
 90
        2
176
     1
 90
        0
176
     1
 40
0.6
176
     1
 40
30.0
176
     1
 62
     7
420
 16777215
176
     1
 90
        2
176
     1
 90
        2
176
     1
 62
     7
176
     1
 62
   257
176
     1
 90
        2
176
     1
 90
        1
176
     1
 40
40.0
176
     1
 90
        0
176
     1
 62
   257
176
     1
 40
1.0
176
     1
 90
        1
176
     1
 90
        6
176
     1
 90
        2
176
     1
 62
     7
176
     1
 90
        3
176
     1
 90
        0
176
     1
 90
        0
176
     1
290
     0
176
     1
 90
        1
176
     1
 40
0.0
176
     1
 90
        0
176
     1
290
     0
176
     1
290
     1
176
     1
290
     1
176
     1
290
     0
176
     1
290
     0
176
     1
290
     0
176
     1
290
     0
176
     1
290
     0
176
     1
290
     0
176
     1
 90
       50
176
     1
 40
0.0
176
     1
 40
1.0
176
     1
 90
        0
176
     1
 62
    18
420
        0
176
     1
 90
       50
176
     1
 90
        3
176
     1
 62
     5
420
      255
176
     1
290
     0
176
     1
 90
       50
176
     1
 90
       50
176
     1
 90
       50
176
     1
290
     0
176
     1
 90
       50
176
     1
 62
   256
176
     0
 40
1.0
176
     0
 90
        2
176
     1
  1
strokes_ogs.tif
176
     1
290
     0
176
     1
 40
1.0
176
     1
 40
1.0
176
     1
  0
VISUALSTYLE
  5
3F
102
{ACAD_REACTORS
330
29
102
}
330
29
100
AcDbVisualStyle
  2
JitterOff
 70
    20
177
     3
291
     1
 70
    58
 90
        2
176
     0
 90
        2
176
     0
 90
        0
176
     0
 90
        0
176
     0
 40
0.6
176
     0
 40
30.0
176
     0
 62
     7
420
 16777215
176
     0
 90
        1
176
     0
 90
        4
176
     0
 62
     7
176
     0
 62
   257
176
     0
 90
        1
176
     0
 90
        1
176
     0
 40
1.0
176
     0
 90
       10
176
     2
 62
     7
176
     0
 40
1.0
176
     0
 90
        1
176
     0
 90
        6
176
     0
 90
        2
176
     0
 62
     7
176
     0
 90
        5
176
     0
 90
        0
176
     0
 90
        0
176
     0
290
     0
176
     0
 90
        1
176
     0
 40
0.0
176
     0
 90
        0
176
     0
290
     0
176
     0
290
     1
176
     0
290
     1
176
     0
290
     0
176
     0
290
     0
176
     0
290
     0
176
     0
290
     0
176
     0
290
     0
176
     0
290
     0
176
     0
 90
       50
176
     0
 40
0.0
176
     0
 40
1.0
176
     0
 90
        0
176
     0
 62
    18
420
        0
176
     0
 90
       50
176
     0
 90
        3
176
     0
 62
     5
420
      255
176
     0
290
     0
176
     0
 90
       50
176
     0
 90
       50
176
     0
 90
       50
176
     0
290
     0
176
     0
 90
       50
176
     0
 62
   256
176
     0
 40
1.0
176
     0
 90
        2
176
     0
  1
strokes_ogs.tif
176
     0
290
     0
176
     0
 40
1.0
176
     0
 40
1.0
176
     0
  0
VISUALSTYLE
  5
37
102
{ACAD_REACTORS
330
29
102
}
330
29
100
AcDbVisualStyle
  2
Linepattern
 70
    14
177
     3
291
     1
 70
    58
 90
        2
176
     1
 90
        2
176
     1
 90
        0
176
     1
 90
        0
176
     1
 40
0.6
176
     1
 40
30.0
176
     1
 62
     7
420
 16777215
176
     1
 90
        1
176
     1
 90
        4
176
     1
 62
     7
176
     1
 62
   257
176
     1
 90
        7
176
     1
 90
        7
176
     1
 40
1.0
176
     1
 90
        8
176
     1
 62
     7
176
     1
 40
1.0
176
     1
 90
        1
176
     1
 90
        6
176
     1
 90
        2
176
     1
 62
     7
176
     1
 90
        5
176
     1
 90
        0
176
     1
 90
        0
176
     1
290
     0
176
     1
 90
        1
176
     1
 40
0.0
176
     1
 90
        0
176
     1
290
     0
176
     1
290
     1
176
     1
290
     1
176
     1
290
     0
176
     1
290
     0
176
     1
290
     0
176
     1
290
     0
176
     1
290
     0
176
     1
290
     0
176
     1
 90
       50
176
     1
 40
0.0
176
     1
 40
1.0
176
     1
 90
        0
176
     1
 62
    18
420
        0
176
     1
 90
       50
176
     1
 90
        3
176
     1
 62
     5
420
      255
176
     1
290
     0
176
     1
 90
       50
176
     1
 90
       50
176
     1
 90
       50
176
     1
290
     0
176
     1
 90
       50
176
     1
 62
   256
176
     0
 40
1.0
176
     0
 90
        2
176
     1
  1
strokes_ogs.tif
176
     1
290
     0
176
     1
 40
1.0
176
     1
 40
1.0
176
     1
  0
VISUALSTYLE
  5
40
102
{ACAD_REACTORS
330
29
102
}
330
29
100
AcDbVisualStyle
  2
OverhangOff
 70
    21
177
     3
291
     1
 70
    58
 90
        2
176
     0
 90
        2
176
     0
 90
        0
176
     0
 90
        0
176
     0
 40
0.6
176
     0
 40
30.0
176
     0
 62
     7
420
 16777215
176
     0
 90
        1
176
     0
 90
        4
176
     0
 62
     7
176
     0
 62
   257
176
     0
 90
        1
176
     0
 90
        1
176
     0
 40
1.0
176
     0
 90
        9
176
     2
 62
     7
176
     0
 40
1.0
176
     0
 90
        1
176
     0
 90
        6
176
     0
 90
        2
176
     0
 62
     7
176
     0
 90
        5
176
     0
 90
        0
176
     0
 90
        0
176
     0
290
     0
176
     0
 90
        1
176
     0
 40
0.0
176
     0
 90
        0
176
     0
290
     0
176
     0
290
     1
176
     0
290
     1
176
     0
290
     0
176
     0
290
     0
176
     0
290
     0
176
     0
290
     0
176
     0
290
     0
176
     0
290
     0
176
     0
 90
       50
176
     0
 40
0.0
176
     0
 40
1.0
176
     0
 90
        0
176
     0
 62
    18
420
        0
176
     0
 90
       50
176
     0
 90
        3
176
     0
 62
     5
420
      255
176
     0
290
     0
176
     0
 90
       50
176
     0
 90
       50
176
     0
 90
       50
176
     0
290
     0
176
     0
 90
       50
176
     0
 62
   256
176
     0
 40
1.0
176
     0
 90
        2
176
     0
  1
strokes_ogs.tif
176
     0
290
     0
176
     0
 40
1.0
176
     0
 40
1.0
176
     0
  0
VISUALSTYLE
  5
33
102
{ACAD_REACTORS
330
29
102
}
330
29
100
AcDbVisualStyle
  2
Realistic
 70
     8
177
     3
291
     0
 70
    58
 90
        2
176
     1
 90
        3
176
     1
 90
        0
176
     1
 90
        2
176
     1
 40
0.6
176
     1
 40
30.0
176
     1
 62
     7
420
 16777215
176
     1
 90
        0
176
     1
 90
        0
176
     1
 62
     7
176
     1
 62
   257
176
     1
 90
        1
176
     1
 90
        1
176
     1
 40
1.0
176
     1
 90
        8
176
     1
 62
   257
176
     1
 40
1.0
176
     1
 90
        1
176
     1
 90
        6
176
     1
 90
        2
176
     1
 62
     7
176
     1
 90
        3
176
     1
 90
        0
176
     1
 90
        0
176
     1
290
     0
176
     1
 90
       13
176
     1
 40
0.0
176
     1
 90
        0
176
     1
290
     0
176
     1
290
     1
176
     1
290
     1
176
     1
290
     0
176
     1
290
     0
176
     1
290
     0
176
     1
290
     0
176
     1
290
     0
176
     1
290
     0
176
     1
 90
       50
176
     1
 40
0.0
176
     1
 40
1.0
176
     1
 90
        0
176
     1
 62
    18
420
        0
176
     1
 90
       50
176
     1
 90
        3
176
     1
 62
     5
420
      255
176
     1
290
     0
176
     1
 90
       50
176
     1
 90
       50
176
     1
 90
       50
176
     1
290
     0
176
     1
 90
       50
176
     1
 62
   256
176
     0
 40
1.0
176
     0
 90
        2
176
     1
  1
strokes_ogs.tif
176
     1
290
     0
176
     1
 40
1.0
176
     1
 40
1.0
176
     1
  0
VISUALSTYLE
  5
3E
102
{ACAD_REACTORS
330
29
102
}
330
29
100
AcDbVisualStyle
  2
Shaded
 70
    27
177
     3
291
     0
 70
    58
 90
        2
176
     1
 90
        2
176
     1
 90
        1
176
     1
 90
        2
176
     1
 40
0.6
176
     1
 40
30.0
176
     1
 62
     7
420
 16777215
176
     1
 90
        0
176
     1
 90
        4
176
     1
 62
     7
176
     1
 62
   257
176
     1
 90
        1
176
     1
 90
        1
176
     1
 40
1.0
176
     1
 90
        8
176
     1
 62
   257
176
     1
 40
1.0
176
     1
 90
        1
176
     1
 90
        6
176
     1
 90
        2
176
     1
 62
     8
420
  7895160
176
     1
 90
        3
176
     1
 90
        0
176
     1
 90
        0
176
     1
290
     0
176
     1
 90
        5
176
     1
 40
0.0
176
     1
 90
        0
176
     1
290
     0
176
     1
290
     1
176
     1
290
     1
176
     1
290
     0
176
     1
290
     0
176
     1
290
     0
176
     1
290
     0
176
     1
290
     0
176
     1
290
     0
176
     1
 90
       50
176
     1
 40
0.0
176
     1
 40
1.0
176
     1
 90
        0
176
     1
 62
    18
420
        0
176
     1
 90
       50
176
     1
 90
        3
176
     1
 62
     5
420
      255
176
     1
290
     0
176
     1
 90
       50
176
     1
 90
       50
176
     1
 90
       50
176
     1
290
     0
176
     1
 90
       50
176
     1
 62
   256
176
     0
 40
1.0
176
     0
 90
        2
176
     1
  1
strokes_ogs.tif
176
     1
290
     0
176
     1
 40
1.0
176
     1
 40
1.0
176
     1
  0
VISUALSTYLE
  5
3D
102
{ACAD_REACTORS
330
29
102
}
330
29
100
AcDbVisualStyle
  2
Shaded with edges
 70
    26
177
     3
291
     0
 70
    58
 90
        2
176
     1
 90
        2
176
     1
 90
        1
176
     1
 90
        2
176
     1
 40
0.6
176
     1
 40
30.0
176
     1
 62
     7
420
 16777215
176
     1
 90
        1
176
     1
 90
        2
176
     1
 62
     7
176
     1
 62
   257
176
     1
 90
        2
176
     1
 90
        1
176
     1
 40
1.0
176
     1
 90
        8
176
     1
 62
   257
176
     1
 40
1.0
176
     1
 90
        1
176
     1
 90
        6
176
     1
 90
        2
176
     1
 62
     7
176
     1
 90
        3
176
     1
 90
        0
176
     1
 90
        0
176
     1
290
     0
176
     1
 90
        5
176
     1
 40
0.0
176
     1
 90
        0
176
     1
290
     0
176
     1
290
     1
176
     1
290
     1
176
     1
290
     0
176
     1
290
     0
176
     1
290
     0
176
     1
290
     0
176
     1
290
     0
176
     1
290
     0
176
     1
 90
       50
176
     1
 40
0.0
176
     1
 40
1.0
176
     1
 90
        0
176
     1
 62
    18
420
        0
176
     1
 90
       50
176
     1
 90
        3
176
     1
 62
     5
420
      255
176
     1
290
     0
176
     1
 90
       50
176
     1
 90
       50
176
     1
 90
       50
176
     1
290
     0
176
     1
 90
       50
176
     1
 62
   256
176
     0
 40
1.0
176
     0
 90
        2
176
     1
  1
strokes_ogs.tif
176
     1
290
     0
176
     1
 40
1.0
176
     1
 40
1.0
176
     1
  0
VISUALSTYLE
  5
3A
102
{ACAD_REACTORS
330
29
102
}
330
29
100
AcDbVisualStyle
  2
Shades of Gray
 70
    23
177
     3
291
     0
 70
    58
 90
        2
176
     1
 90
        2
176
     1
 90
        3
176
     1
 90
        0
176
     1
 40
0.6
176
     1
 40
30.0
176
     1
 62
     7
420
 16777215
176
     1
 90
        2
176
     1
 90
        2
176
     1
 62
     7
176
     1
 62
     7
176
     1
 90
        1
176
     1
 90
        1
176
     1
 40
40.0
176
     1
 90
        8
176
     1
 62
     7
176
     1
 40
1.0
176
     1
 90
        1
176
     1
 90
        6
176
     1
 90
        2
176
     1
 62
     7
176
     1
 90
        3
176
     1
 90
        0
176
     1
 90
        0
176
     1
290
     0
176
     1
 90
        1
176
     1
 40
0.0
176
     1
 90
        0
176
     1
290
     0
176
     1
290
     1
176
     1
290
     1
176
     1
290
     0
176
     1
290
     0
176
     1
290
     0
176
     1
290
     0
176
     1
290
     0
176
     1
290
     0
176
     1
 90
       50
176
     1
 40
0.0
176
     1
 40
1.0
176
     1
 90
        0
176
     1
 62
    18
420
        0
176
     1
 90
       50
176
     1
 90
        3
176
     1
 62
     5
420
      255
176
     1
290
     0
176
     1
 90
       50
176
     1
 90
       50
176
     1
 90
       50
176
     1
290
     0
176
     1
 90
       50
176
     1
 62
   256
176
     0
 40
1.0
176
     0
 90
        2
176
     1
  1
strokes_ogs.tif
176
     1
290
     0
176
     1
 40
1.0
176
     1
 40
1.0
176
     1
  0
VISUALSTYLE
  5
3B
102
{ACAD_REACTORS
330
29
102
}
330
29
100
AcDbVisualStyle
  2
Sketchy
 70
    24
177
     3
291
     0
 70
    58
 90
        1
176
     1
 90
        2
176
     1
 90
        2
176
     1
 90
        0
176
     1
 40
0.6
176
     1
 40
30.0
176
     1
 62
     7
420
 16777215
176
     1
 90
        2
176
     1
 90
        2
176
     1
 62
     7
176
     1
 62
     7
176
     1
 90
        1
176
     1
 90
        1
176
     1
 40
40.0
176
     1
 90
       11
176
     1
 62
     7
176
     1
 40
1.0
176
     1
 90
        1
176
     1
 90
        6
176
     1
 90
        2
176
     1
 62
     7
176
     1
 90
        6
176
     1
 90
        0
176
     1
 90
        0
176
     1
290
     0
176
     1
 90
        1
176
     1
 40
0.0
176
     1
 90
        0
176
     1
290
     0
176
     1
290
     1
176
     1
290
     1
176
     1
290
     0
176
     1
290
     0
176
     1
290
     0
176
     1
290
     0
176
     1
290
     0
176
     1
290
     0
176
     1
 90
       50
176
     1
 40
0.0
176
     1
 40
1.0
176
     1
 90
        0
176
     1
 62
    18
420
        0
176
     1
 90
       50
176
     1
 90
        3
176
     1
 62
     5
420
      255
176
     1
290
     0
176
     1
 90
       50
176
     1
 90
       50
176
     1
 90
       50
176
     1
290
     0
176
     1
 90
       50
176
     1
 62
   256
176
     0
 40
1.0
176
     0
 90
        2
176
     1
  1
strokes_ogs.tif
176
     1
290
     0
176
     1
 40
1.0
176
     1
 40
1.0
176
     1
  0
VISUALSTYLE
  5
36
102
{ACAD_REACTORS
330
29
102
}
330
29
100
AcDbVisualStyle
  2
Thicken
 70
    13
177
     3
291
     1
 70
    58
 90
        2
176
     1
 90
        2
176
     1
 90
        0
176
     1
 90
        0
176
     1
 40
0.6
176
     1
 40
30.0
176
     1
 62
     7
420
 16777215
176
     1
 90
        1
176
     1
 90
        4
176
     1
 62
     7
176
     1
 62
   257
176
     1
 90
        1
176
     1
 90
        1
176
     1
 40
1.0
176
     1
 90
       12
176
     1
 62
     7
176
     1
 40
1.0
176
     1
 90
        1
176
     1
 90
        6
176
     1
 90
        2
176
     1
 62
     7
176
     1
 90
        5
176
     1
 90
        0
176
     1
 90
        0
176
     1
290
     0
176
     1
 90
        1
176
     1
 40
0.0
176
     1
 90
        0
176
     1
290
     0
176
     1
290
     1
176
     1
290
     1
176
     1
290
     0
176
     1
290
     0
176
     1
290
     0
176
     1
290
     0
176
     1
290
     0
176
     1
290
     0
176
     1
 90
       50
176
     1
 40
0.0
176
     1
 40
1.0
176
     1
 90
        0
176
     1
 62
    18
420
        0
176
     1
 90
       50
176
     1
 90
        3
176
     1
 62
     5
420
      255
176
     1
290
     0
176
     1
 90
       50
176
     1
 90
       50
176
     1
 90
       50
176
     1
290
     0
176
     1
 90
       50
176
     1
 62
   256
176
     0
 40
1.0
176
     0
 90
        2
176
     1
  1
strokes_ogs.tif
176
     1
290
     0
176
     1
 40
1.0
176
     1
 40
1.0
176
     1
  0
VISUALSTYLE
  5
30
102
{ACAD_REACTORS
330
29
102
}
330
29
100
AcDbVisualStyle
  2
Wireframe
 70
     5
177
     3
291
     0
 70
    58
 90
        0
176
     1
 90
        2
176
     1
 90
        0
176
     1
 90
        0
176
     1
 40
0.6
176
     1
 40
30.0
176
     1
 62
     7
420
 16777215
176
     1
 90
        1
176
     1
 90
        4
176
     1
 62
     7
176
     1
 62
   257
176
     1
 90
        1
176
     1
 90
        1
176
     1
 40
1.0
176
     1
 90
        0
176
     1
 62
   257
176
     1
 40
1.0
176
     1
 90
        1
176
     1
 90
        6
176
     1
 90
        2
176
     1
 62
     7
176
     1
 90
        3
176
     1
 90
        0
176
     1
 90
        0
176
     1
290
     0
176
     1
 90
        1
176
     1
 40
0.0
176
     1
 90
        0
176
     1
290
     0
176
     1
290
     1
176
     1
290
     1
176
     1
290
     0
176
     1
290
     0
176
     1
290
     0
176
     1
290
     0
176
     1
290
     0
176
     1
290
     0
176
     1
 90
       50
176
     1
 40
0.0
176
     1
 40
1.0
176
     1
 90
        0
176
     1
 62
    18
420
        0
176
     1
 90
       50
176
     1
 90
        3
176
     1
 62
     5
420
      255
176
     1
290
     0
176
     1
 90
       50
176
     1
 90
       50
176
     1
 90
       50
176
     1
290
     0
176
     1
 90
       50
176
     1
 62
   256
176
     0
 40
1.0
176
     0
 90
        2
176
     1
  1
strokes_ogs.tif
176
     1
290
     0
176
     1
 40
1.0
176
     1
 40
1.0
176
     1
  0
VISUALSTYLE
  5
3C
102
{ACAD_REACTORS
330
29
102
}
330
29
100
AcDbVisualStyle
  2
X-Ray
 70
    25
177
     3
291
     0
 70
    58
 90
        2
176
     1
 90
        2
176
     1
 90
        1
176
     1
 90
        1
176
     1
 40
0.5
176
     1
 40
30.0
176
     1
 62
     7
420
 16777215
176
     1
 90
        1
176
     1
 90
        0
176
     1
 62
     7
176
     1
 62
   257
176
     1
 90
        1
176
     1
 90
        1
176
     1
 40
1.0
176
     1
 90
        8
176
     1
 62
     7
176
     1
 40
1.0
176
     1
 90
        1
176
     1
 90
        6
176
     1
 90
        2
176
     1
 62
     7
176
     1
 90
        3
176
     1
 90
        0
176
     1
 90
        0
176
     1
290
     0
176
     1
 90
       13
176
     1
 40
0.0
176
     1
 90
        0
176
     1
290
     0
176
     1
290
     1
176
     1
290
     1
176
     1
290
     0
176
     1
290
     0
176
     1
290
     0
176
     1
290
     0
176
     1
290
     0
176
     1
290
     0
176
     1
 90
       50
176
     1
 40
0.0
176
     1
 40
1.0
176
     1
 90
        0
176
     1
 62
    18
420
        0
176
     1
 90
       50
176
     1
 90
        3
176
     1
 62
     5
420
      255
176
     1
290
     0
176
     1
 90
       50
176
     1
 90
       50
176
     1
 90
       50
176
     1
290
     0
176
     1
 90
       50
176
     1
 62
   256
176
     0
 40
1.0
176
     0
 90
        2
176
     1
  1
strokes_ogs.tif
176
     1
290
     0
176
     1
 40
1.0
176
     1
 40
1.0
176
     1
  0
DICTIONARYVAR
  5
123
102
{ACAD_REACTORS
330
11E
102
}
330
11E
100
DictionaryVariables
280
     0
  1
1:1
  0
DICTIONARYVAR
  5
120
102
{ACAD_REACTORS
330
11E
102
}
330
11E
100
DictionaryVariables
280
     0
  1
STANDARD
  0
DICTIONARYVAR
  5
11F
102
{ACAD_REACTORS
330
11E
102
}
330
11E
100
DictionaryVariables
280
     0
  1
STANDARD
  0
DICTIONARYVAR
  5
121
102
{ACAD_REACTORS
330
11E
102
}
330
11E
100
DictionaryVariables
280
     0
  1
Imperial24
  0
DICTIONARYVAR
  5
122
102
{ACAD_REACTORS
330
11E
102
}
330
11E
100
DictionaryVariables
280
     0
  1
Imperial24
  0
DICTIONARY
  5
1A
330
19
100
AcDbDictionary
280
     1
281
     1
  3
BUMPTILE
360
1C
  3
DIFFUSETILE
360
1B
  3
OPACITYTILE
360
1F
  3
REFLECTIONTILE
360
1E
  3
REFRACTIONTILE
360
20
  3
SPECULARTILE
360
1D
  0
DICTIONARY
  5
12
330
11
100
AcDbDictionary
280
     1
281
     1
  3
BUMPTILE
360
14
  3
DIFFUSETILE
360
13
  3
OPACITYTILE
360
17
  3
REFLECTIONTILE
360
16
  3
REFRACTIONTILE
360
18
  3
SPECULARTILE
360
15
  0
DICTIONARY
  5
22
330
21
100
AcDbDictionary
280
     1
281
     1
  3
BUMPTILE
360
24
  3
DIFFUSETILE
360
23
  3
OPACITYTILE
360
27
  3
REFLECTIONTILE
360
26
  3
REFRACTIONTILE
360
28
  3
SPECULARTILE
360
25
  0
DICTIONARY
  5
124
330
65
100
AcDbDictionary
280
     1
281
     1
  3
ACAD_ROUNDTRIP_2008_TABLESTYLE_CELLSTYLEMAP
360
125
  0
XRECORD
  5
1C
102
{ACAD_REACTORS
330
1A
102
}
330
1A
100
AcDbXrecord
280
     1
270
     1
271
     1
  0
XRECORD
  5
1B
102
{ACAD_REACTORS
330
1A
102
}
330
1A
100
AcDbXrecord
280
     1
270
     1
271
     1
  0
XRECORD
  5
1F
102
{ACAD_REACTORS
330
1A
102
}
330
1A
100
AcDbXrecord
280
     1
270
     1
271
     1
  0
XRECORD
  5
1E
102
{ACAD_REACTORS
330
1A
102
}
330
1A
100
AcDbXrecord
280
     1
270
     1
271
     1
  0
XRECORD
  5
20
102
{ACAD_REACTORS
330
1A
102
}
330
1A
100
AcDbXrecord
280
     1
270
     1
271
     1
  0
XRECORD
  5
1D
102
{ACAD_REACTORS
330
1A
102
}
330
1A
100
AcDbXrecord
280
     1
270
     1
271
     1
  0
XRECORD
  5
14
102
{ACAD_REACTORS
330
12
102
}
330
12
100
AcDbXrecord
280
     1
270
     1
271
     1
  0
XRECORD
  5
13
102
{ACAD_REACTORS
330
12
102
}
330
12
100
AcDbXrecord
280
     1
270
     1
271
     1
  0
XRECORD
  5
17
102
{ACAD_REACTORS
330
12
102
}
330
12
100
AcDbXrecord
280
     1
270
     1
271
     1
  0
XRECORD
  5
16
102
{ACAD_REACTORS
330
12
102
}
330
12
100
AcDbXrecord
280
     1
270
     1
271
     1
  0
XRECORD
  5
18
102
{ACAD_REACTORS
330
12
102
}
330
12
100
AcDbXrecord
280
     1
270
     1
271
     1
  0
XRECORD
  5
15
102
{ACAD_REACTORS
330
12
102
}
330
12
100
AcDbXrecord
280
     1
270
     1
271
     1
  0
XRECORD
  5
24
102
{ACAD_REACTORS
330
22
102
}
330
22
100
AcDbXrecord
280
     1
270
     1
271
     1
  0
XRECORD
  5
23
102
{ACAD_REACTORS
330
22
102
}
330
22
100
AcDbXrecord
280
     1
270
     1
271
     1
  0
XRECORD
  5
27
102
{ACAD_REACTORS
330
22
102
}
330
22
100
AcDbXrecord
280
     1
270
     1
271
     1
  0
XRECORD
  5
26
102
{ACAD_REACTORS
330
22
102
}
330
22
100
AcDbXrecord
280
     1
270
     1
271
     1
  0
XRECORD
  5
28
102
{ACAD_REACTORS
330
22
102
}
330
22
100
AcDbXrecord
280
     1
270
     1
271
     1
  0
XRECORD
  5
25
102
{ACAD_REACTORS
330
22
102
}
330
22
100
AcDbXrecord
280
     1
270
     1
271
     1
  0
CELLSTYLEMAP
  5
125
102
{ACAD_REACTORS
330
124
102
}
330
124
100
AcDbCellStyleMap
 90
        3
300
CELLSTYLE
  1
TABLEFORMAT_BEGIN
 90
        5
170
     1
 91
        0
 92
    32768
 62
   257
 93
        1
300
CONTENTFORMAT
  1
CONTENTFORMAT_BEGIN
 90
        0
 91
        0
 92
      512
 93
        0
300

 40
0.0
140
1.0
 94
        5
 62
     0
340
55
144
0.25
309
CONTENTFORMAT_END
171
     0
 94
        0
309
TABLEFORMAT_END
  1
CELLSTYLE_BEGIN
 90
        1
 91
        1
300
_TITLE
309
CELLSTYLE_END
300
CELLSTYLE
  1
TABLEFORMAT_BEGIN
 90
        5
170
     1
 91
        0
 92
        0
 62
   257
 93
        1
300
CONTENTFORMAT
  1
CONTENTFORMAT_BEGIN
 90
        0
 91
        0
 92
      512
 93
        0
300

 40
0.0
140
1.0
 94
        5
 62
     0
340
55
144
0.18
309
CONTENTFORMAT_END
171
     0
 94
        0
309
TABLEFORMAT_END
  1
CELLSTYLE_BEGIN
 90
        2
 91
        1
300
_HEADER
309
CELLSTYLE_END
300
CELLSTYLE
  1
TABLEFORMAT_BEGIN
 90
        5
170
     1
 91
        0
 92
        0
 62
   257
 93
        1
300
CONTENTFORMAT
  1
CONTENTFORMAT_BEGIN
 90
        0
 91
        0
 92
      512
 93
        0
300

 40
0.0
140
1.0
 94
        2
 62
     0
340
55
144
0.18
309
CONTENTFORMAT_END
171
     0
 94
        0
309
TABLEFORMAT_END
  1
CELLSTYLE_BEGIN
 90
        3
 91
        2
300
_DATA
309
CELLSTYLE_END
  0
ENDSEC
  0
EOF
